<ttFont>
    <TTGlyph name=".notdef" xMin="68" yMin="0" xMax="612" yMax="1365">
      <contour>
        <pt x="68" y="0" on="1"/>
        <pt x="68" y="1365" on="1"/>
        <pt x="612" y="1365" on="1"/>
        <pt x="612" y="0" on="1"/>
      </contour>
      <contour>
        <pt x="136" y="68" on="1"/>
        <pt x="544" y="68" on="1"/>
        <pt x="544" y="1297" on="1"/>
        <pt x="136" y="1297" on="1"/>
      </contour>
    </TTGlyph>
    <TTGlyph name="A" xMin="-127" yMin="-7" xMax="1260" yMax="1512">
      <contour>
        <pt x="-125" y="-7" on="1"/>
        <pt x="-127" y="-5" on="0"/>
        <pt x="-127" y="1" on="1"/>
        <pt x="-127" y="8" on="0"/>
        <pt x="-124" y="22" on="1"/>
        <pt x="-119" y="46" on="0"/>
        <pt x="-112" y="59" on="1"/>
        <pt x="-86" y="59" on="0"/>
        <pt x="0" y="83" on="0"/>
        <pt x="18" y="103" on="1"/>
        <pt x="38" y="124" on="0"/>
        <pt x="74" y="172" on="0"/>
        <pt x="112" y="233" on="0"/>
        <pt x="138" y="278" on="0"/>
        <pt x="160" y="317" on="1"/>
        <pt x="789" y="1446" on="1"/>
        <pt x="803" y="1471" on="0"/>
        <pt x="864" y="1512" on="0"/>
        <pt x="880" y="1512" on="1"/>
        <pt x="885" y="1512" on="0"/>
        <pt x="891" y="1505" on="1"/>
        <pt x="1088" y="287" on="1"/>
        <pt x="1093" y="255" on="0"/>
        <pt x="1106" y="174" on="0"/>
        <pt x="1112" y="136" on="0"/>
        <pt x="1113" y="132" on="1"/>
        <pt x="1116" y="117" on="0"/>
        <pt x="1138" y="91" on="0"/>
        <pt x="1168" y="76" on="0"/>
        <pt x="1199" y="66" on="0"/>
        <pt x="1231" y="61" on="0"/>
        <pt x="1250" y="59" on="0"/>
        <pt x="1256" y="59" on="1"/>
        <pt x="1259" y="51" on="0"/>
        <pt x="1259" y="40" on="1"/>
        <pt x="1260" y="32" on="0"/>
        <pt x="1258" y="23" on="1"/>
        <pt x="1254" y="0" on="0"/>
        <pt x="1249" y="-7" on="1"/>
        <pt x="1229" y="-6" on="0"/>
        <pt x="1121" y="1" on="0"/>
        <pt x="1043" y="5" on="0"/>
        <pt x="1001" y="5" on="1"/>
        <pt x="967" y="5" on="0"/>
        <pt x="904" y="2" on="0"/>
        <pt x="861" y="-1" on="0"/>
        <pt x="794" y="-5" on="0"/>
        <pt x="764" y="-7" on="1"/>
        <pt x="757" y="2" on="0"/>
        <pt x="767" y="51" on="0"/>
        <pt x="777" y="59" on="1"/>
        <pt x="817" y="59" on="0"/>
        <pt x="876" y="75" on="0"/>
        <pt x="907" y="107" on="0"/>
        <pt x="907" y="130" on="1"/>
        <pt x="907" y="198" on="0"/>
        <pt x="901" y="242" on="1"/>
        <pt x="850" y="584" on="1"/>
        <pt x="397" y="584" on="1"/>
        <pt x="288" y="386" on="0"/>
        <pt x="235" y="285" on="1"/>
        <pt x="169" y="156" on="0"/>
        <pt x="169" y="114" on="1"/>
        <pt x="169" y="97" on="0"/>
        <pt x="207" y="74" on="0"/>
        <pt x="261" y="63" on="0"/>
        <pt x="300" y="59" on="0"/>
        <pt x="310" y="59" on="1"/>
        <pt x="313" y="54" on="0"/>
        <pt x="306" y="4" on="0"/>
        <pt x="301" y="-7" on="1"/>
        <pt x="270" y="-5" on="0"/>
        <pt x="200" y="1" on="0"/>
        <pt x="139" y="5" on="0"/>
        <pt x="98" y="5" on="1"/>
        <pt x="55" y="5" on="0"/>
        <pt x="-10" y="1" on="0"/>
        <pt x="-89" y="-5" on="0"/>
      </contour>
      <contour>
        <pt x="438" y="659" on="1"/>
        <pt x="837" y="659" on="1"/>
        <pt x="750" y="1220" on="1"/>
      </contour>
    </TTGlyph>
    <TTGlyph name="AE" xMin="-137" yMin="-9" xMax="1778" yMax="1514">
      <contour>
        <pt x="-137" y="-5" on="0"/>
        <pt x="-134" y="55" on="0"/>
        <pt x="-128" y="55" on="1"/>
        <pt x="-103" y="55" on="0"/>
        <pt x="-3" y="83" on="0"/>
        <pt x="18" y="103" on="1"/>
        <pt x="108" y="183" on="0"/>
        <pt x="198" y="317" on="1"/>
        <pt x="901" y="1336" on="1"/>
        <pt x="912" y="1359" on="0"/>
        <pt x="912" y="1370" on="1"/>
        <pt x="912" y="1392" on="0"/>
        <pt x="878" y="1425" on="0"/>
        <pt x="844" y="1425" on="1"/>
        <pt x="837" y="1431" on="0"/>
        <pt x="838" y="1485" on="0"/>
        <pt x="844" y="1496" on="1"/>
        <pt x="1067" y="1498" on="1"/>
        <pt x="1162" y="1498" on="0"/>
        <pt x="1623" y="1514" on="0"/>
        <pt x="1742" y="1514" on="1"/>
        <pt x="1743" y="1463" on="0"/>
        <pt x="1752" y="1360" on="0"/>
        <pt x="1766" y="1238" on="0"/>
        <pt x="1769" y="1204" on="1"/>
        <pt x="1758" y="1192" on="0"/>
        <pt x="1728" y="1192" on="1"/>
        <pt x="1701" y="1192" on="0"/>
        <pt x="1701" y="1208" on="1"/>
        <pt x="1692" y="1275" on="0"/>
        <pt x="1653" y="1366" on="0"/>
        <pt x="1594" y="1416" on="0"/>
        <pt x="1526" y="1436" on="0"/>
        <pt x="1482" y="1436" on="1"/>
        <pt x="1300" y="1436" on="1"/>
        <pt x="1277" y="1436" on="0"/>
        <pt x="1224" y="1434" on="0"/>
        <pt x="1156" y="1422" on="0"/>
        <pt x="1151" y="1411" on="1"/>
        <pt x="1133" y="1369" on="0"/>
        <pt x="1119" y="1247" on="1"/>
        <pt x="1072" y="791" on="1"/>
        <pt x="1070" y="783" on="0"/>
        <pt x="1120" y="777" on="0"/>
        <pt x="1161" y="777" on="1"/>
        <pt x="1272" y="777" on="1"/>
        <pt x="1312" y="777" on="0"/>
        <pt x="1361" y="778" on="0"/>
        <pt x="1410" y="786" on="0"/>
        <pt x="1436" y="790" on="0"/>
        <pt x="1464" y="811" on="0"/>
        <pt x="1477" y="824" on="0"/>
        <pt x="1497" y="864" on="0"/>
        <pt x="1507" y="891" on="0"/>
        <pt x="1518" y="922" on="1"/>
        <pt x="1523" y="935" on="0"/>
        <pt x="1525" y="942" on="1"/>
        <pt x="1532" y="958" on="0"/>
        <pt x="1560" y="958" on="1"/>
        <pt x="1584" y="958" on="0"/>
        <pt x="1591" y="946" on="1"/>
        <pt x="1546" y="515" on="1"/>
        <pt x="1537" y="506" on="0"/>
        <pt x="1509" y="506" on="1"/>
        <pt x="1483" y="506" on="0"/>
        <pt x="1480" y="524" on="1"/>
        <pt x="1467" y="615" on="0"/>
        <pt x="1450" y="672" on="0"/>
        <pt x="1436" y="684" on="1"/>
        <pt x="1410" y="702" on="0"/>
        <pt x="1213" y="702" on="1"/>
        <pt x="1062" y="702" on="0"/>
        <pt x="1060" y="682" on="1"/>
        <pt x="1017" y="249" on="1"/>
        <pt x="1017" y="244" on="0"/>
        <pt x="1013" y="198" on="0"/>
        <pt x="1011" y="164" on="0"/>
        <pt x="1009" y="121" on="0"/>
        <pt x="1011" y="94" on="0"/>
        <pt x="1015" y="91" on="1"/>
        <pt x="1024" y="83" on="0"/>
        <pt x="1045" y="73" on="0"/>
        <pt x="1087" y="69" on="0"/>
        <pt x="1122" y="68" on="0"/>
        <pt x="1163" y="68" on="1"/>
        <pt x="1263" y="68" on="1"/>
        <pt x="1433" y="68" on="0"/>
        <pt x="1534" y="139" on="1"/>
        <pt x="1629" y="204" on="0"/>
        <pt x="1694" y="369" on="1"/>
        <pt x="1701" y="383" on="0"/>
        <pt x="1726" y="383" on="1"/>
        <pt x="1742" y="383" on="0"/>
        <pt x="1775" y="374" on="0"/>
        <pt x="1778" y="369" on="1"/>
        <pt x="1767" y="345" on="0"/>
        <pt x="1679" y="155" on="0"/>
        <pt x="1630" y="36" on="0"/>
        <pt x="1619" y="-9" on="1"/>
        <pt x="1510" y="-9" on="0"/>
        <pt x="1045" y="0" on="0"/>
        <pt x="898" y="0" on="1"/>
        <pt x="849" y="0" on="0"/>
        <pt x="707" y="-3" on="0"/>
        <pt x="661" y="-5" on="1"/>
        <pt x="616" y="-7" on="1"/>
        <pt x="612" y="3" on="0"/>
        <pt x="621" y="67" on="0"/>
        <pt x="629" y="71" on="1"/>
        <pt x="645" y="71" on="0"/>
        <pt x="710" y="79" on="0"/>
        <pt x="784" y="101" on="0"/>
        <pt x="796" y="114" on="1"/>
        <pt x="821" y="144" on="0"/>
        <pt x="840" y="216" on="0"/>
        <pt x="846" y="283" on="1"/>
        <pt x="885" y="700" on="1"/>
        <pt x="554" y="700" on="1"/>
        <pt x="278" y="299" on="1"/>
        <pt x="176" y="152" on="0"/>
        <pt x="176" y="114" on="1"/>
        <pt x="176" y="90" on="0"/>
        <pt x="278" y="55" on="0"/>
        <pt x="306" y="55" on="1"/>
        <pt x="306" y="53" on="0"/>
        <pt x="306" y="30" on="0"/>
        <pt x="302" y="-2" on="0"/>
        <pt x="299" y="-7" on="1"/>
        <pt x="269" y="-5" on="0"/>
        <pt x="191" y="1" on="0"/>
        <pt x="126" y="5" on="0"/>
        <pt x="84" y="5" on="1"/>
        <pt x="28" y="5" on="0"/>
        <pt x="-105" y="-5" on="0"/>
        <pt x="-135" y="-7" on="1"/>
      </contour>
      <contour>
        <pt x="609" y="777" on="1"/>
        <pt x="891" y="777" on="1"/>
        <pt x="937" y="1254" on="1"/>
      </contour>
    </TTGlyph>
    <TTGlyph name="Aacute" xMin="-129" yMin="-7" xMax="1261" yMax="1867">
      <contour>
        <pt x="-125" y="-7" on="1"/>
        <pt x="-129" y="-2" on="0"/>
        <pt x="-119" y="47" on="0"/>
        <pt x="-112" y="59" on="1"/>
        <pt x="-86" y="59" on="0"/>
        <pt x="0" y="83" on="0"/>
        <pt x="18" y="103" on="1"/>
        <pt x="38" y="124" on="0"/>
        <pt x="74" y="172" on="0"/>
        <pt x="112" y="233" on="0"/>
        <pt x="138" y="278" on="0"/>
        <pt x="160" y="317" on="1"/>
        <pt x="789" y="1446" on="1"/>
        <pt x="803" y="1471" on="0"/>
        <pt x="864" y="1512" on="0"/>
        <pt x="880" y="1512" on="1"/>
        <pt x="885" y="1512" on="0"/>
        <pt x="891" y="1505" on="1"/>
        <pt x="1088" y="287" on="1"/>
        <pt x="1093" y="255" on="0"/>
        <pt x="1106" y="174" on="0"/>
        <pt x="1112" y="136" on="0"/>
        <pt x="1113" y="132" on="1"/>
        <pt x="1116" y="117" on="0"/>
        <pt x="1138" y="91" on="0"/>
        <pt x="1168" y="76" on="0"/>
        <pt x="1199" y="66" on="0"/>
        <pt x="1231" y="61" on="0"/>
        <pt x="1250" y="59" on="0"/>
        <pt x="1256" y="59" on="1"/>
        <pt x="1261" y="46" on="0"/>
        <pt x="1254" y="0" on="0"/>
        <pt x="1249" y="-7" on="1"/>
        <pt x="1229" y="-6" on="0"/>
        <pt x="1121" y="1" on="0"/>
        <pt x="1043" y="5" on="0"/>
        <pt x="1001" y="5" on="1"/>
        <pt x="967" y="5" on="0"/>
        <pt x="904" y="2" on="0"/>
        <pt x="861" y="-1" on="0"/>
        <pt x="794" y="-5" on="0"/>
        <pt x="764" y="-7" on="1"/>
        <pt x="757" y="2" on="0"/>
        <pt x="767" y="51" on="0"/>
        <pt x="777" y="59" on="1"/>
        <pt x="817" y="59" on="0"/>
        <pt x="876" y="75" on="0"/>
        <pt x="907" y="107" on="0"/>
        <pt x="907" y="130" on="1"/>
        <pt x="907" y="198" on="0"/>
        <pt x="901" y="242" on="1"/>
        <pt x="850" y="584" on="1"/>
        <pt x="397" y="584" on="1"/>
        <pt x="288" y="386" on="0"/>
        <pt x="235" y="285" on="1"/>
        <pt x="169" y="156" on="0"/>
        <pt x="169" y="114" on="1"/>
        <pt x="169" y="97" on="0"/>
        <pt x="207" y="74" on="0"/>
        <pt x="261" y="63" on="0"/>
        <pt x="300" y="59" on="0"/>
        <pt x="310" y="59" on="1"/>
        <pt x="313" y="54" on="0"/>
        <pt x="306" y="4" on="0"/>
        <pt x="301" y="-7" on="1"/>
        <pt x="270" y="-5" on="0"/>
        <pt x="200" y="1" on="0"/>
        <pt x="139" y="5" on="0"/>
        <pt x="98" y="5" on="1"/>
        <pt x="55" y="5" on="0"/>
        <pt x="-10" y="1" on="0"/>
        <pt x="-89" y="-5" on="0"/>
      </contour>
      <contour>
        <pt x="438" y="659" on="1"/>
        <pt x="837" y="659" on="1"/>
        <pt x="750" y="1220" on="1"/>
      </contour>
      <contour>
        <pt x="789" y="1644" on="1"/>
        <pt x="789" y="1656" on="0"/>
        <pt x="986" y="1828" on="0"/>
        <pt x="1031" y="1856" on="1"/>
        <pt x="1036" y="1859" on="0"/>
        <pt x="1080" y="1867" on="0"/>
        <pt x="1092" y="1867" on="1"/>
        <pt x="1140" y="1867" on="0"/>
        <pt x="1202" y="1837" on="0"/>
        <pt x="1202" y="1817" on="1"/>
        <pt x="1202" y="1791" on="0"/>
        <pt x="1015" y="1694" on="0"/>
        <pt x="822" y="1621" on="0"/>
        <pt x="803" y="1621" on="1"/>
        <pt x="801" y="1621" on="0"/>
        <pt x="789" y="1639" on="0"/>
      </contour>
    </TTGlyph>
    <TTGlyph name="Acircumflex" xMin="-129" yMin="-7" xMax="1261" yMax="1906">
      <contour>
        <pt x="-125" y="-7" on="1"/>
        <pt x="-129" y="-2" on="0"/>
        <pt x="-119" y="47" on="0"/>
        <pt x="-112" y="59" on="1"/>
        <pt x="-86" y="59" on="0"/>
        <pt x="0" y="83" on="0"/>
        <pt x="18" y="103" on="1"/>
        <pt x="38" y="124" on="0"/>
        <pt x="74" y="172" on="0"/>
        <pt x="112" y="233" on="0"/>
        <pt x="138" y="278" on="0"/>
        <pt x="160" y="317" on="1"/>
        <pt x="789" y="1446" on="1"/>
        <pt x="803" y="1471" on="0"/>
        <pt x="864" y="1512" on="0"/>
        <pt x="880" y="1512" on="1"/>
        <pt x="885" y="1512" on="0"/>
        <pt x="891" y="1505" on="1"/>
        <pt x="1088" y="287" on="1"/>
        <pt x="1093" y="255" on="0"/>
        <pt x="1106" y="174" on="0"/>
        <pt x="1112" y="136" on="0"/>
        <pt x="1113" y="132" on="1"/>
        <pt x="1116" y="117" on="0"/>
        <pt x="1138" y="91" on="0"/>
        <pt x="1168" y="76" on="0"/>
        <pt x="1199" y="66" on="0"/>
        <pt x="1231" y="61" on="0"/>
        <pt x="1250" y="59" on="0"/>
        <pt x="1256" y="59" on="1"/>
        <pt x="1261" y="46" on="0"/>
        <pt x="1254" y="0" on="0"/>
        <pt x="1249" y="-7" on="1"/>
        <pt x="1229" y="-6" on="0"/>
        <pt x="1121" y="1" on="0"/>
        <pt x="1043" y="5" on="0"/>
        <pt x="1001" y="5" on="1"/>
        <pt x="967" y="5" on="0"/>
        <pt x="904" y="2" on="0"/>
        <pt x="861" y="-1" on="0"/>
        <pt x="794" y="-5" on="0"/>
        <pt x="764" y="-7" on="1"/>
        <pt x="757" y="2" on="0"/>
        <pt x="767" y="51" on="0"/>
        <pt x="777" y="59" on="1"/>
        <pt x="817" y="59" on="0"/>
        <pt x="876" y="75" on="0"/>
        <pt x="907" y="107" on="0"/>
        <pt x="907" y="130" on="1"/>
        <pt x="907" y="198" on="0"/>
        <pt x="901" y="242" on="1"/>
        <pt x="850" y="584" on="1"/>
        <pt x="397" y="584" on="1"/>
        <pt x="288" y="386" on="0"/>
        <pt x="235" y="285" on="1"/>
        <pt x="169" y="156" on="0"/>
        <pt x="169" y="114" on="1"/>
        <pt x="169" y="97" on="0"/>
        <pt x="207" y="74" on="0"/>
        <pt x="261" y="63" on="0"/>
        <pt x="300" y="59" on="0"/>
        <pt x="310" y="59" on="1"/>
        <pt x="313" y="54" on="0"/>
        <pt x="306" y="4" on="0"/>
        <pt x="301" y="-7" on="1"/>
        <pt x="270" y="-5" on="0"/>
        <pt x="200" y="1" on="0"/>
        <pt x="139" y="5" on="0"/>
        <pt x="98" y="5" on="1"/>
        <pt x="55" y="5" on="0"/>
        <pt x="-10" y="1" on="0"/>
        <pt x="-89" y="-5" on="0"/>
      </contour>
      <contour>
        <pt x="438" y="659" on="1"/>
        <pt x="837" y="659" on="1"/>
        <pt x="750" y="1220" on="1"/>
      </contour>
      <contour>
        <pt x="632" y="1644" on="1"/>
        <pt x="792" y="1764" on="0"/>
        <pt x="933" y="1890" on="1"/>
        <pt x="952" y="1906" on="0"/>
        <pt x="964" y="1906" on="1"/>
        <pt x="979" y="1906" on="0"/>
        <pt x="987" y="1890" on="1"/>
        <pt x="1065" y="1765" on="0"/>
        <pt x="1165" y="1644" on="1"/>
        <pt x="1164" y="1637" on="0"/>
        <pt x="1153" y="1627" on="0"/>
        <pt x="1138" y="1621" on="0"/>
        <pt x="1131" y="1621" on="1"/>
        <pt x="928" y="1756" on="1"/>
        <pt x="764" y="1676" on="0"/>
        <pt x="654" y="1621" on="1"/>
        <pt x="644" y="1621" on="0"/>
        <pt x="630" y="1634" on="0"/>
      </contour>
    </TTGlyph>
    <TTGlyph name="Adieresis" xMin="-129" yMin="-7" xMax="1261" yMax="1888">
      <contour>
        <pt x="-125" y="-7" on="1"/>
        <pt x="-129" y="-2" on="0"/>
        <pt x="-119" y="47" on="0"/>
        <pt x="-112" y="59" on="1"/>
        <pt x="-86" y="59" on="0"/>
        <pt x="0" y="83" on="0"/>
        <pt x="18" y="103" on="1"/>
        <pt x="38" y="124" on="0"/>
        <pt x="74" y="172" on="0"/>
        <pt x="112" y="233" on="0"/>
        <pt x="138" y="278" on="0"/>
        <pt x="160" y="317" on="1"/>
        <pt x="789" y="1446" on="1"/>
        <pt x="803" y="1471" on="0"/>
        <pt x="864" y="1512" on="0"/>
        <pt x="880" y="1512" on="1"/>
        <pt x="885" y="1512" on="0"/>
        <pt x="891" y="1505" on="1"/>
        <pt x="1088" y="287" on="1"/>
        <pt x="1093" y="255" on="0"/>
        <pt x="1106" y="174" on="0"/>
        <pt x="1112" y="136" on="0"/>
        <pt x="1113" y="132" on="1"/>
        <pt x="1116" y="117" on="0"/>
        <pt x="1138" y="91" on="0"/>
        <pt x="1168" y="76" on="0"/>
        <pt x="1199" y="66" on="0"/>
        <pt x="1231" y="61" on="0"/>
        <pt x="1250" y="59" on="0"/>
        <pt x="1256" y="59" on="1"/>
        <pt x="1261" y="46" on="0"/>
        <pt x="1254" y="0" on="0"/>
        <pt x="1249" y="-7" on="1"/>
        <pt x="1229" y="-6" on="0"/>
        <pt x="1121" y="1" on="0"/>
        <pt x="1043" y="5" on="0"/>
        <pt x="1001" y="5" on="1"/>
        <pt x="967" y="5" on="0"/>
        <pt x="904" y="2" on="0"/>
        <pt x="861" y="-1" on="0"/>
        <pt x="794" y="-5" on="0"/>
        <pt x="764" y="-7" on="1"/>
        <pt x="757" y="2" on="0"/>
        <pt x="767" y="51" on="0"/>
        <pt x="777" y="59" on="1"/>
        <pt x="817" y="59" on="0"/>
        <pt x="876" y="75" on="0"/>
        <pt x="907" y="107" on="0"/>
        <pt x="907" y="130" on="1"/>
        <pt x="907" y="198" on="0"/>
        <pt x="901" y="242" on="1"/>
        <pt x="850" y="584" on="1"/>
        <pt x="397" y="584" on="1"/>
        <pt x="288" y="386" on="0"/>
        <pt x="235" y="285" on="1"/>
        <pt x="169" y="156" on="0"/>
        <pt x="169" y="114" on="1"/>
        <pt x="169" y="97" on="0"/>
        <pt x="207" y="74" on="0"/>
        <pt x="261" y="63" on="0"/>
        <pt x="300" y="59" on="0"/>
        <pt x="310" y="59" on="1"/>
        <pt x="313" y="54" on="0"/>
        <pt x="306" y="4" on="0"/>
        <pt x="301" y="-7" on="1"/>
        <pt x="270" y="-5" on="0"/>
        <pt x="200" y="1" on="0"/>
        <pt x="139" y="5" on="0"/>
        <pt x="98" y="5" on="1"/>
        <pt x="55" y="5" on="0"/>
        <pt x="-10" y="1" on="0"/>
        <pt x="-89" y="-5" on="0"/>
      </contour>
      <contour>
        <pt x="438" y="659" on="1"/>
        <pt x="837" y="659" on="1"/>
        <pt x="750" y="1220" on="1"/>
      </contour>
      <contour>
        <pt x="606" y="1774" on="1"/>
        <pt x="610" y="1793" on="0"/>
        <pt x="627" y="1828" on="0"/>
        <pt x="652" y="1856" on="0"/>
        <pt x="682" y="1877" on="0"/>
        <pt x="717" y="1888" on="0"/>
        <pt x="734" y="1888" on="1"/>
        <pt x="779" y="1888" on="0"/>
        <pt x="827" y="1822" on="0"/>
        <pt x="819" y="1774" on="1"/>
        <pt x="810" y="1726" on="0"/>
        <pt x="733" y="1660" on="0"/>
        <pt x="689" y="1660" on="1"/>
        <pt x="644" y="1660" on="0"/>
        <pt x="598" y="1726" on="0"/>
      </contour>
      <contour>
        <pt x="990" y="1774" on="1"/>
        <pt x="998" y="1822" on="0"/>
        <pt x="1073" y="1888" on="0"/>
        <pt x="1117" y="1888" on="1"/>
        <pt x="1162" y="1888" on="0"/>
        <pt x="1210" y="1822" on="0"/>
        <pt x="1202" y="1774" on="1"/>
        <pt x="1193" y="1726" on="0"/>
        <pt x="1118" y="1660" on="0"/>
        <pt x="1074" y="1660" on="1"/>
        <pt x="1045" y="1660" on="0"/>
        <pt x="1002" y="1690" on="0"/>
        <pt x="984" y="1742" on="0"/>
      </contour>
    </TTGlyph>
    <TTGlyph name="Agrave" xMin="-129" yMin="-7" xMax="1261" yMax="1865">
      <contour>
        <pt x="-125" y="-7" on="1"/>
        <pt x="-129" y="-2" on="0"/>
        <pt x="-119" y="47" on="0"/>
        <pt x="-112" y="59" on="1"/>
        <pt x="-86" y="59" on="0"/>
        <pt x="0" y="83" on="0"/>
        <pt x="18" y="103" on="1"/>
        <pt x="38" y="124" on="0"/>
        <pt x="74" y="172" on="0"/>
        <pt x="112" y="233" on="0"/>
        <pt x="138" y="278" on="0"/>
        <pt x="160" y="317" on="1"/>
        <pt x="789" y="1446" on="1"/>
        <pt x="803" y="1471" on="0"/>
        <pt x="864" y="1512" on="0"/>
        <pt x="880" y="1512" on="1"/>
        <pt x="885" y="1512" on="0"/>
        <pt x="891" y="1505" on="1"/>
        <pt x="1088" y="287" on="1"/>
        <pt x="1093" y="255" on="0"/>
        <pt x="1106" y="174" on="0"/>
        <pt x="1112" y="136" on="0"/>
        <pt x="1113" y="132" on="1"/>
        <pt x="1116" y="117" on="0"/>
        <pt x="1138" y="91" on="0"/>
        <pt x="1168" y="76" on="0"/>
        <pt x="1199" y="66" on="0"/>
        <pt x="1231" y="61" on="0"/>
        <pt x="1250" y="59" on="0"/>
        <pt x="1256" y="59" on="1"/>
        <pt x="1261" y="46" on="0"/>
        <pt x="1254" y="0" on="0"/>
        <pt x="1249" y="-7" on="1"/>
        <pt x="1229" y="-6" on="0"/>
        <pt x="1121" y="1" on="0"/>
        <pt x="1043" y="5" on="0"/>
        <pt x="1001" y="5" on="1"/>
        <pt x="967" y="5" on="0"/>
        <pt x="904" y="2" on="0"/>
        <pt x="861" y="-1" on="0"/>
        <pt x="794" y="-5" on="0"/>
        <pt x="764" y="-7" on="1"/>
        <pt x="757" y="2" on="0"/>
        <pt x="767" y="51" on="0"/>
        <pt x="777" y="59" on="1"/>
        <pt x="817" y="59" on="0"/>
        <pt x="876" y="75" on="0"/>
        <pt x="907" y="107" on="0"/>
        <pt x="907" y="130" on="1"/>
        <pt x="907" y="198" on="0"/>
        <pt x="901" y="242" on="1"/>
        <pt x="850" y="584" on="1"/>
        <pt x="397" y="584" on="1"/>
        <pt x="288" y="386" on="0"/>
        <pt x="235" y="285" on="1"/>
        <pt x="169" y="156" on="0"/>
        <pt x="169" y="114" on="1"/>
        <pt x="169" y="97" on="0"/>
        <pt x="207" y="74" on="0"/>
        <pt x="261" y="63" on="0"/>
        <pt x="300" y="59" on="0"/>
        <pt x="310" y="59" on="1"/>
        <pt x="313" y="54" on="0"/>
        <pt x="306" y="4" on="0"/>
        <pt x="301" y="-7" on="1"/>
        <pt x="270" y="-5" on="0"/>
        <pt x="200" y="1" on="0"/>
        <pt x="139" y="5" on="0"/>
        <pt x="98" y="5" on="1"/>
        <pt x="55" y="5" on="0"/>
        <pt x="-10" y="1" on="0"/>
        <pt x="-89" y="-5" on="0"/>
      </contour>
      <contour>
        <pt x="438" y="659" on="1"/>
        <pt x="837" y="659" on="1"/>
        <pt x="750" y="1220" on="1"/>
      </contour>
      <contour>
        <pt x="538" y="1815" on="1"/>
        <pt x="538" y="1835" on="0"/>
        <pt x="600" y="1865" on="0"/>
        <pt x="648" y="1865" on="1"/>
        <pt x="660" y="1865" on="0"/>
        <pt x="704" y="1857" on="0"/>
        <pt x="709" y="1854" on="1"/>
        <pt x="753" y="1825" on="0"/>
        <pt x="951" y="1653" on="0"/>
        <pt x="951" y="1642" on="1"/>
        <pt x="951" y="1638" on="0"/>
        <pt x="945" y="1627" on="0"/>
        <pt x="938" y="1619" on="0"/>
        <pt x="937" y="1619" on="1"/>
        <pt x="918" y="1619" on="0"/>
        <pt x="724" y="1692" on="0"/>
        <pt x="538" y="1789" on="0"/>
      </contour>
    </TTGlyph>
    <TTGlyph name="Aring" xMin="-129" yMin="-7" xMax="1261" yMax="1911">
      <contour>
        <pt x="-125" y="-7" on="1"/>
        <pt x="-129" y="-2" on="0"/>
        <pt x="-119" y="47" on="0"/>
        <pt x="-112" y="59" on="1"/>
        <pt x="-86" y="59" on="0"/>
        <pt x="0" y="83" on="0"/>
        <pt x="18" y="103" on="1"/>
        <pt x="38" y="124" on="0"/>
        <pt x="74" y="172" on="0"/>
        <pt x="112" y="233" on="0"/>
        <pt x="138" y="278" on="0"/>
        <pt x="160" y="317" on="1"/>
        <pt x="789" y="1446" on="1"/>
        <pt x="803" y="1471" on="0"/>
        <pt x="864" y="1512" on="0"/>
        <pt x="880" y="1512" on="1"/>
        <pt x="885" y="1512" on="0"/>
        <pt x="891" y="1505" on="1"/>
        <pt x="1088" y="287" on="1"/>
        <pt x="1093" y="255" on="0"/>
        <pt x="1106" y="174" on="0"/>
        <pt x="1112" y="136" on="0"/>
        <pt x="1113" y="132" on="1"/>
        <pt x="1116" y="117" on="0"/>
        <pt x="1138" y="91" on="0"/>
        <pt x="1168" y="76" on="0"/>
        <pt x="1199" y="66" on="0"/>
        <pt x="1231" y="61" on="0"/>
        <pt x="1250" y="59" on="0"/>
        <pt x="1256" y="59" on="1"/>
        <pt x="1261" y="46" on="0"/>
        <pt x="1254" y="0" on="0"/>
        <pt x="1249" y="-7" on="1"/>
        <pt x="1229" y="-6" on="0"/>
        <pt x="1121" y="1" on="0"/>
        <pt x="1043" y="5" on="0"/>
        <pt x="1001" y="5" on="1"/>
        <pt x="967" y="5" on="0"/>
        <pt x="904" y="2" on="0"/>
        <pt x="861" y="-1" on="0"/>
        <pt x="794" y="-5" on="0"/>
        <pt x="764" y="-7" on="1"/>
        <pt x="757" y="2" on="0"/>
        <pt x="767" y="51" on="0"/>
        <pt x="777" y="59" on="1"/>
        <pt x="817" y="59" on="0"/>
        <pt x="876" y="75" on="0"/>
        <pt x="907" y="107" on="0"/>
        <pt x="907" y="130" on="1"/>
        <pt x="907" y="198" on="0"/>
        <pt x="901" y="242" on="1"/>
        <pt x="850" y="584" on="1"/>
        <pt x="397" y="584" on="1"/>
        <pt x="288" y="386" on="0"/>
        <pt x="235" y="285" on="1"/>
        <pt x="169" y="156" on="0"/>
        <pt x="169" y="114" on="1"/>
        <pt x="169" y="97" on="0"/>
        <pt x="207" y="74" on="0"/>
        <pt x="261" y="63" on="0"/>
        <pt x="300" y="59" on="0"/>
        <pt x="310" y="59" on="1"/>
        <pt x="313" y="54" on="0"/>
        <pt x="306" y="4" on="0"/>
        <pt x="301" y="-7" on="1"/>
        <pt x="270" y="-5" on="0"/>
        <pt x="200" y="1" on="0"/>
        <pt x="139" y="5" on="0"/>
        <pt x="98" y="5" on="1"/>
        <pt x="55" y="5" on="0"/>
        <pt x="-10" y="1" on="0"/>
        <pt x="-89" y="-5" on="0"/>
      </contour>
      <contour>
        <pt x="438" y="659" on="1"/>
        <pt x="837" y="659" on="1"/>
        <pt x="750" y="1220" on="1"/>
      </contour>
      <contour>
        <pt x="701" y="1624" on="0"/>
        <pt x="735" y="1791" on="0"/>
        <pt x="871" y="1911" on="0"/>
        <pt x="948" y="1911" on="1"/>
        <pt x="1025" y="1911" on="0"/>
        <pt x="1109" y="1792" on="0"/>
        <pt x="1092" y="1708" on="1"/>
        <pt x="1084" y="1666" on="0"/>
        <pt x="1040" y="1591" on="0"/>
        <pt x="981" y="1535" on="0"/>
        <pt x="906" y="1503" on="0"/>
        <pt x="869" y="1503" on="1"/>
        <pt x="791" y="1503" on="0"/>
      </contour>
      <contour>
        <pt x="796" y="1742" on="0"/>
        <pt x="782" y="1673" on="0"/>
        <pt x="803" y="1614" on="0"/>
        <pt x="851" y="1580" on="0"/>
        <pt x="882" y="1580" on="1"/>
        <pt x="930" y="1580" on="0"/>
        <pt x="1011" y="1655" on="0"/>
        <pt x="1032" y="1761" on="0"/>
        <pt x="980" y="1833" on="0"/>
        <pt x="933" y="1833" on="1"/>
        <pt x="901" y="1833" on="0"/>
        <pt x="840" y="1800" on="0"/>
      </contour>
    </TTGlyph>
    <TTGlyph name="Atilde" xMin="-129" yMin="-7" xMax="1261" yMax="1867">
      <contour>
        <pt x="-125" y="-7" on="1"/>
        <pt x="-129" y="-2" on="0"/>
        <pt x="-119" y="47" on="0"/>
        <pt x="-112" y="59" on="1"/>
        <pt x="-86" y="59" on="0"/>
        <pt x="0" y="83" on="0"/>
        <pt x="18" y="103" on="1"/>
        <pt x="38" y="124" on="0"/>
        <pt x="74" y="172" on="0"/>
        <pt x="112" y="233" on="0"/>
        <pt x="138" y="278" on="0"/>
        <pt x="160" y="317" on="1"/>
        <pt x="789" y="1446" on="1"/>
        <pt x="803" y="1471" on="0"/>
        <pt x="864" y="1512" on="0"/>
        <pt x="880" y="1512" on="1"/>
        <pt x="885" y="1512" on="0"/>
        <pt x="891" y="1505" on="1"/>
        <pt x="1088" y="287" on="1"/>
        <pt x="1093" y="255" on="0"/>
        <pt x="1106" y="174" on="0"/>
        <pt x="1112" y="136" on="0"/>
        <pt x="1113" y="132" on="1"/>
        <pt x="1116" y="117" on="0"/>
        <pt x="1138" y="91" on="0"/>
        <pt x="1168" y="76" on="0"/>
        <pt x="1199" y="66" on="0"/>
        <pt x="1231" y="61" on="0"/>
        <pt x="1250" y="59" on="0"/>
        <pt x="1256" y="59" on="1"/>
        <pt x="1261" y="46" on="0"/>
        <pt x="1254" y="0" on="0"/>
        <pt x="1249" y="-7" on="1"/>
        <pt x="1229" y="-6" on="0"/>
        <pt x="1121" y="1" on="0"/>
        <pt x="1043" y="5" on="0"/>
        <pt x="1001" y="5" on="1"/>
        <pt x="967" y="5" on="0"/>
        <pt x="904" y="2" on="0"/>
        <pt x="861" y="-1" on="0"/>
        <pt x="794" y="-5" on="0"/>
        <pt x="764" y="-7" on="1"/>
        <pt x="757" y="2" on="0"/>
        <pt x="767" y="51" on="0"/>
        <pt x="777" y="59" on="1"/>
        <pt x="817" y="59" on="0"/>
        <pt x="876" y="75" on="0"/>
        <pt x="907" y="107" on="0"/>
        <pt x="907" y="130" on="1"/>
        <pt x="907" y="198" on="0"/>
        <pt x="901" y="242" on="1"/>
        <pt x="850" y="584" on="1"/>
        <pt x="397" y="584" on="1"/>
        <pt x="288" y="386" on="0"/>
        <pt x="235" y="285" on="1"/>
        <pt x="169" y="156" on="0"/>
        <pt x="169" y="114" on="1"/>
        <pt x="169" y="97" on="0"/>
        <pt x="207" y="74" on="0"/>
        <pt x="261" y="63" on="0"/>
        <pt x="300" y="59" on="0"/>
        <pt x="310" y="59" on="1"/>
        <pt x="313" y="54" on="0"/>
        <pt x="306" y="4" on="0"/>
        <pt x="301" y="-7" on="1"/>
        <pt x="270" y="-5" on="0"/>
        <pt x="200" y="1" on="0"/>
        <pt x="139" y="5" on="0"/>
        <pt x="98" y="5" on="1"/>
        <pt x="55" y="5" on="0"/>
        <pt x="-10" y="1" on="0"/>
        <pt x="-89" y="-5" on="0"/>
      </contour>
      <contour>
        <pt x="438" y="659" on="1"/>
        <pt x="837" y="659" on="1"/>
        <pt x="750" y="1220" on="1"/>
      </contour>
      <contour>
        <pt x="568" y="1708" on="1"/>
        <pt x="568" y="1749" on="0"/>
        <pt x="611" y="1792" on="1"/>
        <pt x="689" y="1867" on="0"/>
        <pt x="789" y="1867" on="1"/>
        <pt x="834" y="1867" on="0"/>
        <pt x="894" y="1855" on="0"/>
        <pt x="928" y="1835" on="1"/>
        <pt x="954" y="1821" on="0"/>
        <pt x="977" y="1808" on="0"/>
        <pt x="1023" y="1789" on="0"/>
        <pt x="1067" y="1781" on="0"/>
        <pt x="1092" y="1781" on="1"/>
        <pt x="1166" y="1781" on="0"/>
        <pt x="1240" y="1867" on="1"/>
        <pt x="1254" y="1863" on="0"/>
        <pt x="1254" y="1845" on="1"/>
        <pt x="1254" y="1801" on="0"/>
        <pt x="1213" y="1760" on="1"/>
        <pt x="1135" y="1685" on="0"/>
        <pt x="1035" y="1685" on="1"/>
        <pt x="1005" y="1685" on="0"/>
        <pt x="964" y="1689" on="0"/>
        <pt x="919" y="1704" on="0"/>
        <pt x="896" y="1717" on="1"/>
        <pt x="863" y="1736" on="0"/>
        <pt x="829" y="1753" on="0"/>
        <pt x="765" y="1772" on="0"/>
        <pt x="732" y="1772" on="1"/>
        <pt x="658" y="1772" on="0"/>
        <pt x="584" y="1685" on="1"/>
        <pt x="568" y="1690" on="0"/>
      </contour>
    </TTGlyph>
    <TTGlyph name="B" xMin="-15" yMin="-7" xMax="1188" yMax="1509">
      <contour>
        <pt x="-12" y="26" on="1"/>
        <pt x="-6" y="50" on="0"/>
        <pt x="2" y="59" on="1"/>
        <pt x="34" y="59" on="0"/>
        <pt x="148" y="79" on="0"/>
        <pt x="155" y="96" on="1"/>
        <pt x="158" y="102" on="0"/>
        <pt x="165" y="120" on="0"/>
        <pt x="170" y="135" on="0"/>
        <pt x="176" y="160" on="0"/>
        <pt x="180" y="175" on="0"/>
        <pt x="187" y="207" on="0"/>
        <pt x="190" y="221" on="0"/>
        <pt x="197" y="259" on="0"/>
        <pt x="198" y="264" on="1"/>
        <pt x="388" y="1238" on="1"/>
        <pt x="410" y="1352" on="0"/>
        <pt x="410" y="1397" on="1"/>
        <pt x="410" y="1402" on="0"/>
        <pt x="410" y="1407" on="1"/>
        <pt x="410" y="1424" on="0"/>
        <pt x="306" y="1443" on="0"/>
        <pt x="271" y="1443" on="1"/>
        <pt x="266" y="1451" on="0"/>
        <pt x="273" y="1501" on="0"/>
        <pt x="283" y="1509" on="1"/>
        <pt x="305" y="1508" on="0"/>
        <pt x="418" y="1501" on="0"/>
        <pt x="494" y="1498" on="0"/>
        <pt x="531" y="1498" on="1"/>
        <pt x="567" y="1498" on="0"/>
        <pt x="764" y="1503" on="0"/>
        <pt x="832" y="1503" on="1"/>
        <pt x="907" y="1503" on="0"/>
        <pt x="1033" y="1470" on="0"/>
        <pt x="1132" y="1405" on="0"/>
        <pt x="1188" y="1296" on="0"/>
        <pt x="1188" y="1224" on="1"/>
        <pt x="1188" y="978" on="0"/>
        <pt x="914" y="834" on="1"/>
        <pt x="945" y="832" on="0"/>
        <pt x="1011" y="800" on="0"/>
        <pt x="1072" y="743" on="0"/>
        <pt x="1120" y="669" on="0"/>
        <pt x="1149" y="569" on="0"/>
        <pt x="1149" y="515" on="1"/>
        <pt x="1149" y="401" on="0"/>
        <pt x="1047" y="205" on="0"/>
        <pt x="868" y="70" on="0"/>
        <pt x="620" y="-7" on="0"/>
        <pt x="477" y="-7" on="1"/>
        <pt x="-11" y="-7" on="1"/>
        <pt x="-15" y="-2" on="0"/>
        <pt x="-15" y="8" on="1"/>
        <pt x="-14" y="15" on="0"/>
      </contour>
      <contour>
        <pt x="364" y="140" on="1"/>
        <pt x="363" y="128" on="0"/>
        <pt x="363" y="120" on="1"/>
        <pt x="363" y="103" on="0"/>
        <pt x="367" y="98" on="1"/>
        <pt x="384" y="73" on="0"/>
        <pt x="457" y="59" on="0"/>
        <pt x="527" y="59" on="1"/>
        <pt x="615" y="59" on="0"/>
        <pt x="764" y="119" on="0"/>
        <pt x="872" y="229" on="0"/>
        <pt x="933" y="398" on="0"/>
        <pt x="933" y="502" on="1"/>
        <pt x="933" y="503" on="0"/>
        <pt x="933" y="504" on="1"/>
        <pt x="933" y="522" on="0"/>
        <pt x="932" y="544" on="0"/>
        <pt x="926" y="590" on="0"/>
        <pt x="916" y="622" on="0"/>
        <pt x="893" y="668" on="0"/>
        <pt x="862" y="701" on="0"/>
        <pt x="813" y="737" on="0"/>
        <pt x="750" y="759" on="0"/>
        <pt x="663" y="773" on="0"/>
        <pt x="611" y="773" on="1"/>
        <pt x="481" y="773" on="1"/>
        <pt x="381" y="260" on="1"/>
        <pt x="376" y="240" on="0"/>
        <pt x="367" y="175" on="0"/>
      </contour>
      <contour>
        <pt x="497" y="844" on="1"/>
        <pt x="711" y="844" on="1"/>
        <pt x="787" y="844" on="0"/>
        <pt x="914" y="935" on="0"/>
        <pt x="987" y="1095" on="0"/>
        <pt x="987" y="1190" on="1"/>
        <pt x="987" y="1241" on="0"/>
        <pt x="960" y="1325" on="0"/>
        <pt x="902" y="1396" on="0"/>
        <pt x="798" y="1436" on="0"/>
        <pt x="727" y="1436" on="1"/>
        <pt x="628" y="1436" on="0"/>
        <pt x="616" y="1414" on="1"/>
        <pt x="613" y="1409" on="0"/>
        <pt x="608" y="1397" on="0"/>
        <pt x="603" y="1380" on="0"/>
        <pt x="598" y="1365" on="0"/>
        <pt x="593" y="1342" on="0"/>
        <pt x="589" y="1325" on="0"/>
        <pt x="583" y="1297" on="0"/>
        <pt x="580" y="1281" on="0"/>
        <pt x="574" y="1250" on="0"/>
        <pt x="572" y="1243" on="1"/>
      </contour>
    </TTGlyph>
    <TTGlyph name="C" xMin="135" yMin="-18" xMax="1427" yMax="1519">
      <contour>
        <pt x="135" y="604" on="1"/>
        <pt x="135" y="745" on="0"/>
        <pt x="206" y="999" on="0"/>
        <pt x="333" y="1199" on="0"/>
        <pt x="508" y="1361" on="0"/>
        <pt x="610" y="1414" on="1"/>
        <pt x="714" y="1466" on="0"/>
        <pt x="828" y="1494" on="1"/>
        <pt x="931" y="1519" on="0"/>
        <pt x="1037" y="1518" on="1"/>
        <pt x="1049" y="1518" on="0"/>
        <pt x="1060" y="1518" on="1"/>
        <pt x="1122" y="1517" on="0"/>
        <pt x="1264" y="1497" on="0"/>
        <pt x="1353" y="1477" on="0"/>
        <pt x="1427" y="1459" on="1"/>
        <pt x="1413" y="1210" on="0"/>
        <pt x="1404" y="1126" on="1"/>
        <pt x="1404" y="1121" on="0"/>
        <pt x="1393" y="1115" on="0"/>
        <pt x="1386" y="1115" on="1"/>
        <pt x="1357" y="1115" on="0"/>
        <pt x="1334" y="1126" on="1"/>
        <pt x="1334" y="1135" on="0"/>
        <pt x="1334" y="1144" on="1"/>
        <pt x="1334" y="1224" on="0"/>
        <pt x="1294" y="1290" on="1"/>
        <pt x="1249" y="1364" on="0"/>
        <pt x="1089" y="1448" on="0"/>
        <pt x="994" y="1448" on="1"/>
        <pt x="861" y="1448" on="0"/>
        <pt x="626" y="1334" on="0"/>
        <pt x="538" y="1232" on="1"/>
        <pt x="450" y="1128" on="0"/>
        <pt x="400" y="976" on="1"/>
        <pt x="350" y="826" on="0"/>
        <pt x="351" y="650" on="1"/>
        <pt x="351" y="646" on="0"/>
        <pt x="351" y="643" on="1"/>
        <pt x="351" y="558" on="0"/>
        <pt x="381" y="395" on="0"/>
        <pt x="452" y="238" on="0"/>
        <pt x="557" y="120" on="0"/>
        <pt x="717" y="48" on="0"/>
        <pt x="816" y="48" on="1"/>
        <pt x="1116" y="48" on="0"/>
        <pt x="1297" y="394" on="1"/>
        <pt x="1310" y="394" on="0"/>
        <pt x="1342" y="385" on="0"/>
        <pt x="1352" y="381" on="1"/>
        <pt x="1361" y="376" on="1"/>
        <pt x="1354" y="340" on="0"/>
        <pt x="1221" y="83" on="0"/>
        <pt x="1197" y="64" on="1"/>
        <pt x="1107" y="17" on="0"/>
        <pt x="905" y="-18" on="0"/>
        <pt x="752" y="-18" on="1"/>
        <pt x="617" y="-18" on="0"/>
        <pt x="384" y="82" on="0"/>
        <pt x="225" y="251" on="0"/>
        <pt x="135" y="478" on="0"/>
      </contour>
    </TTGlyph>
    <TTGlyph name="Ccedilla" xMin="135" yMin="-397" xMax="1427" yMax="1521">
      <contour>
        <pt x="135" y="604" on="1"/>
        <pt x="135" y="745" on="0"/>
        <pt x="206" y="999" on="0"/>
        <pt x="333" y="1199" on="0"/>
        <pt x="508" y="1361" on="0"/>
        <pt x="713" y="1466" on="0"/>
        <pt x="942" y="1521" on="0"/>
        <pt x="1060" y="1518" on="1"/>
        <pt x="1122" y="1517" on="0"/>
        <pt x="1264" y="1497" on="0"/>
        <pt x="1353" y="1477" on="0"/>
        <pt x="1427" y="1459" on="1"/>
        <pt x="1413" y="1210" on="0"/>
        <pt x="1404" y="1126" on="1"/>
        <pt x="1404" y="1121" on="0"/>
        <pt x="1393" y="1115" on="0"/>
        <pt x="1386" y="1115" on="1"/>
        <pt x="1357" y="1115" on="0"/>
        <pt x="1334" y="1126" on="1"/>
        <pt x="1339" y="1215" on="0"/>
        <pt x="1249" y="1364" on="0"/>
        <pt x="1089" y="1448" on="0"/>
        <pt x="994" y="1448" on="1"/>
        <pt x="861" y="1448" on="0"/>
        <pt x="626" y="1334" on="0"/>
        <pt x="451" y="1129" on="0"/>
        <pt x="350" y="824" on="0"/>
        <pt x="351" y="643" on="1"/>
        <pt x="351" y="558" on="0"/>
        <pt x="381" y="395" on="0"/>
        <pt x="452" y="238" on="0"/>
        <pt x="557" y="120" on="0"/>
        <pt x="717" y="48" on="0"/>
        <pt x="816" y="48" on="1"/>
        <pt x="1116" y="48" on="0"/>
        <pt x="1297" y="394" on="1"/>
        <pt x="1310" y="394" on="0"/>
        <pt x="1342" y="385" on="0"/>
        <pt x="1352" y="381" on="1"/>
        <pt x="1361" y="376" on="1"/>
        <pt x="1354" y="340" on="0"/>
        <pt x="1221" y="83" on="0"/>
        <pt x="1197" y="64" on="1"/>
        <pt x="1107" y="17" on="0"/>
        <pt x="905" y="-18" on="0"/>
        <pt x="752" y="-18" on="1"/>
        <pt x="617" y="-18" on="0"/>
        <pt x="384" y="82" on="0"/>
        <pt x="225" y="251" on="0"/>
        <pt x="135" y="478" on="0"/>
      </contour>
      <contour>
        <pt x="518" y="-373" on="0"/>
        <pt x="516" y="-337" on="0"/>
        <pt x="518" y="-335" on="1"/>
        <pt x="521" y="-321" on="0"/>
        <pt x="547" y="-299" on="0"/>
        <pt x="559" y="-299" on="1"/>
        <pt x="572" y="-299" on="0"/>
        <pt x="623" y="-333" on="0"/>
        <pt x="645" y="-333" on="1"/>
        <pt x="696" y="-333" on="0"/>
        <pt x="763" y="-281" on="0"/>
        <pt x="771" y="-244" on="1"/>
        <pt x="778" y="-200" on="0"/>
        <pt x="739" y="-153" on="0"/>
        <pt x="711" y="-153" on="1"/>
        <pt x="684" y="-153" on="0"/>
        <pt x="641" y="-171" on="1"/>
        <pt x="638" y="-171" on="0"/>
        <pt x="627" y="-159" on="0"/>
        <pt x="619" y="-142" on="0"/>
        <pt x="622" y="-137" on="1"/>
        <pt x="626" y="-132" on="0"/>
        <pt x="713" y="-23" on="0"/>
        <pt x="730" y="0" on="1"/>
        <pt x="782" y="0" on="1"/>
        <pt x="725" y="-62" on="1"/>
        <pt x="789" y="-62" on="1"/>
        <pt x="837" y="-62" on="0"/>
        <pt x="884" y="-139" on="0"/>
        <pt x="873" y="-194" on="1"/>
        <pt x="855" y="-286" on="0"/>
        <pt x="698" y="-397" on="0"/>
        <pt x="597" y="-397" on="1"/>
        <pt x="576" y="-397" on="0"/>
        <pt x="528" y="-383" on="0"/>
        <pt x="518" y="-374" on="1"/>
      </contour>
    </TTGlyph>
    <TTGlyph name="D" xMin="-15" yMin="-7" xMax="1488" yMax="1509">
      <contour>
        <pt x="-12" y="26" on="1"/>
        <pt x="-6" y="50" on="0"/>
        <pt x="2" y="59" on="1"/>
        <pt x="34" y="59" on="0"/>
        <pt x="148" y="79" on="0"/>
        <pt x="155" y="96" on="1"/>
        <pt x="158" y="102" on="0"/>
        <pt x="165" y="120" on="0"/>
        <pt x="170" y="135" on="0"/>
        <pt x="176" y="160" on="0"/>
        <pt x="180" y="175" on="0"/>
        <pt x="187" y="207" on="0"/>
        <pt x="190" y="221" on="0"/>
        <pt x="197" y="259" on="0"/>
        <pt x="198" y="264" on="1"/>
        <pt x="388" y="1238" on="1"/>
        <pt x="389" y="1243" on="0"/>
        <pt x="390" y="1252" on="1"/>
        <pt x="411" y="1353" on="0"/>
        <pt x="411" y="1393" on="1"/>
        <pt x="411" y="1401" on="0"/>
        <pt x="410" y="1407" on="1"/>
        <pt x="409" y="1423" on="0"/>
        <pt x="303" y="1443" on="0"/>
        <pt x="271" y="1443" on="1"/>
        <pt x="266" y="1451" on="0"/>
        <pt x="273" y="1501" on="0"/>
        <pt x="283" y="1509" on="1"/>
        <pt x="305" y="1508" on="0"/>
        <pt x="418" y="1501" on="0"/>
        <pt x="494" y="1498" on="0"/>
        <pt x="531" y="1498" on="1"/>
        <pt x="571" y="1498" on="0"/>
        <pt x="791" y="1500" on="0"/>
        <pt x="839" y="1500" on="1"/>
        <pt x="960" y="1500" on="0"/>
        <pt x="1164" y="1449" on="0"/>
        <pt x="1314" y="1356" on="0"/>
        <pt x="1425" y="1223" on="0"/>
        <pt x="1480" y="1058" on="0"/>
        <pt x="1486" y="962" on="1"/>
        <pt x="1487" y="940" on="0"/>
        <pt x="1488" y="918" on="1"/>
        <pt x="1488" y="843" on="0"/>
        <pt x="1471" y="762" on="1"/>
        <pt x="1456" y="687" on="0"/>
        <pt x="1411" y="548" on="0"/>
        <pt x="1344" y="409" on="0"/>
        <pt x="1255" y="288" on="0"/>
        <pt x="1143" y="178" on="0"/>
        <pt x="1001" y="92" on="0"/>
        <pt x="836" y="28" on="0"/>
        <pt x="633" y="-6" on="0"/>
        <pt x="520" y="-7" on="1"/>
        <pt x="-11" y="-7" on="1"/>
        <pt x="-15" y="-2" on="0"/>
        <pt x="-15" y="8" on="1"/>
        <pt x="-14" y="15" on="0"/>
      </contour>
      <contour>
        <pt x="363" y="91" on="1"/>
        <pt x="377" y="59" on="0"/>
        <pt x="529" y="59" on="1"/>
        <pt x="628" y="59" on="0"/>
        <pt x="814" y="109" on="0"/>
        <pt x="985" y="215" on="0"/>
        <pt x="1123" y="367" on="0"/>
        <pt x="1226" y="583" on="0"/>
        <pt x="1252" y="714" on="1"/>
        <pt x="1276" y="832" on="0"/>
        <pt x="1276" y="929" on="1"/>
        <pt x="1276" y="959" on="0"/>
        <pt x="1274" y="987" on="1"/>
        <pt x="1264" y="1106" on="0"/>
        <pt x="1188" y="1277" on="0"/>
        <pt x="1051" y="1387" on="0"/>
        <pt x="877" y="1439" on="0"/>
        <pt x="771" y="1439" on="1"/>
        <pt x="748" y="1439" on="0"/>
        <pt x="694" y="1436" on="0"/>
        <pt x="623" y="1424" on="0"/>
        <pt x="613" y="1403" on="0"/>
        <pt x="603" y="1377" on="0"/>
        <pt x="593" y="1335" on="0"/>
        <pt x="588" y="1314" on="0"/>
        <pt x="576" y="1252" on="0"/>
        <pt x="575" y="1245" on="1"/>
        <pt x="381" y="255" on="1"/>
        <pt x="374" y="224" on="0"/>
        <pt x="366" y="162" on="1"/>
        <pt x="361" y="124" on="0"/>
        <pt x="361" y="106" on="1"/>
        <pt x="361" y="94" on="0"/>
      </contour>
    </TTGlyph>
    <TTGlyph name="E" xMin="-16" yMin="-9" xMax="1218" yMax="1514">
      <contour>
        <pt x="-14" y="26" on="1"/>
        <pt x="-10" y="50" on="0"/>
        <pt x="0" y="59" on="1"/>
        <pt x="7" y="59" on="0"/>
        <pt x="32" y="61" on="0"/>
        <pt x="65" y="65" on="0"/>
        <pt x="100" y="71" on="0"/>
        <pt x="130" y="79" on="0"/>
        <pt x="152" y="90" on="0"/>
        <pt x="155" y="96" on="1"/>
        <pt x="158" y="102" on="0"/>
        <pt x="165" y="120" on="0"/>
        <pt x="170" y="135" on="0"/>
        <pt x="176" y="160" on="0"/>
        <pt x="180" y="175" on="0"/>
        <pt x="187" y="207" on="0"/>
        <pt x="190" y="221" on="0"/>
        <pt x="197" y="259" on="0"/>
        <pt x="198" y="264" on="1"/>
        <pt x="388" y="1238" on="1"/>
        <pt x="409" y="1345" on="0"/>
        <pt x="409" y="1391" on="1"/>
        <pt x="409" y="1400" on="0"/>
        <pt x="408" y="1407" on="1"/>
        <pt x="407" y="1423" on="0"/>
        <pt x="301" y="1443" on="0"/>
        <pt x="269" y="1443" on="1"/>
        <pt x="264" y="1451" on="0"/>
        <pt x="273" y="1501" on="0"/>
        <pt x="283" y="1509" on="1"/>
        <pt x="305" y="1508" on="0"/>
        <pt x="418" y="1501" on="0"/>
        <pt x="494" y="1498" on="0"/>
        <pt x="531" y="1498" on="1"/>
        <pt x="626" y="1498" on="0"/>
        <pt x="1096" y="1514" on="0"/>
        <pt x="1215" y="1514" on="1"/>
        <pt x="1212" y="1498" on="0"/>
        <pt x="1212" y="1451" on="1"/>
        <pt x="1212" y="1412" on="0"/>
        <pt x="1214" y="1354" on="1"/>
        <pt x="1218" y="1222" on="0"/>
        <pt x="1218" y="1204" on="1"/>
        <pt x="1206" y="1192" on="0"/>
        <pt x="1176" y="1192" on="1"/>
        <pt x="1151" y="1192" on="0"/>
        <pt x="1151" y="1208" on="1"/>
        <pt x="1147" y="1275" on="0"/>
        <pt x="1116" y="1366" on="0"/>
        <pt x="1061" y="1416" on="0"/>
        <pt x="995" y="1436" on="0"/>
        <pt x="951" y="1436" on="1"/>
        <pt x="768" y="1436" on="1"/>
        <pt x="746" y="1436" on="0"/>
        <pt x="692" y="1434" on="0"/>
        <pt x="623" y="1422" on="0"/>
        <pt x="618" y="1411" on="1"/>
        <pt x="594" y="1363" on="0"/>
        <pt x="572" y="1247" on="1"/>
        <pt x="488" y="809" on="1"/>
        <pt x="486" y="802" on="0"/>
        <pt x="536" y="796" on="0"/>
        <pt x="577" y="796" on="1"/>
        <pt x="689" y="796" on="1"/>
        <pt x="728" y="796" on="0"/>
        <pt x="777" y="796" on="0"/>
        <pt x="826" y="804" on="0"/>
        <pt x="852" y="808" on="0"/>
        <pt x="882" y="829" on="0"/>
        <pt x="896" y="842" on="0"/>
        <pt x="918" y="881" on="0"/>
        <pt x="930" y="908" on="0"/>
        <pt x="944" y="939" on="1"/>
        <pt x="950" y="952" on="0"/>
        <pt x="953" y="960" on="1"/>
        <pt x="959" y="976" on="0"/>
        <pt x="990" y="976" on="1"/>
        <pt x="1014" y="976" on="0"/>
        <pt x="1021" y="964" on="1"/>
        <pt x="939" y="534" on="1"/>
        <pt x="930" y="524" on="0"/>
        <pt x="903" y="524" on="1"/>
        <pt x="877" y="524" on="0"/>
        <pt x="873" y="543" on="1"/>
        <pt x="868" y="634" on="0"/>
        <pt x="857" y="691" on="0"/>
        <pt x="844" y="702" on="1"/>
        <pt x="820" y="720" on="0"/>
        <pt x="622" y="720" on="1"/>
        <pt x="470" y="720" on="0"/>
        <pt x="465" y="700" on="1"/>
        <pt x="376" y="249" on="1"/>
        <pt x="356" y="149" on="0"/>
        <pt x="356" y="112" on="1"/>
        <pt x="356" y="95" on="0"/>
        <pt x="360" y="91" on="1"/>
        <pt x="371" y="80" on="0"/>
        <pt x="410" y="70" on="0"/>
        <pt x="453" y="68" on="0"/>
        <pt x="506" y="68" on="1"/>
        <pt x="606" y="68" on="1"/>
        <pt x="781" y="68" on="0"/>
        <pt x="889" y="139" on="1"/>
        <pt x="990" y="206" on="0"/>
        <pt x="1067" y="369" on="1"/>
        <pt x="1074" y="383" on="0"/>
        <pt x="1101" y="383" on="1"/>
        <pt x="1117" y="383" on="0"/>
        <pt x="1148" y="374" on="0"/>
        <pt x="1151" y="369" on="1"/>
        <pt x="1137" y="341" on="0"/>
        <pt x="1037" y="157" on="0"/>
        <pt x="978" y="36" on="0"/>
        <pt x="962" y="-9" on="1"/>
        <pt x="854" y="-9" on="0"/>
        <pt x="390" y="0" on="0"/>
        <pt x="242" y="0" on="1"/>
        <pt x="189" y="0" on="0"/>
        <pt x="27" y="-7" on="0"/>
        <pt x="-11" y="-7" on="1"/>
        <pt x="-15" y="-2" on="0"/>
        <pt x="-15" y="10" on="1"/>
        <pt x="-16" y="17" on="0"/>
      </contour>
    </TTGlyph>
    <TTGlyph name="Eacute" xMin="-18" yMin="-9" xMax="1218" yMax="1867">
      <contour>
        <pt x="-18" y="2" on="0"/>
        <pt x="-9" y="50" on="0"/>
        <pt x="0" y="59" on="1"/>
        <pt x="7" y="59" on="0"/>
        <pt x="32" y="61" on="0"/>
        <pt x="65" y="65" on="0"/>
        <pt x="100" y="71" on="0"/>
        <pt x="130" y="79" on="0"/>
        <pt x="152" y="90" on="0"/>
        <pt x="155" y="96" on="1"/>
        <pt x="158" y="102" on="0"/>
        <pt x="165" y="120" on="0"/>
        <pt x="170" y="135" on="0"/>
        <pt x="176" y="160" on="0"/>
        <pt x="180" y="175" on="0"/>
        <pt x="187" y="207" on="0"/>
        <pt x="190" y="221" on="0"/>
        <pt x="197" y="259" on="0"/>
        <pt x="198" y="264" on="1"/>
        <pt x="388" y="1238" on="1"/>
        <pt x="413" y="1366" on="0"/>
        <pt x="408" y="1407" on="1"/>
        <pt x="407" y="1423" on="0"/>
        <pt x="301" y="1443" on="0"/>
        <pt x="269" y="1443" on="1"/>
        <pt x="264" y="1451" on="0"/>
        <pt x="273" y="1501" on="0"/>
        <pt x="283" y="1509" on="1"/>
        <pt x="305" y="1508" on="0"/>
        <pt x="418" y="1501" on="0"/>
        <pt x="494" y="1498" on="0"/>
        <pt x="531" y="1498" on="1"/>
        <pt x="626" y="1498" on="0"/>
        <pt x="1096" y="1514" on="0"/>
        <pt x="1215" y="1514" on="1"/>
        <pt x="1210" y="1486" on="0"/>
        <pt x="1218" y="1223" on="0"/>
        <pt x="1218" y="1204" on="1"/>
        <pt x="1206" y="1192" on="0"/>
        <pt x="1176" y="1192" on="1"/>
        <pt x="1151" y="1192" on="0"/>
        <pt x="1151" y="1208" on="1"/>
        <pt x="1147" y="1275" on="0"/>
        <pt x="1116" y="1366" on="0"/>
        <pt x="1061" y="1416" on="0"/>
        <pt x="995" y="1436" on="0"/>
        <pt x="951" y="1436" on="1"/>
        <pt x="768" y="1436" on="1"/>
        <pt x="746" y="1436" on="0"/>
        <pt x="692" y="1434" on="0"/>
        <pt x="623" y="1422" on="0"/>
        <pt x="618" y="1411" on="1"/>
        <pt x="594" y="1363" on="0"/>
        <pt x="572" y="1247" on="1"/>
        <pt x="488" y="809" on="1"/>
        <pt x="486" y="802" on="0"/>
        <pt x="536" y="796" on="0"/>
        <pt x="577" y="796" on="1"/>
        <pt x="689" y="796" on="1"/>
        <pt x="728" y="796" on="0"/>
        <pt x="777" y="796" on="0"/>
        <pt x="826" y="804" on="0"/>
        <pt x="852" y="808" on="0"/>
        <pt x="882" y="829" on="0"/>
        <pt x="896" y="842" on="0"/>
        <pt x="918" y="881" on="0"/>
        <pt x="930" y="908" on="0"/>
        <pt x="944" y="939" on="1"/>
        <pt x="950" y="952" on="0"/>
        <pt x="953" y="960" on="1"/>
        <pt x="959" y="976" on="0"/>
        <pt x="990" y="976" on="1"/>
        <pt x="1014" y="976" on="0"/>
        <pt x="1021" y="964" on="1"/>
        <pt x="939" y="534" on="1"/>
        <pt x="930" y="524" on="0"/>
        <pt x="903" y="524" on="1"/>
        <pt x="877" y="524" on="0"/>
        <pt x="873" y="543" on="1"/>
        <pt x="868" y="634" on="0"/>
        <pt x="857" y="691" on="0"/>
        <pt x="844" y="702" on="1"/>
        <pt x="820" y="720" on="0"/>
        <pt x="622" y="720" on="1"/>
        <pt x="470" y="720" on="0"/>
        <pt x="465" y="700" on="1"/>
        <pt x="376" y="249" on="1"/>
        <pt x="347" y="104" on="0"/>
        <pt x="360" y="91" on="1"/>
        <pt x="371" y="80" on="0"/>
        <pt x="410" y="70" on="0"/>
        <pt x="453" y="68" on="0"/>
        <pt x="506" y="68" on="1"/>
        <pt x="606" y="68" on="1"/>
        <pt x="781" y="68" on="0"/>
        <pt x="889" y="139" on="1"/>
        <pt x="990" y="206" on="0"/>
        <pt x="1067" y="369" on="1"/>
        <pt x="1074" y="383" on="0"/>
        <pt x="1101" y="383" on="1"/>
        <pt x="1117" y="383" on="0"/>
        <pt x="1148" y="374" on="0"/>
        <pt x="1151" y="369" on="1"/>
        <pt x="1137" y="341" on="0"/>
        <pt x="1037" y="157" on="0"/>
        <pt x="978" y="36" on="0"/>
        <pt x="962" y="-9" on="1"/>
        <pt x="854" y="-9" on="0"/>
        <pt x="390" y="0" on="0"/>
        <pt x="242" y="0" on="1"/>
        <pt x="189" y="0" on="0"/>
        <pt x="27" y="-7" on="0"/>
        <pt x="-11" y="-7" on="1"/>
      </contour>
      <contour>
        <pt x="659" y="1644" on="1"/>
        <pt x="659" y="1651" on="0"/>
        <pt x="756" y="1741" on="0"/>
        <pt x="873" y="1838" on="0"/>
        <pt x="901" y="1856" on="1"/>
        <pt x="903" y="1858" on="0"/>
        <pt x="919" y="1862" on="0"/>
        <pt x="937" y="1865" on="0"/>
        <pt x="956" y="1867" on="0"/>
        <pt x="962" y="1867" on="1"/>
        <pt x="1010" y="1867" on="0"/>
        <pt x="1072" y="1837" on="0"/>
        <pt x="1072" y="1817" on="1"/>
        <pt x="1072" y="1791" on="0"/>
        <pt x="885" y="1694" on="0"/>
        <pt x="692" y="1621" on="0"/>
        <pt x="673" y="1621" on="1"/>
        <pt x="672" y="1621" on="0"/>
        <pt x="667" y="1626" on="0"/>
        <pt x="663" y="1633" on="0"/>
        <pt x="659" y="1641" on="0"/>
      </contour>
    </TTGlyph>
    <TTGlyph name="Ecircumflex" xMin="-18" yMin="-9" xMax="1218" yMax="1906">
      <contour>
        <pt x="-18" y="2" on="0"/>
        <pt x="-9" y="50" on="0"/>
        <pt x="0" y="59" on="1"/>
        <pt x="7" y="59" on="0"/>
        <pt x="32" y="61" on="0"/>
        <pt x="65" y="65" on="0"/>
        <pt x="100" y="71" on="0"/>
        <pt x="130" y="79" on="0"/>
        <pt x="152" y="90" on="0"/>
        <pt x="155" y="96" on="1"/>
        <pt x="158" y="102" on="0"/>
        <pt x="165" y="120" on="0"/>
        <pt x="170" y="135" on="0"/>
        <pt x="176" y="160" on="0"/>
        <pt x="180" y="175" on="0"/>
        <pt x="187" y="207" on="0"/>
        <pt x="190" y="221" on="0"/>
        <pt x="197" y="259" on="0"/>
        <pt x="198" y="264" on="1"/>
        <pt x="388" y="1238" on="1"/>
        <pt x="413" y="1366" on="0"/>
        <pt x="408" y="1407" on="1"/>
        <pt x="407" y="1423" on="0"/>
        <pt x="301" y="1443" on="0"/>
        <pt x="269" y="1443" on="1"/>
        <pt x="264" y="1451" on="0"/>
        <pt x="273" y="1501" on="0"/>
        <pt x="283" y="1509" on="1"/>
        <pt x="305" y="1508" on="0"/>
        <pt x="418" y="1501" on="0"/>
        <pt x="494" y="1498" on="0"/>
        <pt x="531" y="1498" on="1"/>
        <pt x="626" y="1498" on="0"/>
        <pt x="1096" y="1514" on="0"/>
        <pt x="1215" y="1514" on="1"/>
        <pt x="1210" y="1486" on="0"/>
        <pt x="1218" y="1223" on="0"/>
        <pt x="1218" y="1204" on="1"/>
        <pt x="1206" y="1192" on="0"/>
        <pt x="1176" y="1192" on="1"/>
        <pt x="1151" y="1192" on="0"/>
        <pt x="1151" y="1208" on="1"/>
        <pt x="1147" y="1275" on="0"/>
        <pt x="1116" y="1366" on="0"/>
        <pt x="1061" y="1416" on="0"/>
        <pt x="995" y="1436" on="0"/>
        <pt x="951" y="1436" on="1"/>
        <pt x="768" y="1436" on="1"/>
        <pt x="746" y="1436" on="0"/>
        <pt x="692" y="1434" on="0"/>
        <pt x="623" y="1422" on="0"/>
        <pt x="618" y="1411" on="1"/>
        <pt x="594" y="1363" on="0"/>
        <pt x="572" y="1247" on="1"/>
        <pt x="488" y="809" on="1"/>
        <pt x="486" y="802" on="0"/>
        <pt x="536" y="796" on="0"/>
        <pt x="577" y="796" on="1"/>
        <pt x="689" y="796" on="1"/>
        <pt x="728" y="796" on="0"/>
        <pt x="777" y="796" on="0"/>
        <pt x="826" y="804" on="0"/>
        <pt x="852" y="808" on="0"/>
        <pt x="882" y="829" on="0"/>
        <pt x="896" y="842" on="0"/>
        <pt x="918" y="881" on="0"/>
        <pt x="930" y="908" on="0"/>
        <pt x="944" y="939" on="1"/>
        <pt x="950" y="952" on="0"/>
        <pt x="953" y="960" on="1"/>
        <pt x="959" y="976" on="0"/>
        <pt x="990" y="976" on="1"/>
        <pt x="1014" y="976" on="0"/>
        <pt x="1021" y="964" on="1"/>
        <pt x="939" y="534" on="1"/>
        <pt x="930" y="524" on="0"/>
        <pt x="903" y="524" on="1"/>
        <pt x="877" y="524" on="0"/>
        <pt x="873" y="543" on="1"/>
        <pt x="868" y="634" on="0"/>
        <pt x="857" y="691" on="0"/>
        <pt x="844" y="702" on="1"/>
        <pt x="820" y="720" on="0"/>
        <pt x="622" y="720" on="1"/>
        <pt x="470" y="720" on="0"/>
        <pt x="465" y="700" on="1"/>
        <pt x="376" y="249" on="1"/>
        <pt x="347" y="104" on="0"/>
        <pt x="360" y="91" on="1"/>
        <pt x="371" y="80" on="0"/>
        <pt x="410" y="70" on="0"/>
        <pt x="453" y="68" on="0"/>
        <pt x="506" y="68" on="1"/>
        <pt x="606" y="68" on="1"/>
        <pt x="781" y="68" on="0"/>
        <pt x="889" y="139" on="1"/>
        <pt x="990" y="206" on="0"/>
        <pt x="1067" y="369" on="1"/>
        <pt x="1074" y="383" on="0"/>
        <pt x="1101" y="383" on="1"/>
        <pt x="1117" y="383" on="0"/>
        <pt x="1148" y="374" on="0"/>
        <pt x="1151" y="369" on="1"/>
        <pt x="1137" y="341" on="0"/>
        <pt x="1037" y="157" on="0"/>
        <pt x="978" y="36" on="0"/>
        <pt x="962" y="-9" on="1"/>
        <pt x="854" y="-9" on="0"/>
        <pt x="390" y="0" on="0"/>
        <pt x="242" y="0" on="1"/>
        <pt x="189" y="0" on="0"/>
        <pt x="27" y="-7" on="0"/>
        <pt x="-11" y="-7" on="1"/>
      </contour>
      <contour>
        <pt x="563" y="1644" on="1"/>
        <pt x="723" y="1764" on="0"/>
        <pt x="864" y="1890" on="1"/>
        <pt x="884" y="1906" on="0"/>
        <pt x="896" y="1906" on="1"/>
        <pt x="911" y="1906" on="0"/>
        <pt x="919" y="1890" on="1"/>
        <pt x="996" y="1765" on="0"/>
        <pt x="1097" y="1644" on="1"/>
        <pt x="1095" y="1634" on="0"/>
        <pt x="1074" y="1621" on="0"/>
        <pt x="1062" y="1621" on="1"/>
        <pt x="860" y="1756" on="1"/>
        <pt x="695" y="1676" on="0"/>
        <pt x="586" y="1621" on="1"/>
        <pt x="581" y="1621" on="0"/>
        <pt x="572" y="1624" on="0"/>
        <pt x="565" y="1630" on="0"/>
        <pt x="562" y="1639" on="0"/>
      </contour>
    </TTGlyph>
    <TTGlyph name="Edieresis" xMin="-18" yMin="-9" xMax="1218" yMax="1888">
      <contour>
        <pt x="-18" y="2" on="0"/>
        <pt x="-9" y="50" on="0"/>
        <pt x="0" y="59" on="1"/>
        <pt x="7" y="59" on="0"/>
        <pt x="32" y="61" on="0"/>
        <pt x="65" y="65" on="0"/>
        <pt x="100" y="71" on="0"/>
        <pt x="130" y="79" on="0"/>
        <pt x="152" y="90" on="0"/>
        <pt x="155" y="96" on="1"/>
        <pt x="158" y="102" on="0"/>
        <pt x="165" y="120" on="0"/>
        <pt x="170" y="135" on="0"/>
        <pt x="176" y="160" on="0"/>
        <pt x="180" y="175" on="0"/>
        <pt x="187" y="207" on="0"/>
        <pt x="190" y="221" on="0"/>
        <pt x="197" y="259" on="0"/>
        <pt x="198" y="264" on="1"/>
        <pt x="388" y="1238" on="1"/>
        <pt x="413" y="1366" on="0"/>
        <pt x="408" y="1407" on="1"/>
        <pt x="407" y="1423" on="0"/>
        <pt x="301" y="1443" on="0"/>
        <pt x="269" y="1443" on="1"/>
        <pt x="264" y="1451" on="0"/>
        <pt x="273" y="1501" on="0"/>
        <pt x="283" y="1509" on="1"/>
        <pt x="305" y="1508" on="0"/>
        <pt x="418" y="1501" on="0"/>
        <pt x="494" y="1498" on="0"/>
        <pt x="531" y="1498" on="1"/>
        <pt x="626" y="1498" on="0"/>
        <pt x="1096" y="1514" on="0"/>
        <pt x="1215" y="1514" on="1"/>
        <pt x="1210" y="1486" on="0"/>
        <pt x="1218" y="1223" on="0"/>
        <pt x="1218" y="1204" on="1"/>
        <pt x="1206" y="1192" on="0"/>
        <pt x="1176" y="1192" on="1"/>
        <pt x="1151" y="1192" on="0"/>
        <pt x="1151" y="1208" on="1"/>
        <pt x="1147" y="1275" on="0"/>
        <pt x="1116" y="1366" on="0"/>
        <pt x="1061" y="1416" on="0"/>
        <pt x="995" y="1436" on="0"/>
        <pt x="951" y="1436" on="1"/>
        <pt x="768" y="1436" on="1"/>
        <pt x="746" y="1436" on="0"/>
        <pt x="692" y="1434" on="0"/>
        <pt x="623" y="1422" on="0"/>
        <pt x="618" y="1411" on="1"/>
        <pt x="594" y="1363" on="0"/>
        <pt x="572" y="1247" on="1"/>
        <pt x="488" y="809" on="1"/>
        <pt x="486" y="802" on="0"/>
        <pt x="536" y="796" on="0"/>
        <pt x="577" y="796" on="1"/>
        <pt x="689" y="796" on="1"/>
        <pt x="728" y="796" on="0"/>
        <pt x="777" y="796" on="0"/>
        <pt x="826" y="804" on="0"/>
        <pt x="852" y="808" on="0"/>
        <pt x="882" y="829" on="0"/>
        <pt x="896" y="842" on="0"/>
        <pt x="918" y="881" on="0"/>
        <pt x="930" y="908" on="0"/>
        <pt x="944" y="939" on="1"/>
        <pt x="950" y="952" on="0"/>
        <pt x="953" y="960" on="1"/>
        <pt x="959" y="976" on="0"/>
        <pt x="990" y="976" on="1"/>
        <pt x="1014" y="976" on="0"/>
        <pt x="1021" y="964" on="1"/>
        <pt x="939" y="534" on="1"/>
        <pt x="930" y="524" on="0"/>
        <pt x="903" y="524" on="1"/>
        <pt x="877" y="524" on="0"/>
        <pt x="873" y="543" on="1"/>
        <pt x="868" y="634" on="0"/>
        <pt x="857" y="691" on="0"/>
        <pt x="844" y="702" on="1"/>
        <pt x="820" y="720" on="0"/>
        <pt x="622" y="720" on="1"/>
        <pt x="470" y="720" on="0"/>
        <pt x="465" y="700" on="1"/>
        <pt x="376" y="249" on="1"/>
        <pt x="347" y="104" on="0"/>
        <pt x="360" y="91" on="1"/>
        <pt x="371" y="80" on="0"/>
        <pt x="410" y="70" on="0"/>
        <pt x="453" y="68" on="0"/>
        <pt x="506" y="68" on="1"/>
        <pt x="606" y="68" on="1"/>
        <pt x="781" y="68" on="0"/>
        <pt x="889" y="139" on="1"/>
        <pt x="990" y="206" on="0"/>
        <pt x="1067" y="369" on="1"/>
        <pt x="1074" y="383" on="0"/>
        <pt x="1101" y="383" on="1"/>
        <pt x="1117" y="383" on="0"/>
        <pt x="1148" y="374" on="0"/>
        <pt x="1151" y="369" on="1"/>
        <pt x="1137" y="341" on="0"/>
        <pt x="1037" y="157" on="0"/>
        <pt x="978" y="36" on="0"/>
        <pt x="962" y="-9" on="1"/>
        <pt x="854" y="-9" on="0"/>
        <pt x="390" y="0" on="0"/>
        <pt x="242" y="0" on="1"/>
        <pt x="189" y="0" on="0"/>
        <pt x="27" y="-7" on="0"/>
        <pt x="-11" y="-7" on="1"/>
      </contour>
      <contour>
        <pt x="534" y="1774" on="1"/>
        <pt x="542" y="1822" on="0"/>
        <pt x="617" y="1888" on="0"/>
        <pt x="661" y="1888" on="1"/>
        <pt x="706" y="1888" on="0"/>
        <pt x="754" y="1822" on="0"/>
        <pt x="746" y="1774" on="1"/>
        <pt x="737" y="1726" on="0"/>
        <pt x="660" y="1660" on="0"/>
        <pt x="616" y="1660" on="1"/>
        <pt x="571" y="1660" on="0"/>
        <pt x="525" y="1726" on="0"/>
      </contour>
      <contour>
        <pt x="917" y="1774" on="1"/>
        <pt x="925" y="1822" on="0"/>
        <pt x="1000" y="1888" on="0"/>
        <pt x="1044" y="1888" on="1"/>
        <pt x="1089" y="1888" on="0"/>
        <pt x="1137" y="1822" on="0"/>
        <pt x="1129" y="1774" on="1"/>
        <pt x="1120" y="1726" on="0"/>
        <pt x="1046" y="1660" on="0"/>
        <pt x="1001" y="1660" on="1"/>
        <pt x="972" y="1660" on="0"/>
        <pt x="929" y="1690" on="0"/>
        <pt x="911" y="1742" on="0"/>
      </contour>
    </TTGlyph>
    <TTGlyph name="Egrave" xMin="-18" yMin="-9" xMax="1218" yMax="1865">
      <contour>
        <pt x="-18" y="2" on="0"/>
        <pt x="-9" y="50" on="0"/>
        <pt x="0" y="59" on="1"/>
        <pt x="7" y="59" on="0"/>
        <pt x="32" y="61" on="0"/>
        <pt x="65" y="65" on="0"/>
        <pt x="100" y="71" on="0"/>
        <pt x="130" y="79" on="0"/>
        <pt x="152" y="90" on="0"/>
        <pt x="155" y="96" on="1"/>
        <pt x="158" y="102" on="0"/>
        <pt x="165" y="120" on="0"/>
        <pt x="170" y="135" on="0"/>
        <pt x="176" y="160" on="0"/>
        <pt x="180" y="175" on="0"/>
        <pt x="187" y="207" on="0"/>
        <pt x="190" y="221" on="0"/>
        <pt x="197" y="259" on="0"/>
        <pt x="198" y="264" on="1"/>
        <pt x="388" y="1238" on="1"/>
        <pt x="413" y="1366" on="0"/>
        <pt x="408" y="1407" on="1"/>
        <pt x="407" y="1423" on="0"/>
        <pt x="301" y="1443" on="0"/>
        <pt x="269" y="1443" on="1"/>
        <pt x="264" y="1451" on="0"/>
        <pt x="273" y="1501" on="0"/>
        <pt x="283" y="1509" on="1"/>
        <pt x="305" y="1508" on="0"/>
        <pt x="418" y="1501" on="0"/>
        <pt x="494" y="1498" on="0"/>
        <pt x="531" y="1498" on="1"/>
        <pt x="626" y="1498" on="0"/>
        <pt x="1096" y="1514" on="0"/>
        <pt x="1215" y="1514" on="1"/>
        <pt x="1210" y="1486" on="0"/>
        <pt x="1218" y="1223" on="0"/>
        <pt x="1218" y="1204" on="1"/>
        <pt x="1206" y="1192" on="0"/>
        <pt x="1176" y="1192" on="1"/>
        <pt x="1151" y="1192" on="0"/>
        <pt x="1151" y="1208" on="1"/>
        <pt x="1147" y="1275" on="0"/>
        <pt x="1116" y="1366" on="0"/>
        <pt x="1061" y="1416" on="0"/>
        <pt x="995" y="1436" on="0"/>
        <pt x="951" y="1436" on="1"/>
        <pt x="768" y="1436" on="1"/>
        <pt x="746" y="1436" on="0"/>
        <pt x="692" y="1434" on="0"/>
        <pt x="623" y="1422" on="0"/>
        <pt x="618" y="1411" on="1"/>
        <pt x="594" y="1363" on="0"/>
        <pt x="572" y="1247" on="1"/>
        <pt x="488" y="809" on="1"/>
        <pt x="486" y="802" on="0"/>
        <pt x="536" y="796" on="0"/>
        <pt x="577" y="796" on="1"/>
        <pt x="689" y="796" on="1"/>
        <pt x="728" y="796" on="0"/>
        <pt x="777" y="796" on="0"/>
        <pt x="826" y="804" on="0"/>
        <pt x="852" y="808" on="0"/>
        <pt x="882" y="829" on="0"/>
        <pt x="896" y="842" on="0"/>
        <pt x="918" y="881" on="0"/>
        <pt x="930" y="908" on="0"/>
        <pt x="944" y="939" on="1"/>
        <pt x="950" y="952" on="0"/>
        <pt x="953" y="960" on="1"/>
        <pt x="959" y="976" on="0"/>
        <pt x="990" y="976" on="1"/>
        <pt x="1014" y="976" on="0"/>
        <pt x="1021" y="964" on="1"/>
        <pt x="939" y="534" on="1"/>
        <pt x="930" y="524" on="0"/>
        <pt x="903" y="524" on="1"/>
        <pt x="877" y="524" on="0"/>
        <pt x="873" y="543" on="1"/>
        <pt x="868" y="634" on="0"/>
        <pt x="857" y="691" on="0"/>
        <pt x="844" y="702" on="1"/>
        <pt x="820" y="720" on="0"/>
        <pt x="622" y="720" on="1"/>
        <pt x="470" y="720" on="0"/>
        <pt x="465" y="700" on="1"/>
        <pt x="376" y="249" on="1"/>
        <pt x="347" y="104" on="0"/>
        <pt x="360" y="91" on="1"/>
        <pt x="371" y="80" on="0"/>
        <pt x="410" y="70" on="0"/>
        <pt x="453" y="68" on="0"/>
        <pt x="506" y="68" on="1"/>
        <pt x="606" y="68" on="1"/>
        <pt x="781" y="68" on="0"/>
        <pt x="889" y="139" on="1"/>
        <pt x="990" y="206" on="0"/>
        <pt x="1067" y="369" on="1"/>
        <pt x="1074" y="383" on="0"/>
        <pt x="1101" y="383" on="1"/>
        <pt x="1117" y="383" on="0"/>
        <pt x="1148" y="374" on="0"/>
        <pt x="1151" y="369" on="1"/>
        <pt x="1137" y="341" on="0"/>
        <pt x="1037" y="157" on="0"/>
        <pt x="978" y="36" on="0"/>
        <pt x="962" y="-9" on="1"/>
        <pt x="854" y="-9" on="0"/>
        <pt x="390" y="0" on="0"/>
        <pt x="242" y="0" on="1"/>
        <pt x="189" y="0" on="0"/>
        <pt x="27" y="-7" on="0"/>
        <pt x="-11" y="-7" on="1"/>
      </contour>
      <contour>
        <pt x="554" y="1815" on="1"/>
        <pt x="554" y="1835" on="0"/>
        <pt x="616" y="1865" on="0"/>
        <pt x="663" y="1865" on="1"/>
        <pt x="676" y="1865" on="0"/>
        <pt x="720" y="1857" on="0"/>
        <pt x="725" y="1854" on="1"/>
        <pt x="769" y="1825" on="0"/>
        <pt x="967" y="1653" on="0"/>
        <pt x="967" y="1642" on="1"/>
        <pt x="967" y="1637" on="0"/>
        <pt x="955" y="1619" on="0"/>
        <pt x="953" y="1619" on="1"/>
        <pt x="934" y="1619" on="0"/>
        <pt x="740" y="1692" on="0"/>
        <pt x="554" y="1789" on="0"/>
      </contour>
    </TTGlyph>
    <TTGlyph name="Eth" xMin="-18" yMin="-7" xMax="1493" yMax="1509">
      <contour>
        <pt x="-18" y="2" on="0"/>
        <pt x="-7" y="50" on="0"/>
        <pt x="2" y="59" on="1"/>
        <pt x="34" y="59" on="0"/>
        <pt x="148" y="79" on="0"/>
        <pt x="155" y="96" on="1"/>
        <pt x="158" y="102" on="0"/>
        <pt x="165" y="120" on="0"/>
        <pt x="170" y="135" on="0"/>
        <pt x="176" y="160" on="0"/>
        <pt x="180" y="175" on="0"/>
        <pt x="187" y="207" on="0"/>
        <pt x="190" y="221" on="0"/>
        <pt x="197" y="259" on="0"/>
        <pt x="198" y="264" on="1"/>
        <pt x="388" y="1238" on="1"/>
        <pt x="389" y="1243" on="0"/>
        <pt x="390" y="1252" on="1"/>
        <pt x="415" y="1373" on="0"/>
        <pt x="410" y="1407" on="1"/>
        <pt x="409" y="1423" on="0"/>
        <pt x="303" y="1443" on="0"/>
        <pt x="271" y="1443" on="1"/>
        <pt x="266" y="1451" on="0"/>
        <pt x="273" y="1501" on="0"/>
        <pt x="283" y="1509" on="1"/>
        <pt x="305" y="1508" on="0"/>
        <pt x="418" y="1501" on="0"/>
        <pt x="494" y="1498" on="0"/>
        <pt x="531" y="1498" on="1"/>
        <pt x="571" y="1498" on="0"/>
        <pt x="791" y="1500" on="0"/>
        <pt x="839" y="1500" on="1"/>
        <pt x="960" y="1500" on="0"/>
        <pt x="1164" y="1449" on="0"/>
        <pt x="1314" y="1356" on="0"/>
        <pt x="1425" y="1223" on="0"/>
        <pt x="1480" y="1058" on="0"/>
        <pt x="1493" y="867" on="0"/>
        <pt x="1471" y="762" on="1"/>
        <pt x="1456" y="687" on="0"/>
        <pt x="1411" y="548" on="0"/>
        <pt x="1344" y="409" on="0"/>
        <pt x="1255" y="288" on="0"/>
        <pt x="1143" y="178" on="0"/>
        <pt x="1001" y="92" on="0"/>
        <pt x="836" y="28" on="0"/>
        <pt x="633" y="-6" on="0"/>
        <pt x="520" y="-7" on="1"/>
        <pt x="-11" y="-7" on="1"/>
      </contour>
      <contour>
        <pt x="160" y="714" on="0"/>
        <pt x="157" y="732" on="0"/>
        <pt x="160" y="739" on="1"/>
        <pt x="160" y="740" on="0"/>
        <pt x="162" y="754" on="0"/>
        <pt x="164" y="765" on="0"/>
        <pt x="169" y="779" on="0"/>
        <pt x="176" y="791" on="0"/>
        <pt x="180" y="796" on="1"/>
        <pt x="933" y="796" on="1"/>
        <pt x="939" y="796" on="0"/>
        <pt x="946" y="785" on="0"/>
        <pt x="944" y="777" on="1"/>
        <pt x="935" y="733" on="0"/>
        <pt x="921" y="714" on="1"/>
        <pt x="166" y="714" on="1"/>
      </contour>
      <contour>
        <pt x="363" y="91" on="1"/>
        <pt x="377" y="59" on="0"/>
        <pt x="529" y="59" on="1"/>
        <pt x="628" y="59" on="0"/>
        <pt x="814" y="109" on="0"/>
        <pt x="985" y="215" on="0"/>
        <pt x="1123" y="367" on="0"/>
        <pt x="1226" y="583" on="0"/>
        <pt x="1252" y="714" on="1"/>
        <pt x="1283" y="868" on="0"/>
        <pt x="1264" y="1106" on="0"/>
        <pt x="1188" y="1277" on="0"/>
        <pt x="1051" y="1387" on="0"/>
        <pt x="877" y="1439" on="0"/>
        <pt x="771" y="1439" on="1"/>
        <pt x="748" y="1439" on="0"/>
        <pt x="694" y="1436" on="0"/>
        <pt x="623" y="1424" on="0"/>
        <pt x="613" y="1403" on="0"/>
        <pt x="603" y="1377" on="0"/>
        <pt x="593" y="1335" on="0"/>
        <pt x="588" y="1314" on="0"/>
        <pt x="576" y="1252" on="0"/>
        <pt x="575" y="1245" on="1"/>
        <pt x="381" y="255" on="1"/>
        <pt x="374" y="223" on="0"/>
        <pt x="358" y="100" on="0"/>
      </contour>
    </TTGlyph>
    <TTGlyph name="Euro" xMin="64" yMin="-18" xMax="1352" yMax="1446">
      <contour>
        <pt x="64" y="570" on="1"/>
        <pt x="64" y="583" on="0"/>
        <pt x="82" y="631" on="0"/>
        <pt x="93" y="641" on="1"/>
        <pt x="864" y="641" on="1"/>
        <pt x="871" y="641" on="0"/>
        <pt x="871" y="622" on="1"/>
        <pt x="871" y="615" on="0"/>
        <pt x="866" y="592" on="0"/>
        <pt x="853" y="561" on="0"/>
        <pt x="844" y="552" on="1"/>
        <pt x="73" y="552" on="1"/>
        <pt x="64" y="552" on="0"/>
      </contour>
      <contour>
        <pt x="98" y="793" on="1"/>
        <pt x="98" y="807" on="0"/>
        <pt x="117" y="855" on="0"/>
        <pt x="128" y="864" on="1"/>
        <pt x="898" y="864" on="1"/>
        <pt x="905" y="864" on="0"/>
        <pt x="905" y="846" on="1"/>
        <pt x="905" y="833" on="0"/>
        <pt x="891" y="789" on="0"/>
        <pt x="878" y="775" on="1"/>
        <pt x="107" y="775" on="1"/>
        <pt x="98" y="775" on="0"/>
      </contour>
      <contour>
        <pt x="182" y="575" on="1"/>
        <pt x="182" y="708" on="0"/>
        <pt x="251" y="951" on="0"/>
        <pt x="370" y="1140" on="0"/>
        <pt x="532" y="1294" on="0"/>
        <pt x="718" y="1394" on="0"/>
        <pt x="919" y="1446" on="0"/>
        <pt x="1019" y="1443" on="1"/>
        <pt x="1139" y="1441" on="0"/>
        <pt x="1352" y="1386" on="1"/>
        <pt x="1351" y="1374" on="0"/>
        <pt x="1336" y="1108" on="0"/>
        <pt x="1334" y="1069" on="1"/>
        <pt x="1334" y="1053" on="0"/>
        <pt x="1311" y="1053" on="1"/>
        <pt x="1271" y="1053" on="0"/>
        <pt x="1263" y="1069" on="1"/>
        <pt x="1268" y="1153" on="0"/>
        <pt x="1184" y="1292" on="0"/>
        <pt x="1043" y="1368" on="0"/>
        <pt x="962" y="1368" on="1"/>
        <pt x="873" y="1368" on="0"/>
        <pt x="703" y="1302" on="0"/>
        <pt x="559" y="1171" on="0"/>
        <pt x="450" y="991" on="0"/>
        <pt x="389" y="748" on="0"/>
        <pt x="390" y="611" on="1"/>
        <pt x="390" y="546" on="0"/>
        <pt x="413" y="416" on="0"/>
        <pt x="458" y="292" on="0"/>
        <pt x="530" y="185" on="0"/>
        <pt x="622" y="105" on="0"/>
        <pt x="744" y="59" on="0"/>
        <pt x="814" y="59" on="1"/>
        <pt x="960" y="59" on="0"/>
        <pt x="1081" y="169" on="1"/>
        <pt x="1168" y="247" on="0"/>
        <pt x="1231" y="374" on="1"/>
        <pt x="1239" y="374" on="0"/>
        <pt x="1256" y="371" on="0"/>
        <pt x="1270" y="366" on="0"/>
        <pt x="1282" y="361" on="0"/>
        <pt x="1285" y="360" on="1"/>
        <pt x="1288" y="358" on="1"/>
        <pt x="1284" y="336" on="0"/>
        <pt x="1224" y="201" on="0"/>
        <pt x="1156" y="71" on="0"/>
        <pt x="1142" y="59" on="1"/>
        <pt x="1063" y="15" on="0"/>
        <pt x="889" y="-18" on="0"/>
        <pt x="759" y="-18" on="1"/>
        <pt x="667" y="-18" on="0"/>
        <pt x="492" y="43" on="0"/>
        <pt x="350" y="154" on="0"/>
        <pt x="242" y="300" on="0"/>
        <pt x="182" y="480" on="0"/>
      </contour>
    </TTGlyph>
    <TTGlyph name="F" xMin="-16" yMin="-7" xMax="1218" yMax="1514">
      <contour>
        <pt x="-14" y="26" on="1"/>
        <pt x="-10" y="50" on="0"/>
        <pt x="0" y="59" on="1"/>
        <pt x="7" y="59" on="0"/>
        <pt x="32" y="61" on="0"/>
        <pt x="65" y="65" on="0"/>
        <pt x="100" y="71" on="0"/>
        <pt x="130" y="79" on="0"/>
        <pt x="152" y="90" on="0"/>
        <pt x="155" y="96" on="1"/>
        <pt x="158" y="102" on="0"/>
        <pt x="165" y="120" on="0"/>
        <pt x="170" y="135" on="0"/>
        <pt x="176" y="160" on="0"/>
        <pt x="180" y="175" on="0"/>
        <pt x="187" y="207" on="0"/>
        <pt x="190" y="221" on="0"/>
        <pt x="197" y="259" on="0"/>
        <pt x="198" y="264" on="1"/>
        <pt x="388" y="1238" on="1"/>
        <pt x="409" y="1345" on="0"/>
        <pt x="409" y="1391" on="1"/>
        <pt x="409" y="1400" on="0"/>
        <pt x="408" y="1407" on="1"/>
        <pt x="407" y="1423" on="0"/>
        <pt x="301" y="1443" on="0"/>
        <pt x="269" y="1443" on="1"/>
        <pt x="264" y="1451" on="0"/>
        <pt x="273" y="1501" on="0"/>
        <pt x="283" y="1509" on="1"/>
        <pt x="305" y="1508" on="0"/>
        <pt x="418" y="1501" on="0"/>
        <pt x="494" y="1498" on="0"/>
        <pt x="531" y="1498" on="1"/>
        <pt x="626" y="1498" on="0"/>
        <pt x="1096" y="1514" on="0"/>
        <pt x="1215" y="1514" on="1"/>
        <pt x="1212" y="1498" on="0"/>
        <pt x="1212" y="1451" on="1"/>
        <pt x="1212" y="1412" on="0"/>
        <pt x="1214" y="1354" on="1"/>
        <pt x="1218" y="1222" on="0"/>
        <pt x="1218" y="1204" on="1"/>
        <pt x="1206" y="1192" on="0"/>
        <pt x="1176" y="1192" on="1"/>
        <pt x="1151" y="1192" on="0"/>
        <pt x="1151" y="1208" on="1"/>
        <pt x="1147" y="1275" on="0"/>
        <pt x="1116" y="1366" on="0"/>
        <pt x="1061" y="1416" on="0"/>
        <pt x="995" y="1436" on="0"/>
        <pt x="951" y="1436" on="1"/>
        <pt x="768" y="1436" on="1"/>
        <pt x="746" y="1436" on="0"/>
        <pt x="692" y="1434" on="0"/>
        <pt x="623" y="1422" on="0"/>
        <pt x="618" y="1411" on="1"/>
        <pt x="594" y="1363" on="0"/>
        <pt x="572" y="1247" on="1"/>
        <pt x="488" y="809" on="1"/>
        <pt x="486" y="802" on="0"/>
        <pt x="536" y="796" on="0"/>
        <pt x="577" y="796" on="1"/>
        <pt x="689" y="796" on="1"/>
        <pt x="728" y="796" on="0"/>
        <pt x="777" y="796" on="0"/>
        <pt x="826" y="804" on="0"/>
        <pt x="852" y="808" on="0"/>
        <pt x="882" y="829" on="0"/>
        <pt x="896" y="842" on="0"/>
        <pt x="918" y="881" on="0"/>
        <pt x="930" y="908" on="0"/>
        <pt x="944" y="939" on="1"/>
        <pt x="950" y="952" on="0"/>
        <pt x="953" y="960" on="1"/>
        <pt x="959" y="976" on="0"/>
        <pt x="990" y="976" on="1"/>
        <pt x="1014" y="976" on="0"/>
        <pt x="1021" y="964" on="1"/>
        <pt x="939" y="534" on="1"/>
        <pt x="930" y="524" on="0"/>
        <pt x="903" y="524" on="1"/>
        <pt x="877" y="524" on="0"/>
        <pt x="873" y="543" on="1"/>
        <pt x="868" y="634" on="0"/>
        <pt x="857" y="691" on="0"/>
        <pt x="844" y="702" on="1"/>
        <pt x="820" y="720" on="0"/>
        <pt x="622" y="720" on="1"/>
        <pt x="470" y="720" on="0"/>
        <pt x="465" y="700" on="1"/>
        <pt x="381" y="264" on="1"/>
        <pt x="359" y="157" on="0"/>
        <pt x="359" y="111" on="1"/>
        <pt x="359" y="102" on="0"/>
        <pt x="360" y="96" on="1"/>
        <pt x="362" y="80" on="0"/>
        <pt x="485" y="59" on="0"/>
        <pt x="520" y="59" on="1"/>
        <pt x="525" y="51" on="0"/>
        <pt x="516" y="1" on="0"/>
        <pt x="506" y="-7" on="1"/>
        <pt x="290" y="5" on="0"/>
        <pt x="239" y="5" on="1"/>
        <pt x="187" y="5" on="0"/>
        <pt x="27" y="-7" on="0"/>
        <pt x="-11" y="-7" on="1"/>
        <pt x="-15" y="-2" on="0"/>
        <pt x="-15" y="10" on="1"/>
        <pt x="-16" y="17" on="0"/>
      </contour>
    </TTGlyph>
    <TTGlyph name="G" xMin="135" yMin="-18" xMax="1519" yMax="1518">
      <contour>
        <pt x="135" y="604" on="1"/>
        <pt x="135" y="745" on="0"/>
        <pt x="206" y="999" on="0"/>
        <pt x="333" y="1199" on="0"/>
        <pt x="508" y="1361" on="0"/>
        <pt x="713" y="1466" on="0"/>
        <pt x="828" y="1494" on="1"/>
        <pt x="931" y="1518" on="0"/>
        <pt x="1037" y="1518" on="1"/>
        <pt x="1048" y="1518" on="0"/>
        <pt x="1060" y="1518" on="1"/>
        <pt x="1122" y="1517" on="0"/>
        <pt x="1264" y="1497" on="0"/>
        <pt x="1353" y="1477" on="0"/>
        <pt x="1427" y="1459" on="1"/>
        <pt x="1425" y="1423" on="0"/>
        <pt x="1416" y="1290" on="0"/>
        <pt x="1406" y="1149" on="0"/>
        <pt x="1404" y="1126" on="1"/>
        <pt x="1404" y="1121" on="0"/>
        <pt x="1393" y="1115" on="0"/>
        <pt x="1386" y="1115" on="1"/>
        <pt x="1357" y="1115" on="0"/>
        <pt x="1334" y="1126" on="1"/>
        <pt x="1334" y="1135" on="0"/>
        <pt x="1334" y="1144" on="1"/>
        <pt x="1334" y="1222" on="0"/>
        <pt x="1294" y="1290" on="1"/>
        <pt x="1249" y="1364" on="0"/>
        <pt x="1089" y="1448" on="0"/>
        <pt x="994" y="1448" on="1"/>
        <pt x="861" y="1448" on="0"/>
        <pt x="626" y="1334" on="0"/>
        <pt x="451" y="1129" on="0"/>
        <pt x="400" y="976" on="1"/>
        <pt x="351" y="827" on="0"/>
        <pt x="351" y="650" on="1"/>
        <pt x="351" y="647" on="0"/>
        <pt x="351" y="643" on="1"/>
        <pt x="351" y="559" on="0"/>
        <pt x="382" y="395" on="0"/>
        <pt x="453" y="238" on="0"/>
        <pt x="557" y="120" on="0"/>
        <pt x="714" y="48" on="0"/>
        <pt x="809" y="48" on="1"/>
        <pt x="883" y="48" on="0"/>
        <pt x="1020" y="95" on="0"/>
        <pt x="1065" y="125" on="1"/>
        <pt x="1084" y="138" on="0"/>
        <pt x="1088" y="164" on="1"/>
        <pt x="1133" y="399" on="1"/>
        <pt x="1134" y="404" on="0"/>
        <pt x="1136" y="413" on="1"/>
        <pt x="1157" y="517" on="0"/>
        <pt x="1157" y="557" on="1"/>
        <pt x="1157" y="563" on="0"/>
        <pt x="1156" y="568" on="1"/>
        <pt x="1154" y="584" on="0"/>
        <pt x="1039" y="604" on="0"/>
        <pt x="1005" y="604" on="1"/>
        <pt x="1000" y="612" on="0"/>
        <pt x="1007" y="662" on="0"/>
        <pt x="1017" y="670" on="1"/>
        <pt x="1040" y="669" on="0"/>
        <pt x="1150" y="662" on="0"/>
        <pt x="1226" y="659" on="0"/>
        <pt x="1300" y="659" on="0"/>
        <pt x="1378" y="662" on="0"/>
        <pt x="1490" y="669" on="0"/>
        <pt x="1514" y="670" on="1"/>
        <pt x="1519" y="665" on="0"/>
        <pt x="1519" y="652" on="1"/>
        <pt x="1519" y="646" on="0"/>
        <pt x="1518" y="638" on="1"/>
        <pt x="1514" y="613" on="0"/>
        <pt x="1505" y="604" on="1"/>
        <pt x="1474" y="604" on="0"/>
        <pt x="1366" y="584" on="0"/>
        <pt x="1359" y="568" on="1"/>
        <pt x="1356" y="561" on="0"/>
        <pt x="1349" y="544" on="0"/>
        <pt x="1344" y="529" on="0"/>
        <pt x="1337" y="503" on="0"/>
        <pt x="1334" y="488" on="0"/>
        <pt x="1327" y="456" on="0"/>
        <pt x="1324" y="443" on="0"/>
        <pt x="1317" y="405" on="0"/>
        <pt x="1316" y="399" on="1"/>
        <pt x="1284" y="237" on="1"/>
        <pt x="1277" y="216" on="0"/>
        <pt x="1288" y="157" on="0"/>
        <pt x="1288" y="155" on="1"/>
        <pt x="1288" y="130" on="0"/>
        <pt x="1238" y="105" on="1"/>
        <pt x="1232" y="102" on="0"/>
        <pt x="1221" y="96" on="1"/>
        <pt x="1170" y="69" on="0"/>
        <pt x="1105" y="40" on="0"/>
        <pt x="984" y="0" on="0"/>
        <pt x="833" y="-18" on="0"/>
        <pt x="739" y="-18" on="1"/>
        <pt x="610" y="-18" on="0"/>
        <pt x="383" y="82" on="0"/>
        <pt x="226" y="251" on="0"/>
        <pt x="135" y="479" on="0"/>
      </contour>
    </TTGlyph>
    <TTGlyph name="H" xMin="-16" yMin="-7" xMax="1636" yMax="1509">
      <contour>
        <pt x="-14" y="26" on="1"/>
        <pt x="-10" y="50" on="0"/>
        <pt x="0" y="59" on="1"/>
        <pt x="7" y="59" on="0"/>
        <pt x="32" y="61" on="0"/>
        <pt x="65" y="65" on="0"/>
        <pt x="100" y="71" on="0"/>
        <pt x="130" y="79" on="0"/>
        <pt x="152" y="90" on="0"/>
        <pt x="155" y="96" on="1"/>
        <pt x="158" y="102" on="0"/>
        <pt x="165" y="120" on="0"/>
        <pt x="170" y="135" on="0"/>
        <pt x="176" y="160" on="0"/>
        <pt x="180" y="175" on="0"/>
        <pt x="187" y="207" on="0"/>
        <pt x="190" y="221" on="0"/>
        <pt x="197" y="259" on="0"/>
        <pt x="198" y="264" on="1"/>
        <pt x="388" y="1238" on="1"/>
        <pt x="409" y="1345" on="0"/>
        <pt x="409" y="1391" on="1"/>
        <pt x="409" y="1400" on="0"/>
        <pt x="408" y="1407" on="1"/>
        <pt x="407" y="1423" on="0"/>
        <pt x="301" y="1443" on="0"/>
        <pt x="269" y="1443" on="1"/>
        <pt x="264" y="1451" on="0"/>
        <pt x="273" y="1501" on="0"/>
        <pt x="283" y="1509" on="1"/>
        <pt x="305" y="1508" on="0"/>
        <pt x="418" y="1501" on="0"/>
        <pt x="494" y="1498" on="0"/>
        <pt x="568" y="1498" on="0"/>
        <pt x="646" y="1501" on="0"/>
        <pt x="758" y="1508" on="0"/>
        <pt x="782" y="1509" on="1"/>
        <pt x="788" y="1500" on="0"/>
        <pt x="777" y="1452" on="0"/>
        <pt x="768" y="1443" on="1"/>
        <pt x="736" y="1443" on="0"/>
        <pt x="623" y="1423" on="0"/>
        <pt x="616" y="1407" on="1"/>
        <pt x="593" y="1361" on="0"/>
        <pt x="572" y="1238" on="1"/>
        <pt x="488" y="812" on="1"/>
        <pt x="1154" y="812" on="1"/>
        <pt x="1238" y="1238" on="1"/>
        <pt x="1240" y="1251" on="0"/>
        <pt x="1250" y="1306" on="0"/>
        <pt x="1253" y="1327" on="0"/>
        <pt x="1260" y="1376" on="0"/>
        <pt x="1259" y="1388" on="0"/>
        <pt x="1259" y="1407" on="1"/>
        <pt x="1257" y="1423" on="0"/>
        <pt x="1151" y="1443" on="0"/>
        <pt x="1119" y="1443" on="1"/>
        <pt x="1114" y="1451" on="0"/>
        <pt x="1123" y="1501" on="0"/>
        <pt x="1133" y="1509" on="1"/>
        <pt x="1155" y="1508" on="0"/>
        <pt x="1268" y="1501" on="0"/>
        <pt x="1345" y="1498" on="0"/>
        <pt x="1419" y="1498" on="0"/>
        <pt x="1496" y="1501" on="0"/>
        <pt x="1608" y="1508" on="0"/>
        <pt x="1632" y="1509" on="1"/>
        <pt x="1636" y="1504" on="0"/>
        <pt x="1636" y="1494" on="1"/>
        <pt x="1636" y="1486" on="0"/>
        <pt x="1634" y="1476" on="1"/>
        <pt x="1628" y="1452" on="0"/>
        <pt x="1619" y="1443" on="1"/>
        <pt x="1602" y="1443" on="0"/>
        <pt x="1539" y="1436" on="0"/>
        <pt x="1471" y="1418" on="0"/>
        <pt x="1466" y="1407" on="1"/>
        <pt x="1463" y="1401" on="0"/>
        <pt x="1458" y="1388" on="0"/>
        <pt x="1454" y="1376" on="0"/>
        <pt x="1449" y="1358" on="0"/>
        <pt x="1445" y="1345" on="0"/>
        <pt x="1440" y="1324" on="0"/>
        <pt x="1437" y="1310" on="0"/>
        <pt x="1432" y="1286" on="0"/>
        <pt x="1429" y="1271" on="0"/>
        <pt x="1424" y="1245" on="0"/>
        <pt x="1423" y="1238" on="1"/>
        <pt x="1233" y="264" on="1"/>
        <pt x="1233" y="260" on="0"/>
        <pt x="1231" y="251" on="1"/>
        <pt x="1210" y="150" on="0"/>
        <pt x="1210" y="110" on="1"/>
        <pt x="1210" y="102" on="0"/>
        <pt x="1211" y="96" on="1"/>
        <pt x="1212" y="79" on="0"/>
        <pt x="1318" y="59" on="0"/>
        <pt x="1350" y="59" on="1"/>
        <pt x="1355" y="51" on="0"/>
        <pt x="1346" y="1" on="0"/>
        <pt x="1336" y="-7" on="1"/>
        <pt x="1313" y="-6" on="0"/>
        <pt x="1203" y="1" on="0"/>
        <pt x="1127" y="5" on="0"/>
        <pt x="1053" y="5" on="0"/>
        <pt x="975" y="1" on="0"/>
        <pt x="863" y="-6" on="0"/>
        <pt x="839" y="-7" on="1"/>
        <pt x="833" y="2" on="0"/>
        <pt x="842" y="50" on="0"/>
        <pt x="850" y="59" on="1"/>
        <pt x="867" y="59" on="0"/>
        <pt x="931" y="66" on="0"/>
        <pt x="1000" y="84" on="0"/>
        <pt x="1005" y="96" on="1"/>
        <pt x="1008" y="102" on="0"/>
        <pt x="1014" y="115" on="0"/>
        <pt x="1020" y="133" on="0"/>
        <pt x="1024" y="148" on="0"/>
        <pt x="1029" y="170" on="0"/>
        <pt x="1033" y="185" on="0"/>
        <pt x="1038" y="212" on="0"/>
        <pt x="1041" y="227" on="0"/>
        <pt x="1047" y="258" on="0"/>
        <pt x="1049" y="264" on="1"/>
        <pt x="1138" y="720" on="1"/>
        <pt x="472" y="720" on="1"/>
        <pt x="383" y="264" on="1"/>
        <pt x="382" y="260" on="0"/>
        <pt x="380" y="251" on="1"/>
        <pt x="359" y="147" on="0"/>
        <pt x="359" y="107" on="1"/>
        <pt x="359" y="100" on="0"/>
        <pt x="360" y="96" on="1"/>
        <pt x="362" y="79" on="0"/>
        <pt x="468" y="59" on="0"/>
        <pt x="499" y="59" on="1"/>
        <pt x="505" y="51" on="0"/>
        <pt x="496" y="1" on="0"/>
        <pt x="486" y="-7" on="1"/>
        <pt x="462" y="-6" on="0"/>
        <pt x="354" y="1" on="0"/>
        <pt x="279" y="5" on="0"/>
        <pt x="205" y="5" on="0"/>
        <pt x="127" y="1" on="0"/>
        <pt x="12" y="-6" on="0"/>
        <pt x="-11" y="-7" on="1"/>
        <pt x="-15" y="-2" on="0"/>
        <pt x="-15" y="10" on="1"/>
        <pt x="-16" y="17" on="0"/>
      </contour>
    </TTGlyph>
    <TTGlyph name="I" xMin="-16" yMin="-7" xMax="785" yMax="1509">
      <contour>
        <pt x="-14" y="26" on="1"/>
        <pt x="-10" y="50" on="0"/>
        <pt x="0" y="59" on="1"/>
        <pt x="7" y="59" on="0"/>
        <pt x="32" y="61" on="0"/>
        <pt x="65" y="65" on="0"/>
        <pt x="100" y="71" on="0"/>
        <pt x="130" y="79" on="0"/>
        <pt x="152" y="90" on="0"/>
        <pt x="155" y="96" on="1"/>
        <pt x="158" y="102" on="0"/>
        <pt x="165" y="120" on="0"/>
        <pt x="170" y="135" on="0"/>
        <pt x="176" y="160" on="0"/>
        <pt x="180" y="175" on="0"/>
        <pt x="187" y="207" on="0"/>
        <pt x="190" y="221" on="0"/>
        <pt x="197" y="259" on="0"/>
        <pt x="198" y="264" on="1"/>
        <pt x="388" y="1238" on="1"/>
        <pt x="409" y="1345" on="0"/>
        <pt x="409" y="1391" on="1"/>
        <pt x="409" y="1400" on="0"/>
        <pt x="408" y="1407" on="1"/>
        <pt x="407" y="1423" on="0"/>
        <pt x="301" y="1443" on="0"/>
        <pt x="269" y="1443" on="1"/>
        <pt x="264" y="1451" on="0"/>
        <pt x="273" y="1501" on="0"/>
        <pt x="283" y="1509" on="1"/>
        <pt x="305" y="1508" on="0"/>
        <pt x="418" y="1501" on="0"/>
        <pt x="494" y="1498" on="0"/>
        <pt x="568" y="1498" on="0"/>
        <pt x="646" y="1501" on="0"/>
        <pt x="758" y="1508" on="0"/>
        <pt x="782" y="1509" on="1"/>
        <pt x="785" y="1504" on="0"/>
        <pt x="785" y="1496" on="1"/>
        <pt x="784" y="1488" on="0"/>
        <pt x="782" y="1476" on="1"/>
        <pt x="776" y="1452" on="0"/>
        <pt x="768" y="1443" on="1"/>
        <pt x="736" y="1443" on="0"/>
        <pt x="623" y="1423" on="0"/>
        <pt x="616" y="1407" on="1"/>
        <pt x="612" y="1400" on="0"/>
        <pt x="606" y="1383" on="0"/>
        <pt x="601" y="1368" on="0"/>
        <pt x="594" y="1342" on="0"/>
        <pt x="590" y="1328" on="0"/>
        <pt x="584" y="1295" on="0"/>
        <pt x="581" y="1282" on="0"/>
        <pt x="573" y="1244" on="0"/>
        <pt x="572" y="1238" on="1"/>
        <pt x="383" y="264" on="1"/>
        <pt x="382" y="260" on="0"/>
        <pt x="380" y="251" on="1"/>
        <pt x="359" y="147" on="0"/>
        <pt x="359" y="107" on="1"/>
        <pt x="359" y="100" on="0"/>
        <pt x="360" y="96" on="1"/>
        <pt x="362" y="79" on="0"/>
        <pt x="468" y="59" on="0"/>
        <pt x="499" y="59" on="1"/>
        <pt x="505" y="51" on="0"/>
        <pt x="496" y="1" on="0"/>
        <pt x="486" y="-7" on="1"/>
        <pt x="462" y="-6" on="0"/>
        <pt x="354" y="1" on="0"/>
        <pt x="279" y="5" on="0"/>
        <pt x="205" y="5" on="0"/>
        <pt x="127" y="1" on="0"/>
        <pt x="12" y="-6" on="0"/>
        <pt x="-11" y="-7" on="1"/>
        <pt x="-15" y="-2" on="0"/>
        <pt x="-15" y="10" on="1"/>
        <pt x="-16" y="17" on="0"/>
      </contour>
    </TTGlyph>
    <TTGlyph name="Iacute" xMin="-18" yMin="-7" xMax="812" yMax="1867">
      <contour>
        <pt x="-18" y="2" on="0"/>
        <pt x="-9" y="50" on="0"/>
        <pt x="0" y="59" on="1"/>
        <pt x="7" y="59" on="0"/>
        <pt x="32" y="61" on="0"/>
        <pt x="65" y="65" on="0"/>
        <pt x="100" y="71" on="0"/>
        <pt x="130" y="79" on="0"/>
        <pt x="152" y="90" on="0"/>
        <pt x="155" y="96" on="1"/>
        <pt x="158" y="102" on="0"/>
        <pt x="165" y="120" on="0"/>
        <pt x="170" y="135" on="0"/>
        <pt x="176" y="160" on="0"/>
        <pt x="180" y="175" on="0"/>
        <pt x="187" y="207" on="0"/>
        <pt x="190" y="221" on="0"/>
        <pt x="197" y="259" on="0"/>
        <pt x="198" y="264" on="1"/>
        <pt x="388" y="1238" on="1"/>
        <pt x="413" y="1366" on="0"/>
        <pt x="408" y="1407" on="1"/>
        <pt x="407" y="1423" on="0"/>
        <pt x="301" y="1443" on="0"/>
        <pt x="269" y="1443" on="1"/>
        <pt x="264" y="1451" on="0"/>
        <pt x="273" y="1501" on="0"/>
        <pt x="283" y="1509" on="1"/>
        <pt x="305" y="1508" on="0"/>
        <pt x="418" y="1501" on="0"/>
        <pt x="494" y="1498" on="0"/>
        <pt x="568" y="1498" on="0"/>
        <pt x="646" y="1501" on="0"/>
        <pt x="758" y="1508" on="0"/>
        <pt x="782" y="1509" on="1"/>
        <pt x="788" y="1500" on="0"/>
        <pt x="777" y="1452" on="0"/>
        <pt x="768" y="1443" on="1"/>
        <pt x="736" y="1443" on="0"/>
        <pt x="623" y="1423" on="0"/>
        <pt x="616" y="1407" on="1"/>
        <pt x="612" y="1400" on="0"/>
        <pt x="606" y="1383" on="0"/>
        <pt x="601" y="1368" on="0"/>
        <pt x="594" y="1342" on="0"/>
        <pt x="590" y="1328" on="0"/>
        <pt x="584" y="1295" on="0"/>
        <pt x="581" y="1282" on="0"/>
        <pt x="573" y="1244" on="0"/>
        <pt x="572" y="1238" on="1"/>
        <pt x="383" y="264" on="1"/>
        <pt x="382" y="260" on="0"/>
        <pt x="380" y="251" on="1"/>
        <pt x="356" y="130" on="0"/>
        <pt x="360" y="96" on="1"/>
        <pt x="362" y="79" on="0"/>
        <pt x="468" y="59" on="0"/>
        <pt x="499" y="59" on="1"/>
        <pt x="505" y="51" on="0"/>
        <pt x="496" y="1" on="0"/>
        <pt x="486" y="-7" on="1"/>
        <pt x="462" y="-6" on="0"/>
        <pt x="354" y="1" on="0"/>
        <pt x="279" y="5" on="0"/>
        <pt x="205" y="5" on="0"/>
        <pt x="127" y="1" on="0"/>
        <pt x="12" y="-6" on="0"/>
        <pt x="-11" y="-7" on="1"/>
      </contour>
      <contour>
        <pt x="399" y="1644" on="1"/>
        <pt x="399" y="1656" on="0"/>
        <pt x="596" y="1828" on="0"/>
        <pt x="641" y="1856" on="1"/>
        <pt x="646" y="1859" on="0"/>
        <pt x="690" y="1867" on="0"/>
        <pt x="702" y="1867" on="1"/>
        <pt x="750" y="1867" on="0"/>
        <pt x="812" y="1837" on="0"/>
        <pt x="812" y="1817" on="1"/>
        <pt x="812" y="1791" on="0"/>
        <pt x="625" y="1694" on="0"/>
        <pt x="432" y="1621" on="0"/>
        <pt x="413" y="1621" on="1"/>
        <pt x="412" y="1621" on="0"/>
        <pt x="407" y="1626" on="0"/>
        <pt x="403" y="1633" on="0"/>
        <pt x="399" y="1641" on="0"/>
      </contour>
    </TTGlyph>
    <TTGlyph name="Icircumflex" xMin="-18" yMin="-7" xMax="866" yMax="1906">
      <contour>
        <pt x="-18" y="2" on="0"/>
        <pt x="-9" y="50" on="0"/>
        <pt x="0" y="59" on="1"/>
        <pt x="7" y="59" on="0"/>
        <pt x="32" y="61" on="0"/>
        <pt x="65" y="65" on="0"/>
        <pt x="100" y="71" on="0"/>
        <pt x="130" y="79" on="0"/>
        <pt x="152" y="90" on="0"/>
        <pt x="155" y="96" on="1"/>
        <pt x="158" y="102" on="0"/>
        <pt x="165" y="120" on="0"/>
        <pt x="170" y="135" on="0"/>
        <pt x="176" y="160" on="0"/>
        <pt x="180" y="175" on="0"/>
        <pt x="187" y="207" on="0"/>
        <pt x="190" y="221" on="0"/>
        <pt x="197" y="259" on="0"/>
        <pt x="198" y="264" on="1"/>
        <pt x="388" y="1238" on="1"/>
        <pt x="413" y="1366" on="0"/>
        <pt x="408" y="1407" on="1"/>
        <pt x="407" y="1423" on="0"/>
        <pt x="301" y="1443" on="0"/>
        <pt x="269" y="1443" on="1"/>
        <pt x="264" y="1451" on="0"/>
        <pt x="273" y="1501" on="0"/>
        <pt x="283" y="1509" on="1"/>
        <pt x="305" y="1508" on="0"/>
        <pt x="418" y="1501" on="0"/>
        <pt x="494" y="1498" on="0"/>
        <pt x="568" y="1498" on="0"/>
        <pt x="646" y="1501" on="0"/>
        <pt x="758" y="1508" on="0"/>
        <pt x="782" y="1509" on="1"/>
        <pt x="788" y="1500" on="0"/>
        <pt x="777" y="1452" on="0"/>
        <pt x="768" y="1443" on="1"/>
        <pt x="736" y="1443" on="0"/>
        <pt x="623" y="1423" on="0"/>
        <pt x="616" y="1407" on="1"/>
        <pt x="612" y="1400" on="0"/>
        <pt x="606" y="1383" on="0"/>
        <pt x="601" y="1368" on="0"/>
        <pt x="594" y="1342" on="0"/>
        <pt x="590" y="1328" on="0"/>
        <pt x="584" y="1295" on="0"/>
        <pt x="581" y="1282" on="0"/>
        <pt x="573" y="1244" on="0"/>
        <pt x="572" y="1238" on="1"/>
        <pt x="383" y="264" on="1"/>
        <pt x="382" y="260" on="0"/>
        <pt x="380" y="251" on="1"/>
        <pt x="356" y="130" on="0"/>
        <pt x="360" y="96" on="1"/>
        <pt x="362" y="79" on="0"/>
        <pt x="468" y="59" on="0"/>
        <pt x="499" y="59" on="1"/>
        <pt x="505" y="51" on="0"/>
        <pt x="496" y="1" on="0"/>
        <pt x="486" y="-7" on="1"/>
        <pt x="462" y="-6" on="0"/>
        <pt x="354" y="1" on="0"/>
        <pt x="279" y="5" on="0"/>
        <pt x="205" y="5" on="0"/>
        <pt x="127" y="1" on="0"/>
        <pt x="12" y="-6" on="0"/>
        <pt x="-11" y="-7" on="1"/>
      </contour>
      <contour>
        <pt x="333" y="1644" on="1"/>
        <pt x="493" y="1764" on="0"/>
        <pt x="634" y="1890" on="1"/>
        <pt x="654" y="1906" on="0"/>
        <pt x="666" y="1906" on="1"/>
        <pt x="681" y="1906" on="0"/>
        <pt x="689" y="1890" on="1"/>
        <pt x="766" y="1765" on="0"/>
        <pt x="866" y="1644" on="1"/>
        <pt x="866" y="1640" on="0"/>
        <pt x="861" y="1633" on="0"/>
        <pt x="854" y="1627" on="0"/>
        <pt x="845" y="1623" on="0"/>
        <pt x="836" y="1621" on="0"/>
        <pt x="832" y="1621" on="1"/>
        <pt x="629" y="1756" on="1"/>
        <pt x="465" y="1676" on="0"/>
        <pt x="356" y="1621" on="1"/>
        <pt x="351" y="1621" on="0"/>
        <pt x="342" y="1624" on="0"/>
        <pt x="335" y="1630" on="0"/>
        <pt x="332" y="1639" on="0"/>
      </contour>
    </TTGlyph>
    <TTGlyph name="Idieresis" xMin="-18" yMin="-7" xMax="889" yMax="1899">
      <contour>
        <pt x="-18" y="2" on="0"/>
        <pt x="-9" y="50" on="0"/>
        <pt x="0" y="59" on="1"/>
        <pt x="7" y="59" on="0"/>
        <pt x="32" y="61" on="0"/>
        <pt x="65" y="65" on="0"/>
        <pt x="100" y="71" on="0"/>
        <pt x="130" y="79" on="0"/>
        <pt x="152" y="90" on="0"/>
        <pt x="155" y="96" on="1"/>
        <pt x="158" y="102" on="0"/>
        <pt x="165" y="120" on="0"/>
        <pt x="170" y="135" on="0"/>
        <pt x="176" y="160" on="0"/>
        <pt x="180" y="175" on="0"/>
        <pt x="187" y="207" on="0"/>
        <pt x="190" y="221" on="0"/>
        <pt x="197" y="259" on="0"/>
        <pt x="198" y="264" on="1"/>
        <pt x="388" y="1238" on="1"/>
        <pt x="413" y="1366" on="0"/>
        <pt x="408" y="1407" on="1"/>
        <pt x="407" y="1423" on="0"/>
        <pt x="301" y="1443" on="0"/>
        <pt x="269" y="1443" on="1"/>
        <pt x="264" y="1451" on="0"/>
        <pt x="273" y="1501" on="0"/>
        <pt x="283" y="1509" on="1"/>
        <pt x="305" y="1508" on="0"/>
        <pt x="418" y="1501" on="0"/>
        <pt x="494" y="1498" on="0"/>
        <pt x="568" y="1498" on="0"/>
        <pt x="646" y="1501" on="0"/>
        <pt x="758" y="1508" on="0"/>
        <pt x="782" y="1509" on="1"/>
        <pt x="788" y="1500" on="0"/>
        <pt x="777" y="1452" on="0"/>
        <pt x="768" y="1443" on="1"/>
        <pt x="736" y="1443" on="0"/>
        <pt x="623" y="1423" on="0"/>
        <pt x="616" y="1407" on="1"/>
        <pt x="612" y="1400" on="0"/>
        <pt x="606" y="1383" on="0"/>
        <pt x="601" y="1368" on="0"/>
        <pt x="594" y="1342" on="0"/>
        <pt x="590" y="1328" on="0"/>
        <pt x="584" y="1295" on="0"/>
        <pt x="581" y="1282" on="0"/>
        <pt x="573" y="1244" on="0"/>
        <pt x="572" y="1238" on="1"/>
        <pt x="383" y="264" on="1"/>
        <pt x="382" y="260" on="0"/>
        <pt x="380" y="251" on="1"/>
        <pt x="356" y="130" on="0"/>
        <pt x="360" y="96" on="1"/>
        <pt x="362" y="79" on="0"/>
        <pt x="468" y="59" on="0"/>
        <pt x="499" y="59" on="1"/>
        <pt x="505" y="51" on="0"/>
        <pt x="496" y="1" on="0"/>
        <pt x="486" y="-7" on="1"/>
        <pt x="462" y="-6" on="0"/>
        <pt x="354" y="1" on="0"/>
        <pt x="279" y="5" on="0"/>
        <pt x="205" y="5" on="0"/>
        <pt x="127" y="1" on="0"/>
        <pt x="12" y="-6" on="0"/>
        <pt x="-11" y="-7" on="1"/>
      </contour>
      <contour>
        <pt x="286" y="1752" on="0"/>
        <pt x="303" y="1837" on="0"/>
        <pt x="375" y="1899" on="0"/>
        <pt x="415" y="1899" on="1"/>
        <pt x="454" y="1899" on="0"/>
        <pt x="501" y="1835" on="0"/>
        <pt x="492" y="1792" on="1"/>
        <pt x="484" y="1750" on="0"/>
        <pt x="414" y="1689" on="0"/>
        <pt x="334" y="1689" on="0"/>
      </contour>
      <contour>
        <pt x="673" y="1752" on="0"/>
        <pt x="690" y="1837" on="0"/>
        <pt x="765" y="1899" on="0"/>
        <pt x="805" y="1899" on="1"/>
        <pt x="844" y="1899" on="0"/>
        <pt x="889" y="1835" on="0"/>
        <pt x="880" y="1792" on="1"/>
        <pt x="872" y="1750" on="0"/>
        <pt x="801" y="1689" on="0"/>
        <pt x="722" y="1689" on="0"/>
      </contour>
    </TTGlyph>
    <TTGlyph name="Igrave" xMin="-18" yMin="-7" xMax="788" yMax="1865">
      <contour>
        <pt x="-18" y="2" on="0"/>
        <pt x="-9" y="50" on="0"/>
        <pt x="0" y="59" on="1"/>
        <pt x="7" y="59" on="0"/>
        <pt x="32" y="61" on="0"/>
        <pt x="65" y="65" on="0"/>
        <pt x="100" y="71" on="0"/>
        <pt x="130" y="79" on="0"/>
        <pt x="152" y="90" on="0"/>
        <pt x="155" y="96" on="1"/>
        <pt x="158" y="102" on="0"/>
        <pt x="165" y="120" on="0"/>
        <pt x="170" y="135" on="0"/>
        <pt x="176" y="160" on="0"/>
        <pt x="180" y="175" on="0"/>
        <pt x="187" y="207" on="0"/>
        <pt x="190" y="221" on="0"/>
        <pt x="197" y="259" on="0"/>
        <pt x="198" y="264" on="1"/>
        <pt x="388" y="1238" on="1"/>
        <pt x="413" y="1366" on="0"/>
        <pt x="408" y="1407" on="1"/>
        <pt x="407" y="1423" on="0"/>
        <pt x="301" y="1443" on="0"/>
        <pt x="269" y="1443" on="1"/>
        <pt x="264" y="1451" on="0"/>
        <pt x="273" y="1501" on="0"/>
        <pt x="283" y="1509" on="1"/>
        <pt x="305" y="1508" on="0"/>
        <pt x="418" y="1501" on="0"/>
        <pt x="494" y="1498" on="0"/>
        <pt x="568" y="1498" on="0"/>
        <pt x="646" y="1501" on="0"/>
        <pt x="758" y="1508" on="0"/>
        <pt x="782" y="1509" on="1"/>
        <pt x="788" y="1500" on="0"/>
        <pt x="777" y="1452" on="0"/>
        <pt x="768" y="1443" on="1"/>
        <pt x="736" y="1443" on="0"/>
        <pt x="623" y="1423" on="0"/>
        <pt x="616" y="1407" on="1"/>
        <pt x="612" y="1400" on="0"/>
        <pt x="606" y="1383" on="0"/>
        <pt x="601" y="1368" on="0"/>
        <pt x="594" y="1342" on="0"/>
        <pt x="590" y="1328" on="0"/>
        <pt x="584" y="1295" on="0"/>
        <pt x="581" y="1282" on="0"/>
        <pt x="573" y="1244" on="0"/>
        <pt x="572" y="1238" on="1"/>
        <pt x="383" y="264" on="1"/>
        <pt x="382" y="260" on="0"/>
        <pt x="380" y="251" on="1"/>
        <pt x="356" y="130" on="0"/>
        <pt x="360" y="96" on="1"/>
        <pt x="362" y="79" on="0"/>
        <pt x="468" y="59" on="0"/>
        <pt x="499" y="59" on="1"/>
        <pt x="505" y="51" on="0"/>
        <pt x="496" y="1" on="0"/>
        <pt x="486" y="-7" on="1"/>
        <pt x="462" y="-6" on="0"/>
        <pt x="354" y="1" on="0"/>
        <pt x="279" y="5" on="0"/>
        <pt x="205" y="5" on="0"/>
        <pt x="127" y="1" on="0"/>
        <pt x="12" y="-6" on="0"/>
        <pt x="-11" y="-7" on="1"/>
      </contour>
      <contour>
        <pt x="276" y="1815" on="1"/>
        <pt x="276" y="1835" on="0"/>
        <pt x="338" y="1865" on="0"/>
        <pt x="385" y="1865" on="1"/>
        <pt x="398" y="1865" on="0"/>
        <pt x="442" y="1857" on="0"/>
        <pt x="447" y="1854" on="1"/>
        <pt x="491" y="1825" on="0"/>
        <pt x="689" y="1653" on="0"/>
        <pt x="689" y="1642" on="1"/>
        <pt x="689" y="1638" on="0"/>
        <pt x="683" y="1627" on="0"/>
        <pt x="676" y="1619" on="0"/>
        <pt x="675" y="1619" on="1"/>
        <pt x="656" y="1619" on="0"/>
        <pt x="462" y="1692" on="0"/>
        <pt x="276" y="1789" on="0"/>
      </contour>
    </TTGlyph>
    <TTGlyph name="J" xMin="-246" yMin="-531" xMax="772" yMax="1509">
      <contour>
        <pt x="-246" y="-502" on="1"/>
        <pt x="-244" y="-488" on="1"/>
        <pt x="-167" y="-464" on="0"/>
        <pt x="-49" y="-380" on="0"/>
        <pt x="42" y="-262" on="0"/>
        <pt x="113" y="-90" on="0"/>
        <pt x="167" y="112" on="0"/>
        <pt x="192" y="249" on="1"/>
        <pt x="374" y="1238" on="1"/>
        <pt x="376" y="1251" on="0"/>
        <pt x="386" y="1306" on="0"/>
        <pt x="389" y="1327" on="0"/>
        <pt x="396" y="1376" on="0"/>
        <pt x="394" y="1388" on="0"/>
        <pt x="394" y="1407" on="1"/>
        <pt x="393" y="1423" on="0"/>
        <pt x="287" y="1443" on="0"/>
        <pt x="255" y="1443" on="1"/>
        <pt x="250" y="1451" on="0"/>
        <pt x="259" y="1501" on="0"/>
        <pt x="269" y="1509" on="1"/>
        <pt x="291" y="1508" on="0"/>
        <pt x="404" y="1501" on="0"/>
        <pt x="481" y="1498" on="0"/>
        <pt x="554" y="1498" on="0"/>
        <pt x="632" y="1501" on="0"/>
        <pt x="744" y="1508" on="0"/>
        <pt x="768" y="1509" on="1"/>
        <pt x="772" y="1504" on="0"/>
        <pt x="772" y="1494" on="1"/>
        <pt x="772" y="1487" on="0"/>
        <pt x="770" y="1476" on="1"/>
        <pt x="764" y="1452" on="0"/>
        <pt x="755" y="1443" on="1"/>
        <pt x="723" y="1443" on="0"/>
        <pt x="609" y="1423" on="0"/>
        <pt x="602" y="1407" on="1"/>
        <pt x="579" y="1361" on="0"/>
        <pt x="559" y="1238" on="1"/>
        <pt x="374" y="264" on="1"/>
        <pt x="353" y="155" on="0"/>
        <pt x="292" y="-39" on="0"/>
        <pt x="219" y="-189" on="0"/>
        <pt x="137" y="-314" on="0"/>
        <pt x="49" y="-404" on="0"/>
        <pt x="-39" y="-472" on="0"/>
        <pt x="-126" y="-512" on="0"/>
        <pt x="-204" y="-531" on="0"/>
        <pt x="-239" y="-531" on="1"/>
        <pt x="-246" y="-521" on="0"/>
      </contour>
    </TTGlyph>
    <TTGlyph name="K" xMin="-14" yMin="-7" xMax="1519" yMax="1509">
      <contour>
        <pt x="-12" y="26" on="1"/>
        <pt x="-8" y="50" on="0"/>
        <pt x="2" y="59" on="1"/>
        <pt x="34" y="59" on="0"/>
        <pt x="148" y="79" on="0"/>
        <pt x="155" y="96" on="1"/>
        <pt x="158" y="102" on="0"/>
        <pt x="165" y="120" on="0"/>
        <pt x="170" y="135" on="0"/>
        <pt x="176" y="160" on="0"/>
        <pt x="180" y="175" on="0"/>
        <pt x="187" y="207" on="0"/>
        <pt x="190" y="221" on="0"/>
        <pt x="197" y="259" on="0"/>
        <pt x="198" y="264" on="1"/>
        <pt x="388" y="1238" on="1"/>
        <pt x="389" y="1243" on="0"/>
        <pt x="390" y="1252" on="1"/>
        <pt x="411" y="1353" on="0"/>
        <pt x="411" y="1393" on="1"/>
        <pt x="411" y="1401" on="0"/>
        <pt x="410" y="1407" on="1"/>
        <pt x="409" y="1423" on="0"/>
        <pt x="303" y="1443" on="0"/>
        <pt x="271" y="1443" on="1"/>
        <pt x="266" y="1451" on="0"/>
        <pt x="275" y="1501" on="0"/>
        <pt x="285" y="1509" on="1"/>
        <pt x="307" y="1508" on="0"/>
        <pt x="420" y="1501" on="0"/>
        <pt x="497" y="1498" on="0"/>
        <pt x="570" y="1498" on="0"/>
        <pt x="647" y="1501" on="0"/>
        <pt x="757" y="1508" on="0"/>
        <pt x="782" y="1509" on="1"/>
        <pt x="789" y="1501" on="0"/>
        <pt x="779" y="1452" on="0"/>
        <pt x="771" y="1443" on="1"/>
        <pt x="738" y="1443" on="0"/>
        <pt x="623" y="1423" on="0"/>
        <pt x="616" y="1407" on="1"/>
        <pt x="612" y="1400" on="0"/>
        <pt x="606" y="1383" on="0"/>
        <pt x="601" y="1368" on="0"/>
        <pt x="594" y="1342" on="0"/>
        <pt x="590" y="1328" on="0"/>
        <pt x="584" y="1295" on="0"/>
        <pt x="581" y="1282" on="0"/>
        <pt x="573" y="1244" on="0"/>
        <pt x="572" y="1238" on="1"/>
        <pt x="483" y="775" on="1"/>
        <pt x="556" y="818" on="0"/>
        <pt x="766" y="1001" on="1"/>
        <pt x="792" y="1024" on="0"/>
        <pt x="887" y="1106" on="0"/>
        <pt x="910" y="1126" on="0"/>
        <pt x="969" y="1179" on="0"/>
        <pt x="986" y="1197" on="0"/>
        <pt x="1032" y="1243" on="0"/>
        <pt x="1067" y="1281" on="0"/>
        <pt x="1097" y="1313" on="1"/>
        <pt x="1135" y="1357" on="0"/>
        <pt x="1140" y="1384" on="1"/>
        <pt x="1144" y="1404" on="0"/>
        <pt x="1120" y="1430" on="0"/>
        <pt x="1073" y="1439" on="0"/>
        <pt x="1047" y="1441" on="0"/>
        <pt x="1033" y="1441" on="1"/>
        <pt x="1029" y="1451" on="0"/>
        <pt x="1038" y="1494" on="0"/>
        <pt x="1047" y="1509" on="1"/>
        <pt x="1071" y="1508" on="0"/>
        <pt x="1171" y="1500" on="0"/>
        <pt x="1251" y="1496" on="0"/>
        <pt x="1286" y="1496" on="1"/>
        <pt x="1341" y="1496" on="0"/>
        <pt x="1498" y="1508" on="0"/>
        <pt x="1518" y="1509" on="1"/>
        <pt x="1519" y="1505" on="0"/>
        <pt x="1519" y="1500" on="1"/>
        <pt x="1518" y="1488" on="0"/>
        <pt x="1514" y="1469" on="1"/>
        <pt x="1508" y="1441" on="0"/>
        <pt x="1500" y="1441" on="1"/>
        <pt x="1499" y="1441" on="0"/>
        <pt x="1474" y="1439" on="0"/>
        <pt x="1450" y="1436" on="0"/>
        <pt x="1412" y="1430" on="0"/>
        <pt x="1375" y="1418" on="0"/>
        <pt x="1334" y="1401" on="0"/>
        <pt x="1293" y="1374" on="0"/>
        <pt x="1275" y="1357" on="1"/>
        <pt x="1210" y="1295" on="0"/>
        <pt x="1094" y="1187" on="0"/>
        <pt x="970" y="1078" on="0"/>
        <pt x="888" y="1006" on="0"/>
        <pt x="731" y="872" on="0"/>
        <pt x="689" y="834" on="1"/>
        <pt x="671" y="820" on="0"/>
        <pt x="684" y="798" on="1"/>
        <pt x="752" y="685" on="0"/>
        <pt x="801" y="606" on="0"/>
        <pt x="912" y="428" on="0"/>
        <pt x="973" y="335" on="0"/>
        <pt x="1059" y="212" on="0"/>
        <pt x="1097" y="164" on="1"/>
        <pt x="1134" y="118" on="0"/>
        <pt x="1228" y="66" on="0"/>
        <pt x="1306" y="59" on="1"/>
        <pt x="1312" y="52" on="0"/>
        <pt x="1298" y="4" on="0"/>
        <pt x="1293" y="-7" on="1"/>
        <pt x="1057" y="-7" on="0"/>
        <pt x="996" y="18" on="1"/>
        <pt x="921" y="50" on="0"/>
        <pt x="871" y="116" on="1"/>
        <pt x="817" y="191" on="0"/>
        <pt x="506" y="693" on="1"/>
        <pt x="504" y="700" on="0"/>
        <pt x="488" y="700" on="1"/>
        <pt x="477" y="700" on="0"/>
        <pt x="467" y="695" on="1"/>
        <pt x="383" y="264" on="1"/>
        <pt x="362" y="160" on="0"/>
        <pt x="362" y="114" on="1"/>
        <pt x="362" y="103" on="0"/>
        <pt x="363" y="96" on="1"/>
        <pt x="364" y="79" on="0"/>
        <pt x="470" y="59" on="0"/>
        <pt x="502" y="59" on="1"/>
        <pt x="507" y="51" on="0"/>
        <pt x="498" y="1" on="0"/>
        <pt x="488" y="-7" on="1"/>
        <pt x="465" y="-6" on="0"/>
        <pt x="355" y="1" on="0"/>
        <pt x="279" y="5" on="0"/>
        <pt x="205" y="5" on="0"/>
        <pt x="127" y="1" on="0"/>
        <pt x="15" y="-6" on="0"/>
        <pt x="-9" y="-7" on="1"/>
        <pt x="-13" y="-2" on="0"/>
        <pt x="-13" y="10" on="1"/>
        <pt x="-14" y="17" on="0"/>
      </contour>
    </TTGlyph>
    <TTGlyph name="L" xMin="-15" yMin="-9" xMax="1151" yMax="1509">
      <contour>
        <pt x="-12" y="26" on="1"/>
        <pt x="-6" y="50" on="0"/>
        <pt x="2" y="59" on="1"/>
        <pt x="34" y="59" on="0"/>
        <pt x="148" y="79" on="0"/>
        <pt x="155" y="96" on="1"/>
        <pt x="158" y="102" on="0"/>
        <pt x="165" y="120" on="0"/>
        <pt x="170" y="135" on="0"/>
        <pt x="176" y="160" on="0"/>
        <pt x="180" y="175" on="0"/>
        <pt x="187" y="207" on="0"/>
        <pt x="190" y="221" on="0"/>
        <pt x="197" y="259" on="0"/>
        <pt x="198" y="264" on="1"/>
        <pt x="388" y="1238" on="1"/>
        <pt x="389" y="1243" on="0"/>
        <pt x="390" y="1252" on="1"/>
        <pt x="411" y="1353" on="0"/>
        <pt x="411" y="1393" on="1"/>
        <pt x="411" y="1401" on="0"/>
        <pt x="410" y="1407" on="1"/>
        <pt x="409" y="1423" on="0"/>
        <pt x="303" y="1443" on="0"/>
        <pt x="271" y="1443" on="1"/>
        <pt x="266" y="1451" on="0"/>
        <pt x="273" y="1501" on="0"/>
        <pt x="283" y="1509" on="1"/>
        <pt x="305" y="1508" on="0"/>
        <pt x="418" y="1501" on="0"/>
        <pt x="494" y="1498" on="0"/>
        <pt x="568" y="1498" on="0"/>
        <pt x="646" y="1501" on="0"/>
        <pt x="758" y="1508" on="0"/>
        <pt x="782" y="1509" on="1"/>
        <pt x="788" y="1500" on="0"/>
        <pt x="777" y="1452" on="0"/>
        <pt x="768" y="1443" on="1"/>
        <pt x="736" y="1443" on="0"/>
        <pt x="623" y="1423" on="0"/>
        <pt x="616" y="1407" on="1"/>
        <pt x="612" y="1400" on="0"/>
        <pt x="606" y="1383" on="0"/>
        <pt x="601" y="1368" on="0"/>
        <pt x="594" y="1342" on="0"/>
        <pt x="590" y="1328" on="0"/>
        <pt x="584" y="1295" on="0"/>
        <pt x="581" y="1282" on="0"/>
        <pt x="573" y="1244" on="0"/>
        <pt x="572" y="1238" on="1"/>
        <pt x="378" y="255" on="1"/>
        <pt x="357" y="146" on="0"/>
        <pt x="357" y="109" on="1"/>
        <pt x="357" y="94" on="0"/>
        <pt x="360" y="91" on="1"/>
        <pt x="371" y="80" on="0"/>
        <pt x="410" y="70" on="0"/>
        <pt x="453" y="68" on="0"/>
        <pt x="506" y="68" on="1"/>
        <pt x="627" y="68" on="1"/>
        <pt x="689" y="68" on="0"/>
        <pt x="822" y="100" on="0"/>
        <pt x="873" y="130" on="1"/>
        <pt x="984" y="193" on="0"/>
        <pt x="1067" y="369" on="1"/>
        <pt x="1074" y="383" on="0"/>
        <pt x="1101" y="383" on="1"/>
        <pt x="1117" y="383" on="0"/>
        <pt x="1148" y="374" on="0"/>
        <pt x="1151" y="369" on="1"/>
        <pt x="1137" y="341" on="0"/>
        <pt x="1037" y="157" on="0"/>
        <pt x="978" y="36" on="0"/>
        <pt x="962" y="-9" on="1"/>
        <pt x="854" y="-9" on="0"/>
        <pt x="390" y="0" on="0"/>
        <pt x="242" y="0" on="1"/>
        <pt x="189" y="0" on="0"/>
        <pt x="27" y="-7" on="0"/>
        <pt x="-11" y="-7" on="1"/>
        <pt x="-15" y="-2" on="0"/>
        <pt x="-15" y="8" on="1"/>
        <pt x="-14" y="15" on="0"/>
      </contour>
    </TTGlyph>
    <TTGlyph name="M" xMin="-56" yMin="-7" xMax="1956" yMax="1509">
      <contour>
        <pt x="-55" y="-7" on="1"/>
        <pt x="-56" y="-6" on="0"/>
        <pt x="-56" y="-2" on="1"/>
        <pt x="-56" y="6" on="0"/>
        <pt x="-53" y="22" on="1"/>
        <pt x="-49" y="46" on="0"/>
        <pt x="-41" y="59" on="1"/>
        <pt x="-7" y="59" on="0"/>
        <pt x="121" y="81" on="0"/>
        <pt x="137" y="100" on="1"/>
        <pt x="166" y="134" on="0"/>
        <pt x="185" y="214" on="1"/>
        <pt x="229" y="408" on="0"/>
        <pt x="319" y="807" on="0"/>
        <pt x="382" y="1095" on="0"/>
        <pt x="424" y="1288" on="0"/>
        <pt x="426" y="1304" on="1"/>
        <pt x="436" y="1352" on="0"/>
        <pt x="436" y="1379" on="1"/>
        <pt x="436" y="1389" on="0"/>
        <pt x="435" y="1395" on="1"/>
        <pt x="434" y="1413" on="0"/>
        <pt x="324" y="1443" on="0"/>
        <pt x="296" y="1443" on="1"/>
        <pt x="295" y="1448" on="0"/>
        <pt x="296" y="1468" on="0"/>
        <pt x="300" y="1489" on="0"/>
        <pt x="307" y="1507" on="0"/>
        <pt x="310" y="1509" on="1"/>
        <pt x="442" y="1500" on="0"/>
        <pt x="515" y="1500" on="1"/>
        <pt x="604" y="1500" on="0"/>
        <pt x="700" y="1509" on="1"/>
        <pt x="706" y="1446" on="0"/>
        <pt x="821" y="849" on="0"/>
        <pt x="929" y="317" on="0"/>
        <pt x="928" y="317" on="1"/>
        <pt x="927" y="317" on="0"/>
        <pt x="1183" y="776" on="0"/>
        <pt x="1312" y="1006" on="1"/>
        <pt x="1441" y="1236" on="1"/>
        <pt x="1467" y="1282" on="0"/>
        <pt x="1540" y="1419" on="0"/>
        <pt x="1564" y="1464" on="1"/>
        <pt x="1587" y="1509" on="1"/>
        <pt x="1719" y="1500" on="0"/>
        <pt x="1746" y="1500" on="1"/>
        <pt x="1847" y="1500" on="0"/>
        <pt x="1956" y="1509" on="1"/>
        <pt x="1952" y="1443" on="1"/>
        <pt x="1922" y="1443" on="0"/>
        <pt x="1803" y="1417" on="0"/>
        <pt x="1792" y="1402" on="1"/>
        <pt x="1774" y="1369" on="0"/>
        <pt x="1765" y="1316" on="1"/>
        <pt x="1591" y="319" on="1"/>
        <pt x="1572" y="211" on="0"/>
        <pt x="1572" y="145" on="1"/>
        <pt x="1572" y="118" on="0"/>
        <pt x="1578" y="78" on="0"/>
        <pt x="1683" y="59" on="0"/>
        <pt x="1715" y="59" on="1"/>
        <pt x="1719" y="42" on="0"/>
        <pt x="1712" y="0" on="0"/>
        <pt x="1708" y="-7" on="1"/>
        <pt x="1688" y="-6" on="0"/>
        <pt x="1577" y="1" on="0"/>
        <pt x="1499" y="5" on="0"/>
        <pt x="1457" y="5" on="1"/>
        <pt x="1413" y="5" on="0"/>
        <pt x="1334" y="1" on="0"/>
        <pt x="1232" y="-5" on="0"/>
        <pt x="1199" y="-7" on="1"/>
        <pt x="1197" y="-2" on="0"/>
        <pt x="1205" y="47" on="0"/>
        <pt x="1213" y="59" on="1"/>
        <pt x="1238" y="59" on="0"/>
        <pt x="1337" y="74" on="0"/>
        <pt x="1357" y="84" on="1"/>
        <pt x="1375" y="95" on="0"/>
        <pt x="1393" y="180" on="1"/>
        <pt x="1396" y="194" on="0"/>
        <pt x="1453" y="546" on="0"/>
        <pt x="1545" y="1121" on="0"/>
        <pt x="1573" y="1290" on="1"/>
        <pt x="1560" y="1269" on="0"/>
        <pt x="1226" y="680" on="0"/>
        <pt x="1066" y="396" on="1"/>
        <pt x="905" y="112" on="1"/>
        <pt x="892" y="89" on="0"/>
        <pt x="819" y="-2" on="0"/>
        <pt x="803" y="-5" on="1"/>
        <pt x="801" y="-6" on="0"/>
        <pt x="795" y="-5" on="0"/>
        <pt x="792" y="-3" on="0"/>
        <pt x="786" y="-1" on="0"/>
        <pt x="784" y="0" on="1"/>
        <pt x="524" y="1332" on="1"/>
        <pt x="495" y="1193" on="0"/>
        <pt x="422" y="855" on="0"/>
        <pt x="360" y="571" on="0"/>
        <pt x="305" y="326" on="0"/>
        <pt x="272" y="176" on="0"/>
        <pt x="271" y="171" on="1"/>
        <pt x="266" y="145" on="0"/>
        <pt x="266" y="122" on="1"/>
        <pt x="266" y="111" on="0"/>
        <pt x="267" y="100" on="1"/>
        <pt x="270" y="85" on="0"/>
        <pt x="347" y="65" on="0"/>
        <pt x="410" y="59" on="0"/>
        <pt x="426" y="59" on="1"/>
        <pt x="430" y="51" on="0"/>
        <pt x="427" y="24" on="0"/>
        <pt x="420" y="-3" on="0"/>
        <pt x="417" y="-7" on="1"/>
        <pt x="389" y="-5" on="0"/>
        <pt x="306" y="1" on="0"/>
        <pt x="238" y="5" on="0"/>
        <pt x="196" y="5" on="1"/>
        <pt x="152" y="5" on="0"/>
        <pt x="76" y="1" on="0"/>
        <pt x="-21" y="-5" on="0"/>
      </contour>
    </TTGlyph>
    <TTGlyph name="N" xMin="-30" yMin="-11" xMax="1766" yMax="1509">
      <contour>
        <pt x="-28" y="21" on="1"/>
        <pt x="-24" y="42" on="0"/>
        <pt x="-14" y="59" on="1"/>
        <pt x="16" y="59" on="0"/>
        <pt x="146" y="87" on="0"/>
        <pt x="160" y="105" on="1"/>
        <pt x="178" y="130" on="0"/>
        <pt x="200" y="195" on="0"/>
        <pt x="212" y="260" on="1"/>
        <pt x="404" y="1249" on="1"/>
        <pt x="416" y="1319" on="0"/>
        <pt x="420" y="1374" on="0"/>
        <pt x="413" y="1404" on="1"/>
        <pt x="407" y="1422" on="0"/>
        <pt x="291" y="1443" on="0"/>
        <pt x="258" y="1443" on="1"/>
        <pt x="253" y="1463" on="0"/>
        <pt x="261" y="1500" on="0"/>
        <pt x="269" y="1509" on="1"/>
        <pt x="299" y="1508" on="0"/>
        <pt x="359" y="1504" on="0"/>
        <pt x="393" y="1502" on="0"/>
        <pt x="438" y="1500" on="0"/>
        <pt x="463" y="1500" on="1"/>
        <pt x="531" y="1500" on="0"/>
        <pt x="650" y="1509" on="1"/>
        <pt x="680" y="1434" on="0"/>
        <pt x="914" y="1017" on="0"/>
        <pt x="1194" y="517" on="0"/>
        <pt x="1263" y="369" on="1"/>
        <pt x="1432" y="1233" on="1"/>
        <pt x="1444" y="1299" on="0"/>
        <pt x="1446" y="1333" on="1"/>
        <pt x="1446" y="1338" on="0"/>
        <pt x="1447" y="1343" on="1"/>
        <pt x="1447" y="1372" on="0"/>
        <pt x="1439" y="1398" on="1"/>
        <pt x="1431" y="1419" on="0"/>
        <pt x="1323" y="1443" on="0"/>
        <pt x="1286" y="1443" on="1"/>
        <pt x="1281" y="1456" on="0"/>
        <pt x="1287" y="1500" on="0"/>
        <pt x="1293" y="1509" on="1"/>
        <pt x="1461" y="1500" on="0"/>
        <pt x="1525" y="1500" on="1"/>
        <pt x="1560" y="1500" on="0"/>
        <pt x="1622" y="1502" on="0"/>
        <pt x="1663" y="1504" on="0"/>
        <pt x="1735" y="1508" on="0"/>
        <pt x="1762" y="1509" on="1"/>
        <pt x="1766" y="1504" on="0"/>
        <pt x="1766" y="1491" on="1"/>
        <pt x="1766" y="1488" on="0"/>
        <pt x="1766" y="1482" on="1"/>
        <pt x="1764" y="1460" on="0"/>
        <pt x="1753" y="1443" on="1"/>
        <pt x="1723" y="1443" on="0"/>
        <pt x="1596" y="1418" on="0"/>
        <pt x="1582" y="1400" on="1"/>
        <pt x="1564" y="1375" on="0"/>
        <pt x="1545" y="1313" on="0"/>
        <pt x="1532" y="1245" on="1"/>
        <pt x="1352" y="317" on="1"/>
        <pt x="1310" y="97" on="0"/>
        <pt x="1295" y="-2" on="1"/>
        <pt x="1286" y="-11" on="0"/>
        <pt x="1256" y="-11" on="1"/>
        <pt x="1242" y="-11" on="0"/>
        <pt x="1206" y="18" on="0"/>
        <pt x="1195" y="41" on="1"/>
        <pt x="511" y="1297" on="1"/>
        <pt x="310" y="262" on="1"/>
        <pt x="301" y="214" on="0"/>
        <pt x="294" y="168" on="0"/>
        <pt x="294" y="123" on="0"/>
        <pt x="301" y="105" on="1"/>
        <pt x="305" y="94" on="0"/>
        <pt x="368" y="72" on="0"/>
        <pt x="436" y="59" on="0"/>
        <pt x="454" y="59" on="1"/>
        <pt x="458" y="45" on="0"/>
        <pt x="451" y="5" on="0"/>
        <pt x="445" y="-7" on="1"/>
        <pt x="420" y="-5" on="0"/>
        <pt x="324" y="1" on="0"/>
        <pt x="249" y="5" on="0"/>
        <pt x="207" y="5" on="1"/>
        <pt x="164" y="5" on="0"/>
        <pt x="94" y="1" on="0"/>
        <pt x="8" y="-5" on="0"/>
        <pt x="-27" y="-7" on="1"/>
        <pt x="-30" y="-3" on="0"/>
        <pt x="-30" y="6" on="1"/>
        <pt x="-29" y="12" on="0"/>
      </contour>
    </TTGlyph>
    <TTGlyph name="Ntilde" xMin="-32" yMin="-11" xMax="1767" yMax="1867">
      <contour>
        <pt x="-32" y="0" on="0"/>
        <pt x="-25" y="42" on="0"/>
        <pt x="-14" y="59" on="1"/>
        <pt x="16" y="59" on="0"/>
        <pt x="146" y="87" on="0"/>
        <pt x="160" y="105" on="1"/>
        <pt x="178" y="130" on="0"/>
        <pt x="200" y="195" on="0"/>
        <pt x="212" y="260" on="1"/>
        <pt x="404" y="1249" on="1"/>
        <pt x="416" y="1319" on="0"/>
        <pt x="420" y="1374" on="0"/>
        <pt x="413" y="1404" on="1"/>
        <pt x="407" y="1422" on="0"/>
        <pt x="291" y="1443" on="0"/>
        <pt x="258" y="1443" on="1"/>
        <pt x="253" y="1463" on="0"/>
        <pt x="261" y="1500" on="0"/>
        <pt x="269" y="1509" on="1"/>
        <pt x="299" y="1508" on="0"/>
        <pt x="359" y="1504" on="0"/>
        <pt x="393" y="1502" on="0"/>
        <pt x="438" y="1500" on="0"/>
        <pt x="463" y="1500" on="1"/>
        <pt x="531" y="1500" on="0"/>
        <pt x="650" y="1509" on="1"/>
        <pt x="680" y="1434" on="0"/>
        <pt x="914" y="1017" on="0"/>
        <pt x="1194" y="517" on="0"/>
        <pt x="1263" y="369" on="1"/>
        <pt x="1432" y="1233" on="1"/>
        <pt x="1445" y="1299" on="0"/>
        <pt x="1448" y="1367" on="0"/>
        <pt x="1439" y="1398" on="1"/>
        <pt x="1431" y="1419" on="0"/>
        <pt x="1323" y="1443" on="0"/>
        <pt x="1286" y="1443" on="1"/>
        <pt x="1281" y="1456" on="0"/>
        <pt x="1287" y="1500" on="0"/>
        <pt x="1293" y="1509" on="1"/>
        <pt x="1461" y="1500" on="0"/>
        <pt x="1525" y="1500" on="1"/>
        <pt x="1560" y="1500" on="0"/>
        <pt x="1622" y="1502" on="0"/>
        <pt x="1663" y="1504" on="0"/>
        <pt x="1735" y="1508" on="0"/>
        <pt x="1762" y="1509" on="1"/>
        <pt x="1767" y="1503" on="0"/>
        <pt x="1764" y="1460" on="0"/>
        <pt x="1753" y="1443" on="1"/>
        <pt x="1723" y="1443" on="0"/>
        <pt x="1596" y="1418" on="0"/>
        <pt x="1582" y="1400" on="1"/>
        <pt x="1564" y="1375" on="0"/>
        <pt x="1545" y="1313" on="0"/>
        <pt x="1532" y="1245" on="1"/>
        <pt x="1352" y="317" on="1"/>
        <pt x="1310" y="97" on="0"/>
        <pt x="1295" y="-2" on="1"/>
        <pt x="1286" y="-11" on="0"/>
        <pt x="1256" y="-11" on="1"/>
        <pt x="1242" y="-11" on="0"/>
        <pt x="1206" y="18" on="0"/>
        <pt x="1195" y="41" on="1"/>
        <pt x="511" y="1297" on="1"/>
        <pt x="310" y="262" on="1"/>
        <pt x="301" y="214" on="0"/>
        <pt x="294" y="168" on="0"/>
        <pt x="294" y="123" on="0"/>
        <pt x="301" y="105" on="1"/>
        <pt x="305" y="94" on="0"/>
        <pt x="368" y="72" on="0"/>
        <pt x="436" y="59" on="0"/>
        <pt x="454" y="59" on="1"/>
        <pt x="458" y="45" on="0"/>
        <pt x="451" y="5" on="0"/>
        <pt x="445" y="-7" on="1"/>
        <pt x="420" y="-5" on="0"/>
        <pt x="324" y="1" on="0"/>
        <pt x="249" y="5" on="0"/>
        <pt x="207" y="5" on="1"/>
        <pt x="164" y="5" on="0"/>
        <pt x="94" y="1" on="0"/>
        <pt x="8" y="-5" on="0"/>
        <pt x="-27" y="-7" on="1"/>
      </contour>
      <contour>
        <pt x="663" y="1708" on="1"/>
        <pt x="663" y="1749" on="0"/>
        <pt x="707" y="1792" on="1"/>
        <pt x="785" y="1867" on="0"/>
        <pt x="885" y="1867" on="1"/>
        <pt x="929" y="1867" on="0"/>
        <pt x="990" y="1855" on="0"/>
        <pt x="1024" y="1835" on="1"/>
        <pt x="1057" y="1816" on="0"/>
        <pt x="1090" y="1799" on="0"/>
        <pt x="1155" y="1781" on="0"/>
        <pt x="1188" y="1781" on="1"/>
        <pt x="1262" y="1781" on="0"/>
        <pt x="1336" y="1867" on="1"/>
        <pt x="1350" y="1863" on="0"/>
        <pt x="1350" y="1845" on="1"/>
        <pt x="1350" y="1801" on="0"/>
        <pt x="1309" y="1760" on="1"/>
        <pt x="1230" y="1685" on="0"/>
        <pt x="1131" y="1685" on="1"/>
        <pt x="1086" y="1685" on="0"/>
        <pt x="1026" y="1698" on="0"/>
        <pt x="992" y="1717" on="1"/>
        <pt x="958" y="1736" on="0"/>
        <pt x="925" y="1753" on="0"/>
        <pt x="861" y="1772" on="0"/>
        <pt x="828" y="1772" on="1"/>
        <pt x="754" y="1772" on="0"/>
        <pt x="679" y="1685" on="1"/>
        <pt x="663" y="1690" on="0"/>
      </contour>
    </TTGlyph>
    <TTGlyph name="O" xMin="139" yMin="-25" xMax="1532" yMax="1516">
      <contour>
        <pt x="139" y="622" on="1"/>
        <pt x="139" y="751" on="0"/>
        <pt x="201" y="990" on="0"/>
        <pt x="311" y="1185" on="0"/>
        <pt x="463" y="1347" on="0"/>
        <pt x="642" y="1456" on="0"/>
        <pt x="843" y="1516" on="0"/>
        <pt x="946" y="1516" on="1"/>
        <pt x="1079" y="1516" on="0"/>
        <pt x="1300" y="1417" on="0"/>
        <pt x="1449" y="1244" on="0"/>
        <pt x="1532" y="1007" on="0"/>
        <pt x="1532" y="871" on="1"/>
        <pt x="1532" y="740" on="0"/>
        <pt x="1474" y="499" on="0"/>
        <pt x="1368" y="303" on="0"/>
        <pt x="1219" y="143" on="0"/>
        <pt x="1042" y="34" on="0"/>
        <pt x="836" y="-25" on="0"/>
        <pt x="727" y="-25" on="1"/>
        <pt x="592" y="-25" on="0"/>
        <pt x="368" y="76" on="0"/>
        <pt x="220" y="251" on="0"/>
        <pt x="139" y="487" on="0"/>
      </contour>
      <contour>
        <pt x="353" y="611" on="1"/>
        <pt x="353" y="552" on="0"/>
        <pt x="364" y="441" on="0"/>
        <pt x="390" y="326" on="0"/>
        <pt x="430" y="227" on="0"/>
        <pt x="493" y="139" on="0"/>
        <pt x="573" y="77" on="0"/>
        <pt x="683" y="41" on="0"/>
        <pt x="748" y="41" on="1"/>
        <pt x="833" y="41" on="0"/>
        <pt x="989" y="111" on="0"/>
        <pt x="1113" y="233" on="0"/>
        <pt x="1214" y="398" on="0"/>
        <pt x="1281" y="588" on="0"/>
        <pt x="1318" y="794" on="0"/>
        <pt x="1318" y="896" on="1"/>
        <pt x="1318" y="946" on="0"/>
        <pt x="1308" y="1045" on="0"/>
        <pt x="1284" y="1157" on="0"/>
        <pt x="1246" y="1254" on="0"/>
        <pt x="1184" y="1345" on="0"/>
        <pt x="1105" y="1409" on="0"/>
        <pt x="992" y="1448" on="0"/>
        <pt x="926" y="1448" on="1"/>
        <pt x="840" y="1448" on="0"/>
        <pt x="672" y="1367" on="0"/>
        <pt x="528" y="1214" on="0"/>
        <pt x="417" y="1012" on="0"/>
        <pt x="353" y="751" on="0"/>
      </contour>
    </TTGlyph>
    <TTGlyph name="OE" xMin="130" yMin="-25" xMax="2038" yMax="1518">
      <contour>
        <pt x="130" y="625" on="1"/>
        <pt x="130" y="746" on="0"/>
        <pt x="188" y="976" on="0"/>
        <pt x="291" y="1173" on="0"/>
        <pt x="440" y="1338" on="0"/>
        <pt x="618" y="1454" on="0"/>
        <pt x="830" y="1518" on="0"/>
        <pt x="942" y="1518" on="1"/>
        <pt x="1024" y="1518" on="0"/>
        <pt x="1296" y="1497" on="0"/>
        <pt x="1368" y="1498" on="1"/>
        <pt x="1463" y="1498" on="0"/>
        <pt x="1917" y="1514" on="0"/>
        <pt x="2036" y="1514" on="1"/>
        <pt x="2031" y="1486" on="0"/>
        <pt x="2038" y="1223" on="0"/>
        <pt x="2038" y="1204" on="1"/>
        <pt x="2027" y="1192" on="0"/>
        <pt x="1997" y="1192" on="1"/>
        <pt x="1972" y="1192" on="0"/>
        <pt x="1972" y="1208" on="1"/>
        <pt x="1968" y="1275" on="0"/>
        <pt x="1936" y="1366" on="0"/>
        <pt x="1882" y="1416" on="0"/>
        <pt x="1816" y="1436" on="0"/>
        <pt x="1772" y="1436" on="1"/>
        <pt x="1589" y="1436" on="1"/>
        <pt x="1567" y="1436" on="0"/>
        <pt x="1513" y="1434" on="0"/>
        <pt x="1444" y="1422" on="0"/>
        <pt x="1439" y="1411" on="1"/>
        <pt x="1415" y="1363" on="0"/>
        <pt x="1393" y="1247" on="1"/>
        <pt x="1309" y="809" on="1"/>
        <pt x="1307" y="802" on="0"/>
        <pt x="1357" y="796" on="0"/>
        <pt x="1398" y="796" on="1"/>
        <pt x="1509" y="796" on="1"/>
        <pt x="1549" y="796" on="0"/>
        <pt x="1598" y="796" on="0"/>
        <pt x="1647" y="804" on="0"/>
        <pt x="1673" y="808" on="0"/>
        <pt x="1703" y="829" on="0"/>
        <pt x="1716" y="842" on="0"/>
        <pt x="1739" y="881" on="0"/>
        <pt x="1751" y="908" on="0"/>
        <pt x="1765" y="939" on="1"/>
        <pt x="1771" y="952" on="0"/>
        <pt x="1774" y="960" on="1"/>
        <pt x="1780" y="976" on="0"/>
        <pt x="1810" y="976" on="1"/>
        <pt x="1835" y="976" on="0"/>
        <pt x="1842" y="964" on="1"/>
        <pt x="1760" y="534" on="1"/>
        <pt x="1751" y="524" on="0"/>
        <pt x="1724" y="524" on="1"/>
        <pt x="1698" y="524" on="0"/>
        <pt x="1694" y="543" on="1"/>
        <pt x="1689" y="634" on="0"/>
        <pt x="1677" y="691" on="0"/>
        <pt x="1664" y="702" on="1"/>
        <pt x="1641" y="720" on="0"/>
        <pt x="1443" y="720" on="1"/>
        <pt x="1290" y="720" on="0"/>
        <pt x="1286" y="700" on="1"/>
        <pt x="1197" y="249" on="1"/>
        <pt x="1194" y="231" on="0"/>
        <pt x="1187" y="191" on="0"/>
        <pt x="1178" y="132" on="0"/>
        <pt x="1178" y="100" on="0"/>
        <pt x="1181" y="91" on="1"/>
        <pt x="1190" y="83" on="0"/>
        <pt x="1210" y="73" on="0"/>
        <pt x="1251" y="69" on="0"/>
        <pt x="1286" y="68" on="0"/>
        <pt x="1327" y="68" on="1"/>
        <pt x="1427" y="68" on="1"/>
        <pt x="1602" y="68" on="0"/>
        <pt x="1710" y="139" on="1"/>
        <pt x="1811" y="206" on="0"/>
        <pt x="1888" y="369" on="1"/>
        <pt x="1895" y="383" on="0"/>
        <pt x="1922" y="383" on="1"/>
        <pt x="1937" y="383" on="0"/>
        <pt x="1969" y="374" on="0"/>
        <pt x="1972" y="369" on="1"/>
        <pt x="1958" y="341" on="0"/>
        <pt x="1857" y="157" on="0"/>
        <pt x="1798" y="36" on="0"/>
        <pt x="1783" y="-9" on="1"/>
        <pt x="1697" y="-9" on="0"/>
        <pt x="1220" y="3" on="0"/>
        <pt x="1062" y="0" on="1"/>
        <pt x="996" y="-1" on="0"/>
        <pt x="776" y="-25" on="0"/>
        <pt x="741" y="-25" on="1"/>
        <pt x="639" y="-25" on="0"/>
        <pt x="463" y="23" on="0"/>
        <pt x="331" y="111" on="0"/>
        <pt x="228" y="230" on="0"/>
        <pt x="163" y="376" on="0"/>
        <pt x="130" y="538" on="0"/>
      </contour>
      <contour>
        <pt x="344" y="620" on="1"/>
        <pt x="344" y="341" on="0"/>
        <pt x="548" y="41" on="0"/>
        <pt x="741" y="41" on="1"/>
        <pt x="800" y="41" on="0"/>
        <pt x="893" y="64" on="0"/>
        <pt x="946" y="100" on="0"/>
        <pt x="972" y="129" on="0"/>
        <pt x="978" y="141" on="1"/>
        <pt x="984" y="153" on="0"/>
        <pt x="989" y="164" on="0"/>
        <pt x="998" y="184" on="0"/>
        <pt x="1003" y="199" on="0"/>
        <pt x="1010" y="221" on="0"/>
        <pt x="1016" y="248" on="0"/>
        <pt x="1019" y="264" on="1"/>
        <pt x="1208" y="1270" on="1"/>
        <pt x="1216" y="1311" on="0"/>
        <pt x="1185" y="1376" on="0"/>
        <pt x="1126" y="1415" on="0"/>
        <pt x="1042" y="1441" on="0"/>
        <pt x="962" y="1450" on="0"/>
        <pt x="921" y="1450" on="1"/>
        <pt x="837" y="1450" on="0"/>
        <pt x="681" y="1382" on="0"/>
        <pt x="556" y="1263" on="0"/>
        <pt x="452" y="1102" on="0"/>
        <pt x="382" y="918" on="0"/>
        <pt x="344" y="718" on="0"/>
      </contour>
    </TTGlyph>
    <TTGlyph name="Oacute" xMin="139" yMin="-25" xMax="1532" yMax="1867">
      <contour>
        <pt x="139" y="622" on="1"/>
        <pt x="139" y="751" on="0"/>
        <pt x="201" y="990" on="0"/>
        <pt x="311" y="1185" on="0"/>
        <pt x="463" y="1347" on="0"/>
        <pt x="642" y="1456" on="0"/>
        <pt x="843" y="1516" on="0"/>
        <pt x="946" y="1516" on="1"/>
        <pt x="1079" y="1516" on="0"/>
        <pt x="1300" y="1417" on="0"/>
        <pt x="1449" y="1244" on="0"/>
        <pt x="1532" y="1007" on="0"/>
        <pt x="1532" y="871" on="1"/>
        <pt x="1532" y="740" on="0"/>
        <pt x="1474" y="499" on="0"/>
        <pt x="1368" y="303" on="0"/>
        <pt x="1219" y="143" on="0"/>
        <pt x="1042" y="34" on="0"/>
        <pt x="836" y="-25" on="0"/>
        <pt x="727" y="-25" on="1"/>
        <pt x="592" y="-25" on="0"/>
        <pt x="368" y="76" on="0"/>
        <pt x="220" y="251" on="0"/>
        <pt x="139" y="487" on="0"/>
      </contour>
      <contour>
        <pt x="353" y="611" on="1"/>
        <pt x="353" y="552" on="0"/>
        <pt x="364" y="441" on="0"/>
        <pt x="390" y="326" on="0"/>
        <pt x="430" y="227" on="0"/>
        <pt x="493" y="139" on="0"/>
        <pt x="573" y="77" on="0"/>
        <pt x="683" y="41" on="0"/>
        <pt x="748" y="41" on="1"/>
        <pt x="833" y="41" on="0"/>
        <pt x="989" y="111" on="0"/>
        <pt x="1113" y="233" on="0"/>
        <pt x="1214" y="398" on="0"/>
        <pt x="1281" y="588" on="0"/>
        <pt x="1318" y="794" on="0"/>
        <pt x="1318" y="896" on="1"/>
        <pt x="1318" y="946" on="0"/>
        <pt x="1308" y="1045" on="0"/>
        <pt x="1284" y="1157" on="0"/>
        <pt x="1246" y="1254" on="0"/>
        <pt x="1184" y="1345" on="0"/>
        <pt x="1105" y="1409" on="0"/>
        <pt x="992" y="1448" on="0"/>
        <pt x="926" y="1448" on="1"/>
        <pt x="840" y="1448" on="0"/>
        <pt x="672" y="1367" on="0"/>
        <pt x="528" y="1214" on="0"/>
        <pt x="417" y="1012" on="0"/>
        <pt x="353" y="751" on="0"/>
      </contour>
      <contour>
        <pt x="805" y="1644" on="1"/>
        <pt x="805" y="1656" on="0"/>
        <pt x="1002" y="1828" on="0"/>
        <pt x="1047" y="1856" on="1"/>
        <pt x="1052" y="1859" on="0"/>
        <pt x="1096" y="1867" on="0"/>
        <pt x="1108" y="1867" on="1"/>
        <pt x="1156" y="1867" on="0"/>
        <pt x="1218" y="1837" on="0"/>
        <pt x="1218" y="1817" on="1"/>
        <pt x="1218" y="1791" on="0"/>
        <pt x="1031" y="1694" on="0"/>
        <pt x="838" y="1621" on="0"/>
        <pt x="819" y="1621" on="1"/>
        <pt x="817" y="1621" on="0"/>
        <pt x="805" y="1639" on="0"/>
      </contour>
    </TTGlyph>
    <TTGlyph name="Ocircumflex" xMin="139" yMin="-25" xMax="1532" yMax="1906">
      <contour>
        <pt x="139" y="622" on="1"/>
        <pt x="139" y="751" on="0"/>
        <pt x="201" y="990" on="0"/>
        <pt x="311" y="1185" on="0"/>
        <pt x="463" y="1347" on="0"/>
        <pt x="642" y="1456" on="0"/>
        <pt x="843" y="1516" on="0"/>
        <pt x="946" y="1516" on="1"/>
        <pt x="1079" y="1516" on="0"/>
        <pt x="1300" y="1417" on="0"/>
        <pt x="1449" y="1244" on="0"/>
        <pt x="1532" y="1007" on="0"/>
        <pt x="1532" y="871" on="1"/>
        <pt x="1532" y="740" on="0"/>
        <pt x="1474" y="499" on="0"/>
        <pt x="1368" y="303" on="0"/>
        <pt x="1219" y="143" on="0"/>
        <pt x="1042" y="34" on="0"/>
        <pt x="836" y="-25" on="0"/>
        <pt x="727" y="-25" on="1"/>
        <pt x="592" y="-25" on="0"/>
        <pt x="368" y="76" on="0"/>
        <pt x="220" y="251" on="0"/>
        <pt x="139" y="487" on="0"/>
      </contour>
      <contour>
        <pt x="353" y="611" on="1"/>
        <pt x="353" y="552" on="0"/>
        <pt x="364" y="441" on="0"/>
        <pt x="390" y="326" on="0"/>
        <pt x="430" y="227" on="0"/>
        <pt x="493" y="139" on="0"/>
        <pt x="573" y="77" on="0"/>
        <pt x="683" y="41" on="0"/>
        <pt x="748" y="41" on="1"/>
        <pt x="833" y="41" on="0"/>
        <pt x="989" y="111" on="0"/>
        <pt x="1113" y="233" on="0"/>
        <pt x="1214" y="398" on="0"/>
        <pt x="1281" y="588" on="0"/>
        <pt x="1318" y="794" on="0"/>
        <pt x="1318" y="896" on="1"/>
        <pt x="1318" y="946" on="0"/>
        <pt x="1308" y="1045" on="0"/>
        <pt x="1284" y="1157" on="0"/>
        <pt x="1246" y="1254" on="0"/>
        <pt x="1184" y="1345" on="0"/>
        <pt x="1105" y="1409" on="0"/>
        <pt x="992" y="1448" on="0"/>
        <pt x="926" y="1448" on="1"/>
        <pt x="840" y="1448" on="0"/>
        <pt x="672" y="1367" on="0"/>
        <pt x="528" y="1214" on="0"/>
        <pt x="417" y="1012" on="0"/>
        <pt x="353" y="751" on="0"/>
      </contour>
      <contour>
        <pt x="702" y="1644" on="1"/>
        <pt x="862" y="1764" on="0"/>
        <pt x="1003" y="1890" on="1"/>
        <pt x="1023" y="1906" on="0"/>
        <pt x="1035" y="1906" on="1"/>
        <pt x="1050" y="1906" on="0"/>
        <pt x="1058" y="1890" on="1"/>
        <pt x="1136" y="1765" on="0"/>
        <pt x="1236" y="1644" on="1"/>
        <pt x="1235" y="1637" on="0"/>
        <pt x="1223" y="1627" on="0"/>
        <pt x="1209" y="1621" on="0"/>
        <pt x="1202" y="1621" on="1"/>
        <pt x="999" y="1756" on="1"/>
        <pt x="834" y="1676" on="0"/>
        <pt x="725" y="1621" on="1"/>
        <pt x="720" y="1621" on="0"/>
        <pt x="711" y="1624" on="0"/>
        <pt x="704" y="1630" on="0"/>
        <pt x="701" y="1639" on="0"/>
      </contour>
    </TTGlyph>
    <TTGlyph name="Odieresis" xMin="139" yMin="-25" xMax="1532" yMax="1888">
      <contour>
        <pt x="139" y="622" on="1"/>
        <pt x="139" y="751" on="0"/>
        <pt x="201" y="990" on="0"/>
        <pt x="311" y="1185" on="0"/>
        <pt x="463" y="1347" on="0"/>
        <pt x="642" y="1456" on="0"/>
        <pt x="843" y="1516" on="0"/>
        <pt x="946" y="1516" on="1"/>
        <pt x="1079" y="1516" on="0"/>
        <pt x="1300" y="1417" on="0"/>
        <pt x="1449" y="1244" on="0"/>
        <pt x="1532" y="1007" on="0"/>
        <pt x="1532" y="871" on="1"/>
        <pt x="1532" y="740" on="0"/>
        <pt x="1474" y="499" on="0"/>
        <pt x="1368" y="303" on="0"/>
        <pt x="1219" y="143" on="0"/>
        <pt x="1042" y="34" on="0"/>
        <pt x="836" y="-25" on="0"/>
        <pt x="727" y="-25" on="1"/>
        <pt x="592" y="-25" on="0"/>
        <pt x="368" y="76" on="0"/>
        <pt x="220" y="251" on="0"/>
        <pt x="139" y="487" on="0"/>
      </contour>
      <contour>
        <pt x="353" y="611" on="1"/>
        <pt x="353" y="552" on="0"/>
        <pt x="364" y="441" on="0"/>
        <pt x="390" y="326" on="0"/>
        <pt x="430" y="227" on="0"/>
        <pt x="493" y="139" on="0"/>
        <pt x="573" y="77" on="0"/>
        <pt x="683" y="41" on="0"/>
        <pt x="748" y="41" on="1"/>
        <pt x="833" y="41" on="0"/>
        <pt x="989" y="111" on="0"/>
        <pt x="1113" y="233" on="0"/>
        <pt x="1214" y="398" on="0"/>
        <pt x="1281" y="588" on="0"/>
        <pt x="1318" y="794" on="0"/>
        <pt x="1318" y="896" on="1"/>
        <pt x="1318" y="946" on="0"/>
        <pt x="1308" y="1045" on="0"/>
        <pt x="1284" y="1157" on="0"/>
        <pt x="1246" y="1254" on="0"/>
        <pt x="1184" y="1345" on="0"/>
        <pt x="1105" y="1409" on="0"/>
        <pt x="992" y="1448" on="0"/>
        <pt x="926" y="1448" on="1"/>
        <pt x="840" y="1448" on="0"/>
        <pt x="672" y="1367" on="0"/>
        <pt x="528" y="1214" on="0"/>
        <pt x="417" y="1012" on="0"/>
        <pt x="353" y="751" on="0"/>
      </contour>
      <contour>
        <pt x="670" y="1774" on="1"/>
        <pt x="675" y="1797" on="0"/>
        <pt x="699" y="1840" on="0"/>
        <pt x="733" y="1870" on="0"/>
        <pt x="776" y="1888" on="0"/>
        <pt x="798" y="1888" on="1"/>
        <pt x="842" y="1888" on="0"/>
        <pt x="891" y="1822" on="0"/>
        <pt x="882" y="1774" on="1"/>
        <pt x="878" y="1750" on="0"/>
        <pt x="853" y="1708" on="0"/>
        <pt x="818" y="1678" on="0"/>
        <pt x="774" y="1660" on="0"/>
        <pt x="752" y="1660" on="1"/>
        <pt x="708" y="1660" on="0"/>
        <pt x="662" y="1726" on="0"/>
      </contour>
      <contour>
        <pt x="1053" y="1774" on="1"/>
        <pt x="1058" y="1797" on="0"/>
        <pt x="1082" y="1840" on="0"/>
        <pt x="1116" y="1870" on="0"/>
        <pt x="1159" y="1888" on="0"/>
        <pt x="1181" y="1888" on="1"/>
        <pt x="1225" y="1888" on="0"/>
        <pt x="1274" y="1822" on="0"/>
        <pt x="1265" y="1774" on="1"/>
        <pt x="1257" y="1726" on="0"/>
        <pt x="1182" y="1660" on="0"/>
        <pt x="1138" y="1660" on="1"/>
        <pt x="1093" y="1660" on="0"/>
        <pt x="1045" y="1726" on="0"/>
      </contour>
    </TTGlyph>
    <TTGlyph name="Ograve" xMin="139" yMin="-25" xMax="1532" yMax="1865">
      <contour>
        <pt x="139" y="622" on="1"/>
        <pt x="139" y="751" on="0"/>
        <pt x="201" y="990" on="0"/>
        <pt x="311" y="1185" on="0"/>
        <pt x="463" y="1347" on="0"/>
        <pt x="642" y="1456" on="0"/>
        <pt x="843" y="1516" on="0"/>
        <pt x="946" y="1516" on="1"/>
        <pt x="1079" y="1516" on="0"/>
        <pt x="1300" y="1417" on="0"/>
        <pt x="1449" y="1244" on="0"/>
        <pt x="1532" y="1007" on="0"/>
        <pt x="1532" y="871" on="1"/>
        <pt x="1532" y="740" on="0"/>
        <pt x="1474" y="499" on="0"/>
        <pt x="1368" y="303" on="0"/>
        <pt x="1219" y="143" on="0"/>
        <pt x="1042" y="34" on="0"/>
        <pt x="836" y="-25" on="0"/>
        <pt x="727" y="-25" on="1"/>
        <pt x="592" y="-25" on="0"/>
        <pt x="368" y="76" on="0"/>
        <pt x="220" y="251" on="0"/>
        <pt x="139" y="487" on="0"/>
      </contour>
      <contour>
        <pt x="353" y="611" on="1"/>
        <pt x="353" y="552" on="0"/>
        <pt x="364" y="441" on="0"/>
        <pt x="390" y="326" on="0"/>
        <pt x="430" y="227" on="0"/>
        <pt x="493" y="139" on="0"/>
        <pt x="573" y="77" on="0"/>
        <pt x="683" y="41" on="0"/>
        <pt x="748" y="41" on="1"/>
        <pt x="833" y="41" on="0"/>
        <pt x="989" y="111" on="0"/>
        <pt x="1113" y="233" on="0"/>
        <pt x="1214" y="398" on="0"/>
        <pt x="1281" y="588" on="0"/>
        <pt x="1318" y="794" on="0"/>
        <pt x="1318" y="896" on="1"/>
        <pt x="1318" y="946" on="0"/>
        <pt x="1308" y="1045" on="0"/>
        <pt x="1284" y="1157" on="0"/>
        <pt x="1246" y="1254" on="0"/>
        <pt x="1184" y="1345" on="0"/>
        <pt x="1105" y="1409" on="0"/>
        <pt x="992" y="1448" on="0"/>
        <pt x="926" y="1448" on="1"/>
        <pt x="840" y="1448" on="0"/>
        <pt x="672" y="1367" on="0"/>
        <pt x="528" y="1214" on="0"/>
        <pt x="417" y="1012" on="0"/>
        <pt x="353" y="751" on="0"/>
      </contour>
      <contour>
        <pt x="645" y="1815" on="1"/>
        <pt x="645" y="1835" on="0"/>
        <pt x="707" y="1865" on="0"/>
        <pt x="755" y="1865" on="1"/>
        <pt x="767" y="1865" on="0"/>
        <pt x="811" y="1857" on="0"/>
        <pt x="816" y="1854" on="1"/>
        <pt x="860" y="1825" on="0"/>
        <pt x="1058" y="1653" on="0"/>
        <pt x="1058" y="1642" on="1"/>
        <pt x="1058" y="1637" on="0"/>
        <pt x="1046" y="1619" on="0"/>
        <pt x="1044" y="1619" on="1"/>
        <pt x="1025" y="1619" on="0"/>
        <pt x="832" y="1692" on="0"/>
        <pt x="645" y="1789" on="0"/>
      </contour>
    </TTGlyph>
    <TTGlyph name="Oslash" xMin="139" yMin="-30" xMax="1532" yMax="1521">
      <contour>
        <pt x="139" y="622" on="1"/>
        <pt x="139" y="751" on="0"/>
        <pt x="201" y="990" on="0"/>
        <pt x="311" y="1185" on="0"/>
        <pt x="463" y="1347" on="0"/>
        <pt x="642" y="1456" on="0"/>
        <pt x="843" y="1516" on="0"/>
        <pt x="946" y="1516" on="1"/>
        <pt x="1079" y="1516" on="0"/>
        <pt x="1300" y="1417" on="0"/>
        <pt x="1449" y="1244" on="0"/>
        <pt x="1532" y="1007" on="0"/>
        <pt x="1532" y="871" on="1"/>
        <pt x="1532" y="740" on="0"/>
        <pt x="1474" y="499" on="0"/>
        <pt x="1368" y="303" on="0"/>
        <pt x="1219" y="143" on="0"/>
        <pt x="1042" y="34" on="0"/>
        <pt x="836" y="-25" on="0"/>
        <pt x="727" y="-25" on="1"/>
        <pt x="592" y="-25" on="0"/>
        <pt x="368" y="76" on="0"/>
        <pt x="220" y="251" on="0"/>
        <pt x="139" y="487" on="0"/>
      </contour>
      <contour>
        <pt x="219" y="23" on="1"/>
        <pt x="1395" y="1521" on="1"/>
        <pt x="1412" y="1517" on="0"/>
        <pt x="1456" y="1480" on="0"/>
        <pt x="1448" y="1471" on="1"/>
        <pt x="269" y="-30" on="1"/>
        <pt x="252" y="-23" on="0"/>
        <pt x="211" y="14" on="0"/>
      </contour>
      <contour>
        <pt x="353" y="611" on="1"/>
        <pt x="353" y="552" on="0"/>
        <pt x="364" y="441" on="0"/>
        <pt x="390" y="326" on="0"/>
        <pt x="430" y="227" on="0"/>
        <pt x="493" y="139" on="0"/>
        <pt x="573" y="77" on="0"/>
        <pt x="683" y="41" on="0"/>
        <pt x="748" y="41" on="1"/>
        <pt x="833" y="41" on="0"/>
        <pt x="989" y="111" on="0"/>
        <pt x="1113" y="233" on="0"/>
        <pt x="1214" y="398" on="0"/>
        <pt x="1281" y="588" on="0"/>
        <pt x="1318" y="794" on="0"/>
        <pt x="1318" y="896" on="1"/>
        <pt x="1318" y="946" on="0"/>
        <pt x="1308" y="1045" on="0"/>
        <pt x="1284" y="1157" on="0"/>
        <pt x="1246" y="1254" on="0"/>
        <pt x="1184" y="1345" on="0"/>
        <pt x="1105" y="1409" on="0"/>
        <pt x="992" y="1448" on="0"/>
        <pt x="926" y="1448" on="1"/>
        <pt x="840" y="1448" on="0"/>
        <pt x="672" y="1367" on="0"/>
        <pt x="528" y="1214" on="0"/>
        <pt x="417" y="1012" on="0"/>
        <pt x="353" y="751" on="0"/>
      </contour>
    </TTGlyph>
    <TTGlyph name="Otilde" xMin="139" yMin="-25" xMax="1532" yMax="1867">
      <contour>
        <pt x="139" y="622" on="1"/>
        <pt x="139" y="751" on="0"/>
        <pt x="201" y="990" on="0"/>
        <pt x="311" y="1185" on="0"/>
        <pt x="463" y="1347" on="0"/>
        <pt x="642" y="1456" on="0"/>
        <pt x="843" y="1516" on="0"/>
        <pt x="946" y="1516" on="1"/>
        <pt x="1079" y="1516" on="0"/>
        <pt x="1300" y="1417" on="0"/>
        <pt x="1449" y="1244" on="0"/>
        <pt x="1532" y="1007" on="0"/>
        <pt x="1532" y="871" on="1"/>
        <pt x="1532" y="740" on="0"/>
        <pt x="1474" y="499" on="0"/>
        <pt x="1368" y="303" on="0"/>
        <pt x="1219" y="143" on="0"/>
        <pt x="1042" y="34" on="0"/>
        <pt x="836" y="-25" on="0"/>
        <pt x="727" y="-25" on="1"/>
        <pt x="592" y="-25" on="0"/>
        <pt x="368" y="76" on="0"/>
        <pt x="220" y="251" on="0"/>
        <pt x="139" y="487" on="0"/>
      </contour>
      <contour>
        <pt x="353" y="611" on="1"/>
        <pt x="353" y="552" on="0"/>
        <pt x="364" y="441" on="0"/>
        <pt x="390" y="326" on="0"/>
        <pt x="430" y="227" on="0"/>
        <pt x="493" y="139" on="0"/>
        <pt x="573" y="77" on="0"/>
        <pt x="683" y="41" on="0"/>
        <pt x="748" y="41" on="1"/>
        <pt x="833" y="41" on="0"/>
        <pt x="989" y="111" on="0"/>
        <pt x="1113" y="233" on="0"/>
        <pt x="1214" y="398" on="0"/>
        <pt x="1281" y="588" on="0"/>
        <pt x="1318" y="794" on="0"/>
        <pt x="1318" y="896" on="1"/>
        <pt x="1318" y="946" on="0"/>
        <pt x="1308" y="1045" on="0"/>
        <pt x="1284" y="1157" on="0"/>
        <pt x="1246" y="1254" on="0"/>
        <pt x="1184" y="1345" on="0"/>
        <pt x="1105" y="1409" on="0"/>
        <pt x="992" y="1448" on="0"/>
        <pt x="926" y="1448" on="1"/>
        <pt x="840" y="1448" on="0"/>
        <pt x="672" y="1367" on="0"/>
        <pt x="528" y="1214" on="0"/>
        <pt x="417" y="1012" on="0"/>
        <pt x="353" y="751" on="0"/>
      </contour>
      <contour>
        <pt x="627" y="1708" on="1"/>
        <pt x="627" y="1749" on="0"/>
        <pt x="670" y="1792" on="1"/>
        <pt x="749" y="1867" on="0"/>
        <pt x="848" y="1867" on="1"/>
        <pt x="878" y="1867" on="0"/>
        <pt x="919" y="1863" on="0"/>
        <pt x="964" y="1849" on="0"/>
        <pt x="987" y="1835" on="1"/>
        <pt x="1021" y="1816" on="0"/>
        <pt x="1054" y="1799" on="0"/>
        <pt x="1118" y="1781" on="0"/>
        <pt x="1151" y="1781" on="1"/>
        <pt x="1225" y="1781" on="0"/>
        <pt x="1300" y="1867" on="1"/>
        <pt x="1313" y="1863" on="0"/>
        <pt x="1313" y="1845" on="1"/>
        <pt x="1313" y="1801" on="0"/>
        <pt x="1272" y="1760" on="1"/>
        <pt x="1194" y="1685" on="0"/>
        <pt x="1094" y="1685" on="1"/>
        <pt x="1050" y="1685" on="0"/>
        <pt x="989" y="1698" on="0"/>
        <pt x="955" y="1717" on="1"/>
        <pt x="922" y="1736" on="0"/>
        <pt x="889" y="1753" on="0"/>
        <pt x="824" y="1772" on="0"/>
        <pt x="791" y="1772" on="1"/>
        <pt x="717" y="1772" on="0"/>
        <pt x="643" y="1685" on="1"/>
        <pt x="627" y="1690" on="0"/>
      </contour>
    </TTGlyph>
    <TTGlyph name="P" xMin="-16" yMin="-7" xMax="1192" yMax="1509">
      <contour>
        <pt x="-14" y="26" on="1"/>
        <pt x="-10" y="50" on="0"/>
        <pt x="0" y="59" on="1"/>
        <pt x="7" y="59" on="0"/>
        <pt x="32" y="61" on="0"/>
        <pt x="65" y="65" on="0"/>
        <pt x="100" y="71" on="0"/>
        <pt x="130" y="79" on="0"/>
        <pt x="152" y="90" on="0"/>
        <pt x="155" y="96" on="1"/>
        <pt x="158" y="102" on="0"/>
        <pt x="165" y="120" on="0"/>
        <pt x="170" y="135" on="0"/>
        <pt x="176" y="160" on="0"/>
        <pt x="180" y="175" on="0"/>
        <pt x="187" y="207" on="0"/>
        <pt x="190" y="221" on="0"/>
        <pt x="197" y="259" on="0"/>
        <pt x="198" y="264" on="1"/>
        <pt x="388" y="1238" on="1"/>
        <pt x="409" y="1345" on="0"/>
        <pt x="409" y="1391" on="1"/>
        <pt x="409" y="1400" on="0"/>
        <pt x="408" y="1407" on="1"/>
        <pt x="407" y="1423" on="0"/>
        <pt x="301" y="1443" on="0"/>
        <pt x="269" y="1443" on="1"/>
        <pt x="264" y="1451" on="0"/>
        <pt x="273" y="1501" on="0"/>
        <pt x="283" y="1509" on="1"/>
        <pt x="499" y="1498" on="0"/>
        <pt x="536" y="1498" on="1"/>
        <pt x="571" y="1498" on="0"/>
        <pt x="712" y="1503" on="0"/>
        <pt x="780" y="1503" on="1"/>
        <pt x="962" y="1503" on="0"/>
        <pt x="1192" y="1313" on="0"/>
        <pt x="1192" y="1158" on="1"/>
        <pt x="1192" y="1052" on="0"/>
        <pt x="1104" y="859" on="0"/>
        <pt x="958" y="723" on="0"/>
        <pt x="764" y="643" on="0"/>
        <pt x="661" y="643" on="1"/>
        <pt x="628" y="643" on="0"/>
        <pt x="568" y="658" on="0"/>
        <pt x="559" y="666" on="1"/>
        <pt x="554" y="670" on="0"/>
        <pt x="540" y="695" on="0"/>
        <pt x="540" y="702" on="1"/>
        <pt x="540" y="707" on="0"/>
        <pt x="549" y="711" on="1"/>
        <pt x="568" y="702" on="0"/>
        <pt x="625" y="702" on="1"/>
        <pt x="688" y="702" on="0"/>
        <pt x="818" y="764" on="0"/>
        <pt x="923" y="872" on="0"/>
        <pt x="990" y="1034" on="0"/>
        <pt x="990" y="1126" on="1"/>
        <pt x="990" y="1436" on="0"/>
        <pt x="725" y="1436" on="1"/>
        <pt x="628" y="1436" on="0"/>
        <pt x="616" y="1414" on="1"/>
        <pt x="613" y="1409" on="0"/>
        <pt x="608" y="1397" on="0"/>
        <pt x="603" y="1380" on="0"/>
        <pt x="598" y="1365" on="0"/>
        <pt x="593" y="1342" on="0"/>
        <pt x="589" y="1325" on="0"/>
        <pt x="583" y="1297" on="0"/>
        <pt x="580" y="1281" on="0"/>
        <pt x="574" y="1250" on="0"/>
        <pt x="572" y="1243" on="1"/>
        <pt x="381" y="264" on="1"/>
        <pt x="359" y="157" on="0"/>
        <pt x="359" y="111" on="1"/>
        <pt x="359" y="102" on="0"/>
        <pt x="360" y="96" on="1"/>
        <pt x="362" y="79" on="0"/>
        <pt x="468" y="59" on="0"/>
        <pt x="499" y="59" on="1"/>
        <pt x="505" y="51" on="0"/>
        <pt x="496" y="1" on="0"/>
        <pt x="486" y="-7" on="1"/>
        <pt x="463" y="-6" on="0"/>
        <pt x="353" y="1" on="0"/>
        <pt x="276" y="5" on="0"/>
        <pt x="202" y="5" on="0"/>
        <pt x="125" y="1" on="0"/>
        <pt x="13" y="-6" on="0"/>
        <pt x="-11" y="-7" on="1"/>
        <pt x="-15" y="-2" on="0"/>
        <pt x="-15" y="10" on="1"/>
        <pt x="-16" y="17" on="0"/>
      </contour>
    </TTGlyph>
    <TTGlyph name="Q" xMin="139" yMin="-310" xMax="1562" yMax="1516">
      <contour>
        <pt x="139" y="622" on="1"/>
        <pt x="139" y="751" on="0"/>
        <pt x="201" y="990" on="0"/>
        <pt x="311" y="1185" on="0"/>
        <pt x="463" y="1347" on="0"/>
        <pt x="642" y="1456" on="0"/>
        <pt x="843" y="1516" on="0"/>
        <pt x="946" y="1516" on="1"/>
        <pt x="1079" y="1516" on="0"/>
        <pt x="1300" y="1417" on="0"/>
        <pt x="1449" y="1244" on="0"/>
        <pt x="1532" y="1007" on="0"/>
        <pt x="1532" y="871" on="1"/>
        <pt x="1532" y="699" on="0"/>
        <pt x="1432" y="394" on="0"/>
        <pt x="1256" y="169" on="0"/>
        <pt x="1018" y="18" on="0"/>
        <pt x="880" y="-9" on="1"/>
        <pt x="917" y="-31" on="0"/>
        <pt x="1017" y="-97" on="0"/>
        <pt x="1074" y="-131" on="0"/>
        <pt x="1158" y="-169" on="0"/>
        <pt x="1251" y="-185" on="0"/>
        <pt x="1311" y="-185" on="1"/>
        <pt x="1365" y="-185" on="0"/>
        <pt x="1492" y="-163" on="0"/>
        <pt x="1518" y="-155" on="1"/>
        <pt x="1530" y="-155" on="0"/>
        <pt x="1562" y="-178" on="0"/>
        <pt x="1562" y="-185" on="1"/>
        <pt x="1315" y="-310" on="0"/>
        <pt x="1161" y="-310" on="1"/>
        <pt x="1098" y="-310" on="0"/>
        <pt x="971" y="-263" on="0"/>
        <pt x="854" y="-185" on="0"/>
        <pt x="738" y="-103" on="0"/>
        <pt x="590" y="-16" on="0"/>
        <pt x="520" y="9" on="1"/>
        <pt x="341" y="73" on="0"/>
        <pt x="139" y="404" on="0"/>
      </contour>
      <contour>
        <pt x="353" y="611" on="1"/>
        <pt x="353" y="552" on="0"/>
        <pt x="364" y="441" on="0"/>
        <pt x="390" y="326" on="0"/>
        <pt x="430" y="227" on="0"/>
        <pt x="493" y="139" on="0"/>
        <pt x="573" y="77" on="0"/>
        <pt x="683" y="41" on="0"/>
        <pt x="748" y="41" on="1"/>
        <pt x="833" y="41" on="0"/>
        <pt x="989" y="111" on="0"/>
        <pt x="1113" y="233" on="0"/>
        <pt x="1214" y="398" on="0"/>
        <pt x="1281" y="588" on="0"/>
        <pt x="1318" y="794" on="0"/>
        <pt x="1318" y="896" on="1"/>
        <pt x="1318" y="946" on="0"/>
        <pt x="1308" y="1045" on="0"/>
        <pt x="1284" y="1157" on="0"/>
        <pt x="1246" y="1254" on="0"/>
        <pt x="1184" y="1345" on="0"/>
        <pt x="1105" y="1409" on="0"/>
        <pt x="992" y="1448" on="0"/>
        <pt x="926" y="1448" on="1"/>
        <pt x="840" y="1448" on="0"/>
        <pt x="672" y="1367" on="0"/>
        <pt x="528" y="1214" on="0"/>
        <pt x="417" y="1012" on="0"/>
        <pt x="353" y="751" on="0"/>
      </contour>
    </TTGlyph>
    <TTGlyph name="R" xMin="-16" yMin="-7" xMax="1278" yMax="1509">
      <contour>
        <pt x="-14" y="26" on="1"/>
        <pt x="-10" y="50" on="0"/>
        <pt x="0" y="59" on="1"/>
        <pt x="7" y="59" on="0"/>
        <pt x="32" y="61" on="0"/>
        <pt x="65" y="65" on="0"/>
        <pt x="100" y="71" on="0"/>
        <pt x="130" y="79" on="0"/>
        <pt x="152" y="90" on="0"/>
        <pt x="155" y="96" on="1"/>
        <pt x="158" y="102" on="0"/>
        <pt x="165" y="120" on="0"/>
        <pt x="170" y="135" on="0"/>
        <pt x="176" y="160" on="0"/>
        <pt x="180" y="175" on="0"/>
        <pt x="187" y="207" on="0"/>
        <pt x="190" y="221" on="0"/>
        <pt x="197" y="259" on="0"/>
        <pt x="198" y="264" on="1"/>
        <pt x="388" y="1238" on="1"/>
        <pt x="409" y="1345" on="0"/>
        <pt x="409" y="1391" on="1"/>
        <pt x="409" y="1400" on="0"/>
        <pt x="408" y="1407" on="1"/>
        <pt x="407" y="1423" on="0"/>
        <pt x="301" y="1443" on="0"/>
        <pt x="269" y="1443" on="1"/>
        <pt x="264" y="1451" on="0"/>
        <pt x="273" y="1501" on="0"/>
        <pt x="283" y="1509" on="1"/>
        <pt x="499" y="1498" on="0"/>
        <pt x="538" y="1498" on="1"/>
        <pt x="574" y="1498" on="0"/>
        <pt x="771" y="1503" on="0"/>
        <pt x="839" y="1503" on="1"/>
        <pt x="898" y="1503" on="0"/>
        <pt x="1003" y="1477" on="0"/>
        <pt x="1093" y="1424" on="0"/>
        <pt x="1158" y="1348" on="0"/>
        <pt x="1195" y="1243" on="0"/>
        <pt x="1195" y="1181" on="1"/>
        <pt x="1195" y="1102" on="0"/>
        <pt x="1128" y="953" on="0"/>
        <pt x="1018" y="840" on="0"/>
        <pt x="889" y="754" on="0"/>
        <pt x="821" y="730" on="1"/>
        <pt x="874" y="585" on="0"/>
        <pt x="1015" y="277" on="0"/>
        <pt x="1062" y="196" on="1"/>
        <pt x="1103" y="124" on="0"/>
        <pt x="1191" y="66" on="0"/>
        <pt x="1275" y="59" on="1"/>
        <pt x="1277" y="56" on="0"/>
        <pt x="1277" y="51" on="1"/>
        <pt x="1278" y="46" on="0"/>
        <pt x="1276" y="38" on="1"/>
        <pt x="1272" y="22" on="0"/>
        <pt x="1263" y="-2" on="0"/>
        <pt x="1261" y="-7" on="1"/>
        <pt x="1208" y="-7" on="0"/>
        <pt x="1133" y="-4" on="0"/>
        <pt x="1048" y="3" on="0"/>
        <pt x="988" y="19" on="0"/>
        <pt x="930" y="43" on="0"/>
        <pt x="889" y="82" on="0"/>
        <pt x="876" y="107" on="1"/>
        <pt x="822" y="212" on="0"/>
        <pt x="689" y="520" on="0"/>
        <pt x="636" y="663" on="1"/>
        <pt x="627" y="691" on="0"/>
        <pt x="577" y="691" on="1"/>
        <pt x="465" y="691" on="1"/>
        <pt x="383" y="264" on="1"/>
        <pt x="382" y="260" on="0"/>
        <pt x="380" y="251" on="1"/>
        <pt x="359" y="147" on="0"/>
        <pt x="359" y="107" on="1"/>
        <pt x="359" y="100" on="0"/>
        <pt x="360" y="96" on="1"/>
        <pt x="362" y="79" on="0"/>
        <pt x="468" y="59" on="0"/>
        <pt x="499" y="59" on="1"/>
        <pt x="505" y="51" on="0"/>
        <pt x="496" y="1" on="0"/>
        <pt x="486" y="-7" on="1"/>
        <pt x="462" y="-6" on="0"/>
        <pt x="354" y="1" on="0"/>
        <pt x="279" y="5" on="0"/>
        <pt x="205" y="5" on="0"/>
        <pt x="127" y="1" on="0"/>
        <pt x="12" y="-6" on="0"/>
        <pt x="-11" y="-7" on="1"/>
        <pt x="-15" y="-2" on="0"/>
        <pt x="-15" y="10" on="1"/>
        <pt x="-16" y="17" on="0"/>
      </contour>
      <contour>
        <pt x="479" y="759" on="1"/>
        <pt x="593" y="759" on="1"/>
        <pt x="632" y="759" on="0"/>
        <pt x="711" y="775" on="0"/>
        <pt x="790" y="808" on="0"/>
        <pt x="861" y="856" on="0"/>
        <pt x="922" y="924" on="0"/>
        <pt x="966" y="1005" on="0"/>
        <pt x="992" y="1109" on="0"/>
        <pt x="992" y="1167" on="1"/>
        <pt x="992" y="1201" on="0"/>
        <pt x="983" y="1263" on="0"/>
        <pt x="949" y="1341" on="0"/>
        <pt x="895" y="1397" on="0"/>
        <pt x="794" y="1436" on="0"/>
        <pt x="727" y="1436" on="1"/>
        <pt x="628" y="1436" on="0"/>
        <pt x="616" y="1414" on="1"/>
        <pt x="613" y="1409" on="0"/>
        <pt x="608" y="1397" on="0"/>
        <pt x="603" y="1380" on="0"/>
        <pt x="598" y="1365" on="0"/>
        <pt x="593" y="1342" on="0"/>
        <pt x="589" y="1325" on="0"/>
        <pt x="583" y="1297" on="0"/>
        <pt x="580" y="1281" on="0"/>
        <pt x="574" y="1250" on="0"/>
        <pt x="572" y="1243" on="1"/>
      </contour>
    </TTGlyph>
    <TTGlyph name="S" xMin="76" yMin="-18" xMax="1024" yMax="1518">
      <contour>
        <pt x="78" y="420" on="1"/>
        <pt x="82" y="426" on="0"/>
        <pt x="120" y="433" on="0"/>
        <pt x="135" y="433" on="1"/>
        <pt x="150" y="433" on="0"/>
        <pt x="157" y="420" on="1"/>
        <pt x="157" y="387" on="0"/>
        <pt x="172" y="310" on="0"/>
        <pt x="202" y="226" on="0"/>
        <pt x="254" y="149" on="0"/>
        <pt x="319" y="87" on="0"/>
        <pt x="413" y="50" on="0"/>
        <pt x="467" y="50" on="1"/>
        <pt x="544" y="50" on="0"/>
        <pt x="674" y="116" on="0"/>
        <pt x="757" y="248" on="0"/>
        <pt x="757" y="335" on="1"/>
        <pt x="757" y="370" on="0"/>
        <pt x="743" y="433" on="0"/>
        <pt x="726" y="481" on="0"/>
        <pt x="687" y="535" on="0"/>
        <pt x="661" y="567" on="0"/>
        <pt x="604" y="619" on="0"/>
        <pt x="575" y="643" on="0"/>
        <pt x="540" y="670" on="1"/>
        <pt x="516" y="690" on="0"/>
        <pt x="426" y="754" on="0"/>
        <pt x="371" y="795" on="0"/>
        <pt x="301" y="865" on="0"/>
        <pt x="261" y="931" on="0"/>
        <pt x="233" y="1029" on="0"/>
        <pt x="233" y="1085" on="1"/>
        <pt x="233" y="1161" on="0"/>
        <pt x="291" y="1300" on="0"/>
        <pt x="389" y="1403" on="0"/>
        <pt x="513" y="1479" on="0"/>
        <pt x="648" y="1518" on="0"/>
        <pt x="711" y="1518" on="1"/>
        <pt x="758" y="1518" on="0"/>
        <pt x="849" y="1507" on="0"/>
        <pt x="896" y="1497" on="0"/>
        <pt x="1003" y="1469" on="0"/>
        <pt x="1024" y="1464" on="1"/>
        <pt x="1019" y="1408" on="0"/>
        <pt x="987" y="1189" on="0"/>
        <pt x="976" y="1135" on="1"/>
        <pt x="974" y="1119" on="0"/>
        <pt x="953" y="1119" on="1"/>
        <pt x="921" y="1119" on="0"/>
        <pt x="905" y="1135" on="1"/>
        <pt x="906" y="1156" on="0"/>
        <pt x="906" y="1176" on="1"/>
        <pt x="906" y="1292" on="0"/>
        <pt x="862" y="1364" on="1"/>
        <pt x="810" y="1448" on="0"/>
        <pt x="693" y="1448" on="1"/>
        <pt x="626" y="1448" on="0"/>
        <pt x="515" y="1399" on="0"/>
        <pt x="447" y="1321" on="0"/>
        <pt x="410" y="1230" on="0"/>
        <pt x="410" y="1186" on="1"/>
        <pt x="410" y="1147" on="0"/>
        <pt x="425" y="1079" on="0"/>
        <pt x="458" y="1020" on="0"/>
        <pt x="491" y="975" on="0"/>
        <pt x="547" y="926" on="0"/>
        <pt x="587" y="895" on="0"/>
        <pt x="655" y="844" on="0"/>
        <pt x="673" y="830" on="1"/>
        <pt x="691" y="815" on="0"/>
        <pt x="761" y="765" on="0"/>
        <pt x="805" y="730" on="0"/>
        <pt x="866" y="677" on="0"/>
        <pt x="905" y="626" on="0"/>
        <pt x="942" y="562" on="0"/>
        <pt x="960" y="484" on="0"/>
        <pt x="960" y="440" on="1"/>
        <pt x="960" y="358" on="0"/>
        <pt x="899" y="210" on="0"/>
        <pt x="796" y="102" on="0"/>
        <pt x="663" y="22" on="0"/>
        <pt x="514" y="-18" on="0"/>
        <pt x="440" y="-18" on="1"/>
        <pt x="270" y="-18" on="0"/>
        <pt x="105" y="78" on="1"/>
        <pt x="85" y="158" on="0"/>
        <pt x="79" y="274" on="1"/>
        <pt x="76" y="337" on="0"/>
        <pt x="76" y="375" on="1"/>
        <pt x="76" y="406" on="0"/>
      </contour>
    </TTGlyph>
    <TTGlyph name="T" xMin="135" yMin="-7" xMax="1430" yMax="1541">
      <contour>
        <pt x="135" y="1140" on="1"/>
        <pt x="199" y="1303" on="0"/>
        <pt x="267" y="1532" on="1"/>
        <pt x="285" y="1541" on="0"/>
        <pt x="312" y="1525" on="1"/>
        <pt x="331" y="1514" on="0"/>
        <pt x="402" y="1493" on="0"/>
        <pt x="426" y="1493" on="1"/>
        <pt x="1254" y="1493" on="1"/>
        <pt x="1278" y="1493" on="0"/>
        <pt x="1367" y="1517" on="0"/>
        <pt x="1389" y="1528" on="1"/>
        <pt x="1405" y="1536" on="0"/>
        <pt x="1413" y="1536" on="1"/>
        <pt x="1414" y="1536" on="0"/>
        <pt x="1414" y="1537" on="1"/>
        <pt x="1421" y="1537" on="0"/>
        <pt x="1430" y="1532" on="1"/>
        <pt x="1409" y="1282" on="0"/>
        <pt x="1409" y="1140" on="1"/>
        <pt x="1403" y="1134" on="0"/>
        <pt x="1376" y="1122" on="0"/>
        <pt x="1363" y="1124" on="1"/>
        <pt x="1340" y="1124" on="0"/>
        <pt x="1336" y="1135" on="1"/>
        <pt x="1336" y="1142" on="0"/>
        <pt x="1336" y="1148" on="1"/>
        <pt x="1336" y="1266" on="0"/>
        <pt x="1302" y="1338" on="1"/>
        <pt x="1266" y="1414" on="0"/>
        <pt x="1190" y="1414" on="1"/>
        <pt x="921" y="1414" on="1"/>
        <pt x="695" y="264" on="1"/>
        <pt x="694" y="260" on="0"/>
        <pt x="693" y="251" on="1"/>
        <pt x="672" y="150" on="0"/>
        <pt x="672" y="110" on="1"/>
        <pt x="672" y="102" on="0"/>
        <pt x="673" y="96" on="1"/>
        <pt x="674" y="84" on="0"/>
        <pt x="735" y="66" on="0"/>
        <pt x="795" y="59" on="0"/>
        <pt x="812" y="59" on="1"/>
        <pt x="817" y="51" on="0"/>
        <pt x="810" y="1" on="0"/>
        <pt x="800" y="-7" on="1"/>
        <pt x="777" y="-6" on="0"/>
        <pt x="667" y="1" on="0"/>
        <pt x="591" y="5" on="0"/>
        <pt x="517" y="5" on="0"/>
        <pt x="439" y="1" on="0"/>
        <pt x="324" y="-6" on="0"/>
        <pt x="301" y="-7" on="1"/>
        <pt x="295" y="2" on="0"/>
        <pt x="306" y="50" on="0"/>
        <pt x="315" y="59" on="1"/>
        <pt x="347" y="59" on="0"/>
        <pt x="460" y="79" on="0"/>
        <pt x="467" y="96" on="1"/>
        <pt x="471" y="102" on="0"/>
        <pt x="477" y="120" on="0"/>
        <pt x="482" y="135" on="0"/>
        <pt x="489" y="160" on="0"/>
        <pt x="493" y="175" on="0"/>
        <pt x="499" y="207" on="0"/>
        <pt x="502" y="221" on="0"/>
        <pt x="510" y="259" on="0"/>
        <pt x="511" y="264" on="1"/>
        <pt x="736" y="1414" on="1"/>
        <pt x="463" y="1414" on="1"/>
        <pt x="412" y="1414" on="0"/>
        <pt x="315" y="1340" on="0"/>
        <pt x="237" y="1218" on="0"/>
        <pt x="205" y="1135" on="1"/>
        <pt x="198" y="1124" on="0"/>
        <pt x="173" y="1124" on="1"/>
        <pt x="147" y="1121" on="0"/>
      </contour>
    </TTGlyph>
    <TTGlyph name="Thorn" xMin="-18" yMin="-7" xMax="1126" yMax="1509">
      <contour>
        <pt x="-18" y="2" on="0"/>
        <pt x="-9" y="50" on="0"/>
        <pt x="0" y="59" on="1"/>
        <pt x="7" y="59" on="0"/>
        <pt x="32" y="61" on="0"/>
        <pt x="65" y="65" on="0"/>
        <pt x="100" y="71" on="0"/>
        <pt x="130" y="79" on="0"/>
        <pt x="152" y="90" on="0"/>
        <pt x="155" y="96" on="1"/>
        <pt x="158" y="102" on="0"/>
        <pt x="165" y="120" on="0"/>
        <pt x="170" y="135" on="0"/>
        <pt x="176" y="160" on="0"/>
        <pt x="180" y="175" on="0"/>
        <pt x="187" y="207" on="0"/>
        <pt x="190" y="221" on="0"/>
        <pt x="197" y="259" on="0"/>
        <pt x="198" y="264" on="1"/>
        <pt x="388" y="1238" on="1"/>
        <pt x="413" y="1366" on="0"/>
        <pt x="408" y="1407" on="1"/>
        <pt x="407" y="1423" on="0"/>
        <pt x="301" y="1443" on="0"/>
        <pt x="269" y="1443" on="1"/>
        <pt x="264" y="1451" on="0"/>
        <pt x="273" y="1501" on="0"/>
        <pt x="283" y="1509" on="1"/>
        <pt x="305" y="1508" on="0"/>
        <pt x="418" y="1501" on="0"/>
        <pt x="494" y="1498" on="0"/>
        <pt x="568" y="1498" on="0"/>
        <pt x="646" y="1501" on="0"/>
        <pt x="758" y="1508" on="0"/>
        <pt x="782" y="1509" on="1"/>
        <pt x="788" y="1500" on="0"/>
        <pt x="777" y="1452" on="0"/>
        <pt x="768" y="1443" on="1"/>
        <pt x="736" y="1443" on="0"/>
        <pt x="623" y="1423" on="0"/>
        <pt x="616" y="1407" on="1"/>
        <pt x="612" y="1400" on="0"/>
        <pt x="606" y="1383" on="0"/>
        <pt x="601" y="1368" on="0"/>
        <pt x="594" y="1342" on="0"/>
        <pt x="590" y="1328" on="0"/>
        <pt x="584" y="1295" on="0"/>
        <pt x="581" y="1282" on="0"/>
        <pt x="573" y="1244" on="0"/>
        <pt x="572" y="1238" on="1"/>
        <pt x="552" y="1140" on="1"/>
        <pt x="616" y="1165" on="0"/>
        <pt x="714" y="1165" on="1"/>
        <pt x="896" y="1165" on="0"/>
        <pt x="1126" y="975" on="0"/>
        <pt x="1126" y="821" on="1"/>
        <pt x="1126" y="714" on="0"/>
        <pt x="1038" y="521" on="0"/>
        <pt x="892" y="385" on="0"/>
        <pt x="698" y="306" on="0"/>
        <pt x="595" y="306" on="1"/>
        <pt x="562" y="306" on="0"/>
        <pt x="502" y="320" on="0"/>
        <pt x="492" y="328" on="1"/>
        <pt x="488" y="333" on="0"/>
        <pt x="474" y="357" on="0"/>
        <pt x="474" y="365" on="1"/>
        <pt x="474" y="369" on="0"/>
        <pt x="483" y="374" on="1"/>
        <pt x="502" y="365" on="0"/>
        <pt x="559" y="365" on="1"/>
        <pt x="622" y="365" on="0"/>
        <pt x="751" y="427" on="0"/>
        <pt x="857" y="534" on="0"/>
        <pt x="923" y="697" on="0"/>
        <pt x="923" y="789" on="1"/>
        <pt x="923" y="1099" on="0"/>
        <pt x="659" y="1099" on="1"/>
        <pt x="645" y="1099" on="0"/>
        <pt x="613" y="1096" on="0"/>
        <pt x="569" y="1086" on="0"/>
        <pt x="537" y="1062" on="0"/>
        <pt x="534" y="1044" on="1"/>
        <pt x="383" y="264" on="1"/>
        <pt x="382" y="260" on="0"/>
        <pt x="380" y="251" on="1"/>
        <pt x="356" y="130" on="0"/>
        <pt x="360" y="96" on="1"/>
        <pt x="362" y="79" on="0"/>
        <pt x="468" y="59" on="0"/>
        <pt x="499" y="59" on="1"/>
        <pt x="505" y="51" on="0"/>
        <pt x="496" y="1" on="0"/>
        <pt x="486" y="-7" on="1"/>
        <pt x="462" y="-6" on="0"/>
        <pt x="354" y="1" on="0"/>
        <pt x="279" y="5" on="0"/>
        <pt x="205" y="5" on="0"/>
        <pt x="127" y="1" on="0"/>
        <pt x="12" y="-6" on="0"/>
        <pt x="-11" y="-7" on="1"/>
      </contour>
    </TTGlyph>
    <TTGlyph name="U" xMin="208" yMin="-9" xMax="1642" yMax="1512">
      <contour>
        <pt x="223" y="572" on="1"/>
        <pt x="353" y="1238" on="1"/>
        <pt x="354" y="1243" on="0"/>
        <pt x="356" y="1252" on="1"/>
        <pt x="377" y="1356" on="0"/>
        <pt x="377" y="1396" on="1"/>
        <pt x="377" y="1403" on="0"/>
        <pt x="376" y="1407" on="1"/>
        <pt x="375" y="1423" on="0"/>
        <pt x="269" y="1443" on="0"/>
        <pt x="237" y="1443" on="1"/>
        <pt x="232" y="1451" on="0"/>
        <pt x="241" y="1501" on="0"/>
        <pt x="251" y="1509" on="1"/>
        <pt x="274" y="1508" on="0"/>
        <pt x="384" y="1501" on="0"/>
        <pt x="460" y="1498" on="0"/>
        <pt x="534" y="1498" on="0"/>
        <pt x="612" y="1501" on="0"/>
        <pt x="724" y="1508" on="0"/>
        <pt x="748" y="1509" on="1"/>
        <pt x="754" y="1500" on="0"/>
        <pt x="743" y="1452" on="0"/>
        <pt x="734" y="1443" on="1"/>
        <pt x="702" y="1443" on="0"/>
        <pt x="589" y="1423" on="0"/>
        <pt x="581" y="1407" on="1"/>
        <pt x="578" y="1401" on="0"/>
        <pt x="573" y="1387" on="0"/>
        <pt x="567" y="1370" on="0"/>
        <pt x="563" y="1355" on="0"/>
        <pt x="558" y="1332" on="0"/>
        <pt x="554" y="1317" on="0"/>
        <pt x="548" y="1290" on="0"/>
        <pt x="546" y="1276" on="0"/>
        <pt x="539" y="1245" on="0"/>
        <pt x="538" y="1238" on="1"/>
        <pt x="429" y="675" on="1"/>
        <pt x="405" y="552" on="0"/>
        <pt x="406" y="459" on="1"/>
        <pt x="406" y="345" on="0"/>
        <pt x="440" y="274" on="1"/>
        <pt x="515" y="123" on="0"/>
        <pt x="716" y="123" on="1"/>
        <pt x="758" y="123" on="0"/>
        <pt x="833" y="134" on="0"/>
        <pt x="906" y="158" on="0"/>
        <pt x="971" y="199" on="0"/>
        <pt x="1031" y="255" on="0"/>
        <pt x="1083" y="332" on="0"/>
        <pt x="1129" y="429" on="0"/>
        <pt x="1168" y="552" on="0"/>
        <pt x="1183" y="625" on="1"/>
        <pt x="1304" y="1243" on="1"/>
        <pt x="1314" y="1291" on="0"/>
        <pt x="1320" y="1336" on="0"/>
        <pt x="1320" y="1382" on="0"/>
        <pt x="1313" y="1400" on="1"/>
        <pt x="1307" y="1416" on="0"/>
        <pt x="1200" y="1446" on="0"/>
        <pt x="1170" y="1446" on="1"/>
        <pt x="1166" y="1460" on="0"/>
        <pt x="1173" y="1499" on="0"/>
        <pt x="1179" y="1512" on="1"/>
        <pt x="1206" y="1510" on="0"/>
        <pt x="1294" y="1504" on="0"/>
        <pt x="1365" y="1500" on="0"/>
        <pt x="1407" y="1500" on="1"/>
        <pt x="1450" y="1500" on="0"/>
        <pt x="1519" y="1504" on="0"/>
        <pt x="1604" y="1510" on="0"/>
        <pt x="1639" y="1512" on="1"/>
        <pt x="1642" y="1507" on="0"/>
        <pt x="1642" y="1496" on="1"/>
        <pt x="1642" y="1491" on="0"/>
        <pt x="1642" y="1484" on="1"/>
        <pt x="1640" y="1463" on="0"/>
        <pt x="1628" y="1446" on="1"/>
        <pt x="1598" y="1446" on="0"/>
        <pt x="1466" y="1418" on="0"/>
        <pt x="1452" y="1400" on="1"/>
        <pt x="1434" y="1375" on="0"/>
        <pt x="1415" y="1313" on="0"/>
        <pt x="1402" y="1245" on="1"/>
        <pt x="1281" y="629" on="1"/>
        <pt x="1248" y="460" on="0"/>
        <pt x="1134" y="215" on="0"/>
        <pt x="973" y="63" on="0"/>
        <pt x="771" y="-9" on="0"/>
        <pt x="645" y="-9" on="1"/>
        <pt x="526" y="-9" on="0"/>
        <pt x="342" y="76" on="0"/>
        <pt x="285" y="155" on="1"/>
        <pt x="208" y="265" on="0"/>
        <pt x="208" y="422" on="1"/>
        <pt x="208" y="492" on="0"/>
      </contour>
    </TTGlyph>
    <TTGlyph name="Uacute" xMin="171" yMin="-9" xMax="1642" yMax="1867">
      <contour>
        <pt x="221" y="572" on="1"/>
        <pt x="351" y="1238" on="1"/>
        <pt x="352" y="1243" on="0"/>
        <pt x="354" y="1252" on="1"/>
        <pt x="378" y="1373" on="0"/>
        <pt x="374" y="1407" on="1"/>
        <pt x="372" y="1423" on="0"/>
        <pt x="267" y="1443" on="0"/>
        <pt x="235" y="1443" on="1"/>
        <pt x="229" y="1451" on="0"/>
        <pt x="239" y="1501" on="0"/>
        <pt x="249" y="1509" on="1"/>
        <pt x="272" y="1508" on="0"/>
        <pt x="382" y="1501" on="0"/>
        <pt x="458" y="1498" on="0"/>
        <pt x="532" y="1498" on="0"/>
        <pt x="609" y="1501" on="0"/>
        <pt x="721" y="1508" on="0"/>
        <pt x="746" y="1509" on="1"/>
        <pt x="752" y="1500" on="0"/>
        <pt x="741" y="1452" on="0"/>
        <pt x="732" y="1443" on="1"/>
        <pt x="700" y="1443" on="0"/>
        <pt x="587" y="1423" on="0"/>
        <pt x="579" y="1407" on="1"/>
        <pt x="576" y="1400" on="0"/>
        <pt x="569" y="1383" on="0"/>
        <pt x="564" y="1368" on="0"/>
        <pt x="558" y="1342" on="0"/>
        <pt x="554" y="1327" on="0"/>
        <pt x="547" y="1295" on="0"/>
        <pt x="545" y="1282" on="0"/>
        <pt x="537" y="1244" on="0"/>
        <pt x="536" y="1238" on="1"/>
        <pt x="426" y="675" on="1"/>
        <pt x="374" y="404" on="0"/>
        <pt x="438" y="274" on="1"/>
        <pt x="513" y="123" on="0"/>
        <pt x="714" y="123" on="1"/>
        <pt x="762" y="123" on="0"/>
        <pt x="846" y="137" on="0"/>
        <pt x="929" y="171" on="0"/>
        <pt x="999" y="223" on="0"/>
        <pt x="1064" y="302" on="0"/>
        <pt x="1118" y="405" on="0"/>
        <pt x="1164" y="542" on="0"/>
        <pt x="1181" y="625" on="1"/>
        <pt x="1302" y="1243" on="1"/>
        <pt x="1311" y="1291" on="0"/>
        <pt x="1318" y="1336" on="0"/>
        <pt x="1318" y="1382" on="0"/>
        <pt x="1311" y="1400" on="1"/>
        <pt x="1305" y="1416" on="0"/>
        <pt x="1198" y="1446" on="0"/>
        <pt x="1167" y="1446" on="1"/>
        <pt x="1163" y="1460" on="0"/>
        <pt x="1170" y="1499" on="0"/>
        <pt x="1176" y="1512" on="1"/>
        <pt x="1201" y="1510" on="0"/>
        <pt x="1266" y="1506" on="0"/>
        <pt x="1309" y="1503" on="0"/>
        <pt x="1372" y="1500" on="0"/>
        <pt x="1404" y="1500" on="1"/>
        <pt x="1448" y="1500" on="0"/>
        <pt x="1517" y="1504" on="0"/>
        <pt x="1601" y="1510" on="0"/>
        <pt x="1637" y="1512" on="1"/>
        <pt x="1642" y="1505" on="0"/>
        <pt x="1637" y="1463" on="0"/>
        <pt x="1626" y="1446" on="1"/>
        <pt x="1596" y="1446" on="0"/>
        <pt x="1463" y="1418" on="0"/>
        <pt x="1450" y="1400" on="1"/>
        <pt x="1432" y="1375" on="0"/>
        <pt x="1412" y="1313" on="0"/>
        <pt x="1400" y="1245" on="1"/>
        <pt x="1279" y="629" on="1"/>
        <pt x="1246" y="460" on="0"/>
        <pt x="1132" y="215" on="0"/>
        <pt x="970" y="63" on="0"/>
        <pt x="769" y="-9" on="0"/>
        <pt x="643" y="-9" on="1"/>
        <pt x="524" y="-9" on="0"/>
        <pt x="340" y="76" on="0"/>
        <pt x="283" y="155" on="1"/>
        <pt x="171" y="314" on="0"/>
      </contour>
      <contour>
        <pt x="921" y="1644" on="1"/>
        <pt x="921" y="1656" on="0"/>
        <pt x="1119" y="1828" on="0"/>
        <pt x="1163" y="1856" on="1"/>
        <pt x="1168" y="1859" on="0"/>
        <pt x="1212" y="1867" on="0"/>
        <pt x="1224" y="1867" on="1"/>
        <pt x="1272" y="1867" on="0"/>
        <pt x="1334" y="1837" on="0"/>
        <pt x="1334" y="1817" on="1"/>
        <pt x="1334" y="1791" on="0"/>
        <pt x="1147" y="1694" on="0"/>
        <pt x="954" y="1621" on="0"/>
        <pt x="935" y="1621" on="1"/>
        <pt x="933" y="1621" on="0"/>
        <pt x="921" y="1639" on="0"/>
      </contour>
    </TTGlyph>
    <TTGlyph name="Ucircumflex" xMin="171" yMin="-9" xMax="1642" yMax="1906">
      <contour>
        <pt x="221" y="572" on="1"/>
        <pt x="351" y="1238" on="1"/>
        <pt x="352" y="1243" on="0"/>
        <pt x="354" y="1252" on="1"/>
        <pt x="378" y="1373" on="0"/>
        <pt x="374" y="1407" on="1"/>
        <pt x="372" y="1423" on="0"/>
        <pt x="267" y="1443" on="0"/>
        <pt x="235" y="1443" on="1"/>
        <pt x="229" y="1451" on="0"/>
        <pt x="239" y="1501" on="0"/>
        <pt x="249" y="1509" on="1"/>
        <pt x="272" y="1508" on="0"/>
        <pt x="382" y="1501" on="0"/>
        <pt x="458" y="1498" on="0"/>
        <pt x="532" y="1498" on="0"/>
        <pt x="609" y="1501" on="0"/>
        <pt x="721" y="1508" on="0"/>
        <pt x="746" y="1509" on="1"/>
        <pt x="752" y="1500" on="0"/>
        <pt x="741" y="1452" on="0"/>
        <pt x="732" y="1443" on="1"/>
        <pt x="700" y="1443" on="0"/>
        <pt x="587" y="1423" on="0"/>
        <pt x="579" y="1407" on="1"/>
        <pt x="576" y="1400" on="0"/>
        <pt x="569" y="1383" on="0"/>
        <pt x="564" y="1368" on="0"/>
        <pt x="558" y="1342" on="0"/>
        <pt x="554" y="1327" on="0"/>
        <pt x="547" y="1295" on="0"/>
        <pt x="545" y="1282" on="0"/>
        <pt x="537" y="1244" on="0"/>
        <pt x="536" y="1238" on="1"/>
        <pt x="426" y="675" on="1"/>
        <pt x="374" y="404" on="0"/>
        <pt x="438" y="274" on="1"/>
        <pt x="513" y="123" on="0"/>
        <pt x="714" y="123" on="1"/>
        <pt x="762" y="123" on="0"/>
        <pt x="846" y="137" on="0"/>
        <pt x="929" y="171" on="0"/>
        <pt x="999" y="223" on="0"/>
        <pt x="1064" y="302" on="0"/>
        <pt x="1118" y="405" on="0"/>
        <pt x="1164" y="542" on="0"/>
        <pt x="1181" y="625" on="1"/>
        <pt x="1302" y="1243" on="1"/>
        <pt x="1311" y="1291" on="0"/>
        <pt x="1318" y="1336" on="0"/>
        <pt x="1318" y="1382" on="0"/>
        <pt x="1311" y="1400" on="1"/>
        <pt x="1305" y="1416" on="0"/>
        <pt x="1198" y="1446" on="0"/>
        <pt x="1167" y="1446" on="1"/>
        <pt x="1163" y="1460" on="0"/>
        <pt x="1170" y="1499" on="0"/>
        <pt x="1176" y="1512" on="1"/>
        <pt x="1201" y="1510" on="0"/>
        <pt x="1266" y="1506" on="0"/>
        <pt x="1309" y="1503" on="0"/>
        <pt x="1372" y="1500" on="0"/>
        <pt x="1404" y="1500" on="1"/>
        <pt x="1448" y="1500" on="0"/>
        <pt x="1517" y="1504" on="0"/>
        <pt x="1601" y="1510" on="0"/>
        <pt x="1637" y="1512" on="1"/>
        <pt x="1642" y="1505" on="0"/>
        <pt x="1637" y="1463" on="0"/>
        <pt x="1626" y="1446" on="1"/>
        <pt x="1596" y="1446" on="0"/>
        <pt x="1463" y="1418" on="0"/>
        <pt x="1450" y="1400" on="1"/>
        <pt x="1432" y="1375" on="0"/>
        <pt x="1412" y="1313" on="0"/>
        <pt x="1400" y="1245" on="1"/>
        <pt x="1279" y="629" on="1"/>
        <pt x="1246" y="460" on="0"/>
        <pt x="1132" y="215" on="0"/>
        <pt x="970" y="63" on="0"/>
        <pt x="769" y="-9" on="0"/>
        <pt x="643" y="-9" on="1"/>
        <pt x="524" y="-9" on="0"/>
        <pt x="340" y="76" on="0"/>
        <pt x="283" y="155" on="1"/>
        <pt x="171" y="314" on="0"/>
      </contour>
      <contour>
        <pt x="711" y="1644" on="1"/>
        <pt x="872" y="1764" on="0"/>
        <pt x="1012" y="1890" on="1"/>
        <pt x="1032" y="1906" on="0"/>
        <pt x="1044" y="1906" on="1"/>
        <pt x="1059" y="1906" on="0"/>
        <pt x="1067" y="1890" on="1"/>
        <pt x="1145" y="1765" on="0"/>
        <pt x="1245" y="1644" on="1"/>
        <pt x="1243" y="1634" on="0"/>
        <pt x="1222" y="1621" on="0"/>
        <pt x="1211" y="1621" on="1"/>
        <pt x="1008" y="1756" on="1"/>
        <pt x="843" y="1676" on="0"/>
        <pt x="734" y="1621" on="1"/>
        <pt x="729" y="1621" on="0"/>
        <pt x="720" y="1624" on="0"/>
        <pt x="714" y="1630" on="0"/>
        <pt x="711" y="1639" on="0"/>
      </contour>
    </TTGlyph>
    <TTGlyph name="Udieresis" xMin="171" yMin="-9" xMax="1642" yMax="1888">
      <contour>
        <pt x="221" y="572" on="1"/>
        <pt x="351" y="1238" on="1"/>
        <pt x="352" y="1243" on="0"/>
        <pt x="354" y="1252" on="1"/>
        <pt x="378" y="1373" on="0"/>
        <pt x="374" y="1407" on="1"/>
        <pt x="372" y="1423" on="0"/>
        <pt x="267" y="1443" on="0"/>
        <pt x="235" y="1443" on="1"/>
        <pt x="229" y="1451" on="0"/>
        <pt x="239" y="1501" on="0"/>
        <pt x="249" y="1509" on="1"/>
        <pt x="272" y="1508" on="0"/>
        <pt x="382" y="1501" on="0"/>
        <pt x="458" y="1498" on="0"/>
        <pt x="532" y="1498" on="0"/>
        <pt x="609" y="1501" on="0"/>
        <pt x="721" y="1508" on="0"/>
        <pt x="746" y="1509" on="1"/>
        <pt x="752" y="1500" on="0"/>
        <pt x="741" y="1452" on="0"/>
        <pt x="732" y="1443" on="1"/>
        <pt x="700" y="1443" on="0"/>
        <pt x="587" y="1423" on="0"/>
        <pt x="579" y="1407" on="1"/>
        <pt x="576" y="1400" on="0"/>
        <pt x="569" y="1383" on="0"/>
        <pt x="564" y="1368" on="0"/>
        <pt x="558" y="1342" on="0"/>
        <pt x="554" y="1327" on="0"/>
        <pt x="547" y="1295" on="0"/>
        <pt x="545" y="1282" on="0"/>
        <pt x="537" y="1244" on="0"/>
        <pt x="536" y="1238" on="1"/>
        <pt x="426" y="675" on="1"/>
        <pt x="374" y="404" on="0"/>
        <pt x="438" y="274" on="1"/>
        <pt x="513" y="123" on="0"/>
        <pt x="714" y="123" on="1"/>
        <pt x="762" y="123" on="0"/>
        <pt x="846" y="137" on="0"/>
        <pt x="929" y="171" on="0"/>
        <pt x="999" y="223" on="0"/>
        <pt x="1064" y="302" on="0"/>
        <pt x="1118" y="405" on="0"/>
        <pt x="1164" y="542" on="0"/>
        <pt x="1181" y="625" on="1"/>
        <pt x="1302" y="1243" on="1"/>
        <pt x="1311" y="1291" on="0"/>
        <pt x="1318" y="1336" on="0"/>
        <pt x="1318" y="1382" on="0"/>
        <pt x="1311" y="1400" on="1"/>
        <pt x="1305" y="1416" on="0"/>
        <pt x="1198" y="1446" on="0"/>
        <pt x="1167" y="1446" on="1"/>
        <pt x="1163" y="1460" on="0"/>
        <pt x="1170" y="1499" on="0"/>
        <pt x="1176" y="1512" on="1"/>
        <pt x="1201" y="1510" on="0"/>
        <pt x="1266" y="1506" on="0"/>
        <pt x="1309" y="1503" on="0"/>
        <pt x="1372" y="1500" on="0"/>
        <pt x="1404" y="1500" on="1"/>
        <pt x="1448" y="1500" on="0"/>
        <pt x="1517" y="1504" on="0"/>
        <pt x="1601" y="1510" on="0"/>
        <pt x="1637" y="1512" on="1"/>
        <pt x="1642" y="1505" on="0"/>
        <pt x="1637" y="1463" on="0"/>
        <pt x="1626" y="1446" on="1"/>
        <pt x="1596" y="1446" on="0"/>
        <pt x="1463" y="1418" on="0"/>
        <pt x="1450" y="1400" on="1"/>
        <pt x="1432" y="1375" on="0"/>
        <pt x="1412" y="1313" on="0"/>
        <pt x="1400" y="1245" on="1"/>
        <pt x="1279" y="629" on="1"/>
        <pt x="1246" y="460" on="0"/>
        <pt x="1132" y="215" on="0"/>
        <pt x="970" y="63" on="0"/>
        <pt x="769" y="-9" on="0"/>
        <pt x="643" y="-9" on="1"/>
        <pt x="524" y="-9" on="0"/>
        <pt x="340" y="76" on="0"/>
        <pt x="283" y="155" on="1"/>
        <pt x="171" y="314" on="0"/>
      </contour>
      <contour>
        <pt x="716" y="1774" on="1"/>
        <pt x="722" y="1805" on="0"/>
        <pt x="760" y="1858" on="0"/>
        <pt x="814" y="1888" on="0"/>
        <pt x="844" y="1888" on="1"/>
        <pt x="888" y="1888" on="0"/>
        <pt x="937" y="1822" on="0"/>
        <pt x="928" y="1774" on="1"/>
        <pt x="919" y="1726" on="0"/>
        <pt x="843" y="1660" on="0"/>
        <pt x="798" y="1660" on="1"/>
        <pt x="754" y="1660" on="0"/>
        <pt x="707" y="1726" on="0"/>
      </contour>
      <contour>
        <pt x="1099" y="1774" on="1"/>
        <pt x="1105" y="1805" on="0"/>
        <pt x="1143" y="1858" on="0"/>
        <pt x="1197" y="1888" on="0"/>
        <pt x="1227" y="1888" on="1"/>
        <pt x="1271" y="1888" on="0"/>
        <pt x="1320" y="1822" on="0"/>
        <pt x="1311" y="1774" on="1"/>
        <pt x="1305" y="1742" on="0"/>
        <pt x="1267" y="1690" on="0"/>
        <pt x="1213" y="1660" on="0"/>
        <pt x="1183" y="1660" on="1"/>
        <pt x="1139" y="1660" on="0"/>
        <pt x="1090" y="1726" on="0"/>
      </contour>
    </TTGlyph>
    <TTGlyph name="Ugrave" xMin="171" yMin="-9" xMax="1642" yMax="1865">
      <contour>
        <pt x="221" y="572" on="1"/>
        <pt x="351" y="1238" on="1"/>
        <pt x="352" y="1243" on="0"/>
        <pt x="354" y="1252" on="1"/>
        <pt x="378" y="1373" on="0"/>
        <pt x="374" y="1407" on="1"/>
        <pt x="372" y="1423" on="0"/>
        <pt x="267" y="1443" on="0"/>
        <pt x="235" y="1443" on="1"/>
        <pt x="229" y="1451" on="0"/>
        <pt x="239" y="1501" on="0"/>
        <pt x="249" y="1509" on="1"/>
        <pt x="272" y="1508" on="0"/>
        <pt x="382" y="1501" on="0"/>
        <pt x="458" y="1498" on="0"/>
        <pt x="532" y="1498" on="0"/>
        <pt x="609" y="1501" on="0"/>
        <pt x="721" y="1508" on="0"/>
        <pt x="746" y="1509" on="1"/>
        <pt x="752" y="1500" on="0"/>
        <pt x="741" y="1452" on="0"/>
        <pt x="732" y="1443" on="1"/>
        <pt x="700" y="1443" on="0"/>
        <pt x="587" y="1423" on="0"/>
        <pt x="579" y="1407" on="1"/>
        <pt x="576" y="1400" on="0"/>
        <pt x="569" y="1383" on="0"/>
        <pt x="564" y="1368" on="0"/>
        <pt x="558" y="1342" on="0"/>
        <pt x="554" y="1327" on="0"/>
        <pt x="547" y="1295" on="0"/>
        <pt x="545" y="1282" on="0"/>
        <pt x="537" y="1244" on="0"/>
        <pt x="536" y="1238" on="1"/>
        <pt x="426" y="675" on="1"/>
        <pt x="374" y="404" on="0"/>
        <pt x="438" y="274" on="1"/>
        <pt x="513" y="123" on="0"/>
        <pt x="714" y="123" on="1"/>
        <pt x="762" y="123" on="0"/>
        <pt x="846" y="137" on="0"/>
        <pt x="929" y="171" on="0"/>
        <pt x="999" y="223" on="0"/>
        <pt x="1064" y="302" on="0"/>
        <pt x="1118" y="405" on="0"/>
        <pt x="1164" y="542" on="0"/>
        <pt x="1181" y="625" on="1"/>
        <pt x="1302" y="1243" on="1"/>
        <pt x="1311" y="1291" on="0"/>
        <pt x="1318" y="1336" on="0"/>
        <pt x="1318" y="1382" on="0"/>
        <pt x="1311" y="1400" on="1"/>
        <pt x="1305" y="1416" on="0"/>
        <pt x="1198" y="1446" on="0"/>
        <pt x="1167" y="1446" on="1"/>
        <pt x="1163" y="1460" on="0"/>
        <pt x="1170" y="1499" on="0"/>
        <pt x="1176" y="1512" on="1"/>
        <pt x="1201" y="1510" on="0"/>
        <pt x="1266" y="1506" on="0"/>
        <pt x="1309" y="1503" on="0"/>
        <pt x="1372" y="1500" on="0"/>
        <pt x="1404" y="1500" on="1"/>
        <pt x="1448" y="1500" on="0"/>
        <pt x="1517" y="1504" on="0"/>
        <pt x="1601" y="1510" on="0"/>
        <pt x="1637" y="1512" on="1"/>
        <pt x="1642" y="1505" on="0"/>
        <pt x="1637" y="1463" on="0"/>
        <pt x="1626" y="1446" on="1"/>
        <pt x="1596" y="1446" on="0"/>
        <pt x="1463" y="1418" on="0"/>
        <pt x="1450" y="1400" on="1"/>
        <pt x="1432" y="1375" on="0"/>
        <pt x="1412" y="1313" on="0"/>
        <pt x="1400" y="1245" on="1"/>
        <pt x="1279" y="629" on="1"/>
        <pt x="1246" y="460" on="0"/>
        <pt x="1132" y="215" on="0"/>
        <pt x="970" y="63" on="0"/>
        <pt x="769" y="-9" on="0"/>
        <pt x="643" y="-9" on="1"/>
        <pt x="524" y="-9" on="0"/>
        <pt x="340" y="76" on="0"/>
        <pt x="283" y="155" on="1"/>
        <pt x="171" y="314" on="0"/>
      </contour>
      <contour>
        <pt x="691" y="1815" on="1"/>
        <pt x="691" y="1835" on="0"/>
        <pt x="753" y="1865" on="0"/>
        <pt x="800" y="1865" on="1"/>
        <pt x="813" y="1865" on="0"/>
        <pt x="857" y="1857" on="0"/>
        <pt x="862" y="1854" on="1"/>
        <pt x="906" y="1825" on="0"/>
        <pt x="1104" y="1653" on="0"/>
        <pt x="1104" y="1642" on="1"/>
        <pt x="1104" y="1637" on="0"/>
        <pt x="1092" y="1619" on="0"/>
        <pt x="1090" y="1619" on="1"/>
        <pt x="1071" y="1619" on="0"/>
        <pt x="877" y="1692" on="0"/>
        <pt x="691" y="1789" on="0"/>
      </contour>
    </TTGlyph>
</ttFont>
